<svg width="158" height="70" viewBox="0 0 158 70" fill="none" xmlns="http://www.w3.org/2000/svg">
<path d="M60.8878 9.9839C63.7019 9.9835 66.5159 9.9831 69.4153 9.98269C70.3044 9.98251 71.1936 9.98233 72.1097 9.98215C73.1939 9.98206 73.1939 9.98206 73.7011 9.98205C74.0678 9.98203 74.4344 9.98195 74.801 9.98184C75.1878 9.98172 75.5746 9.98167 75.9614 9.9817C76.0155 9.9817 76.0695 9.9817 76.1236 9.98171C76.1342 9.98171 76.1448 9.98171 76.1557 9.98171C76.3212 9.98171 76.4867 9.98166 76.6522 9.98157C76.8138 9.98149 76.9755 9.98147 77.1371 9.98153C77.2233 9.98157 77.3096 9.98157 77.3958 9.98148C77.7576 9.98111 78.1185 9.98371 78.4798 10.0033C78.4871 10.0037 78.4944 10.0041 78.5019 10.0045C78.5864 10.0091 78.6707 10.0143 78.755 10.0203C78.7664 10.0211 78.7778 10.0219 78.7896 10.0228C79.4092 10.0669 80.0267 10.1416 80.6367 10.2508C80.6659 10.256 80.695 10.2612 80.7242 10.2663C81.266 10.3628 81.8038 10.4867 82.3314 10.6349C82.3414 10.6377 82.3514 10.6406 82.3618 10.6435C83.0324 10.8322 83.6871 11.0598 84.3262 11.3248C84.3371 11.3294 84.3481 11.3339 84.3594 11.3386C84.7435 11.498 85.1247 11.6669 85.4906 11.8593C85.5348 11.8825 85.5793 11.905 85.6241 11.9273C85.9239 12.0762 86.2169 12.2408 86.5013 12.4131C86.5072 12.4167 86.5132 12.4203 86.5193 12.424C86.713 12.5413 86.906 12.6594 87.0955 12.7824C87.1038 12.7878 87.1121 12.7931 87.1206 12.7987C87.2442 12.879 87.3648 12.9628 87.4851 13.0473C87.5158 13.0687 87.5466 13.0898 87.5776 13.1109C87.6995 13.1945 87.8178 13.2822 87.9357 13.3705C87.9527 13.3832 87.9697 13.3958 87.9867 13.4085C88.0445 13.4515 88.1015 13.4953 88.1582 13.5395C88.1946 13.5677 88.2314 13.5955 88.2686 13.6229C88.3224 13.663 88.3733 13.7054 88.4241 13.7486C88.4548 13.7745 88.486 13.7996 88.5174 13.8247C88.5511 13.8516 88.5843 13.8791 88.6175 13.9066C88.6348 13.9208 88.652 13.935 88.6693 13.9492C88.776 14.0365 88.8823 14.1247 88.9818 14.2189C89.0021 14.237 89.0229 14.2539 89.0444 14.2709C89.0872 14.3051 89.1278 14.3409 89.1679 14.3777C89.1749 14.3841 89.1819 14.3905 89.1891 14.3971C89.2038 14.4106 89.2184 14.424 89.2331 14.4375C89.2553 14.4579 89.2776 14.4782 89.2998 14.4986C89.3142 14.5117 89.3286 14.5249 89.3429 14.5381C89.3495 14.544 89.356 14.55 89.3628 14.5562C89.4024 14.5927 89.4401 14.6303 89.4767 14.6694C89.5021 14.696 89.5295 14.7205 89.5571 14.7452C89.5976 14.7818 89.6365 14.8189 89.6734 14.8586C89.7045 14.8912 89.737 14.9226 89.7693 14.9541C89.8199 15.0035 89.8698 15.0532 89.9178 15.1047C89.9271 15.1146 89.9364 15.1245 89.9457 15.1345C89.9618 15.1517 89.9779 15.1689 89.994 15.1861C90.034 15.2289 90.0744 15.2716 90.1148 15.3142C90.1986 15.4026 90.2819 15.4913 90.3612 15.5831C90.3794 15.6039 90.3977 15.6245 90.4161 15.6451C90.4796 15.716 90.5416 15.7876 90.6013 15.8613C90.6412 15.9105 90.6822 15.9589 90.7236 16.0072C90.7912 16.0863 90.8557 16.1672 90.9195 16.249C90.9362 16.2705 90.9531 16.2918 90.9701 16.3131C91.3301 16.765 91.6552 17.2412 91.955 17.7283C91.9639 17.7427 91.9639 17.7427 91.973 17.7574C92.0811 17.9323 92.183 18.1097 92.2822 18.289C92.2949 18.3119 92.3077 18.3349 92.3205 18.3578C92.4365 18.566 92.5465 18.7757 92.6481 18.9901C92.6687 19.0335 92.6896 19.0766 92.7109 19.1196C92.7895 19.2791 92.8621 19.4405 92.9312 19.6036C92.9341 19.6105 92.937 19.6174 92.94 19.6245C93.2722 20.4105 93.5405 21.2173 94.0559 24.326C94.0564 24.335 94.057 24.344 94.0575 24.3532C94.1138 25.2856 94.0738 26.224 93.2813 29.855C93.2782 29.8637 93.2751 29.8725 93.2719 29.8816C92.9987 30.6553 92.6527 31.4046 92.0304 32.5032C92.0031 32.5469 91.9767 32.5911 91.9507 32.6355C91.8813 32.7536 91.807 32.8685 91.7308 32.983C91.7118 33.0118 91.6928 33.0406 91.6738 33.0695C91.4632 33.3892 91.2366 33.6999 91.0001 34.0041C90.9946 34.0112 90.989 34.0183 90.9833 34.0257C90.8957 34.1385 90.8048 34.2489 90.7128 34.3587C90.6937 34.3815 90.6747 34.4043 90.6558 34.4272C90.5829 34.5153 90.5079 34.6015 90.4314 34.687C90.4112 34.7096 90.3913 34.7324 90.3714 34.7553C90.3012 34.8359 90.2295 34.9152 90.156 34.9933C90.1236 35.0277 90.0921 35.0625 90.0611 35.0978C90.0149 35.15 89.9654 35.1989 89.9155 35.2479C89.8926 35.2704 89.8702 35.2932 89.8482 35.3165C89.8033 35.364 89.7566 35.4101 89.7101 35.4563C89.6958 35.4705 89.6817 35.4847 89.6675 35.4989C89.5145 35.6525 89.3571 35.8018 89.1964 35.9487C89.1696 35.9732 89.1428 35.9977 89.116 36.0223C89.095 36.0416 89.074 36.0608 89.0529 36.0801C89.0383 36.0935 89.0237 36.1068 89.0091 36.1202C88.9619 36.1633 88.914 36.2051 88.8633 36.2448C88.8424 36.2614 88.823 36.279 88.8037 36.2973C88.771 36.3276 88.7372 36.3558 88.7019 36.3836C88.668 36.4109 88.6351 36.4391 88.6021 36.4673C88.5499 36.5119 88.4973 36.5559 88.443 36.5985C88.432 36.6071 88.4211 36.6157 88.4101 36.6244C88.3846 36.6444 88.3592 36.6643 88.3337 36.6843C88.3085 36.7041 88.2833 36.7239 88.2582 36.7437C88.1619 36.8198 88.064 36.894 87.9655 36.9677C87.9582 36.9733 87.9508 36.9788 87.9432 36.9845C87.8612 37.046 87.7788 37.1067 87.6945 37.1655C87.6673 37.1845 87.6404 37.2037 87.6135 37.223C87.5107 37.297 87.4062 37.3683 87.2998 37.4379C87.2757 37.4537 87.2517 37.4695 87.2277 37.4855C87.2197 37.4908 87.2116 37.4961 87.2033 37.5016C87.1885 37.5115 87.1737 37.5213 87.1589 37.5312C87.1343 37.5475 87.1096 37.5637 87.0849 37.5799C87.0789 37.5838 87.0728 37.5878 87.0667 37.5918C86.9498 37.6683 86.8312 37.7423 86.7116 37.8151C86.6831 37.8325 86.6546 37.8499 86.6262 37.8673C86.5044 37.9417 86.3814 38.0142 86.2573 38.0852C86.2449 38.0923 86.2325 38.0994 86.2201 38.1065C86.0507 38.2033 85.8792 38.2962 85.7055 38.3864C85.6946 38.3921 85.6837 38.3978 85.6724 38.4036C85.3122 38.5907 84.9459 38.7709 84.5702 38.9305C84.5637 38.9333 84.5572 38.9361 84.5505 38.9389C83.6946 39.3036 82.8101 39.6072 81.5462 39.9217C81.5374 39.9237 81.5286 39.9258 81.5195 39.9279C80.5139 40.1632 79.4788 40.3004 78.4062 40.3559C78.3948 40.3565 78.3835 40.3571 78.3717 40.3577C77.9453 40.3795 77.5187 40.3798 77.0917 40.3796C77.0062 40.3795 76.9207 40.3795 76.8352 40.3795C76.6754 40.3796 76.5155 40.3796 76.3557 40.3795C76.1923 40.3795 76.0288 40.3795 75.8654 40.3795C75.8549 40.3795 75.8445 40.3795 75.8337 40.3795C75.7804 40.3795 75.7271 40.3795 75.6738 40.3795C75.2929 40.3795 74.9119 40.3794 74.5309 40.3794C74.0158 40.3793 73.5006 40.3793 72.9855 40.3793C71.7472 40.3792 70.509 40.3791 69.2707 40.379C65.1212 40.3787 65.1212 40.3787 60.8878 40.3784C60.8878 30.3482 60.8878 20.318 60.8878 9.9839ZM69.6202 18.5639C69.6202 22.9281 69.6202 27.2922 69.6202 31.7886C70.8489 31.789 72.0777 31.7894 73.3437 31.7898C73.9256 31.7901 73.9256 31.7901 74.5192 31.7904C74.8671 31.7904 74.8671 31.7904 75.215 31.7905C75.3801 31.7905 75.5451 31.7906 75.7102 31.7907C75.8788 31.7908 76.0474 31.7909 76.2161 31.7908C76.3161 31.7908 76.4161 31.7909 76.5162 31.791C76.5825 31.791 76.6488 31.791 76.7152 31.791C76.7528 31.791 76.7904 31.791 76.828 31.791C77.1007 31.7916 77.3739 31.7821 77.6449 31.7522C77.6524 31.7514 77.6598 31.7506 77.6674 31.7497C78.5726 31.6513 79.4639 31.4007 81.0263 30.5643C81.0344 30.5589 81.0425 30.5536 81.0509 30.5481C81.1632 30.4737 81.2725 30.3968 81.3792 30.3159C81.406 30.2957 81.433 30.2758 81.46 30.2558C81.5066 30.2209 81.5514 30.1846 81.5959 30.1475C81.6173 30.1297 81.639 30.1122 81.661 30.0948C81.7669 30.0101 81.8683 29.9212 81.9675 29.8299C81.9854 29.8135 82.0034 29.7971 82.0213 29.7807C82.081 29.7261 82.1387 29.6708 82.1935 29.612C82.2107 29.5948 82.2279 29.5776 82.2452 29.5604C82.2878 29.5176 82.3285 29.4737 82.3683 29.4286C82.3882 29.4059 82.4084 29.3836 82.4288 29.3613C82.5214 29.26 82.608 29.1556 82.6922 29.0485C82.6977 29.0415 82.7032 29.0345 82.7088 29.0274C82.832 28.8711 82.9469 28.7097 83.0529 28.5432C83.0599 28.5324 83.0599 28.5324 83.0669 28.5213C83.5081 27.8325 83.8096 27.0771 84.0161 25.9098C84.0184 25.8907 84.0209 25.8716 84.0233 25.8525C84.0803 25.3999 84.0803 24.9142 84.0185 24.4621C84.0174 24.4541 84.0163 24.4461 84.0152 24.4378C83.9042 23.6216 83.6527 22.8355 83.1378 21.9454C83.1316 21.9355 83.1254 21.9255 83.1191 21.9153C82.9366 21.6235 82.7315 21.3426 82.5012 21.0806C82.4958 21.0744 82.4903 21.0682 82.4848 21.0619C82.3639 20.9239 82.2391 20.7906 82.1066 20.662C82.0869 20.6429 82.0674 20.6237 82.0479 20.6045C81.9648 20.5225 81.8823 20.4415 81.7896 20.3685C81.7695 20.3522 81.7507 20.3353 81.7319 20.3178C81.6931 20.2818 81.6519 20.2487 81.6099 20.2158C81.5985 20.2068 81.587 20.1977 81.5756 20.1887C81.2166 19.9052 80.8335 19.6534 80.4215 19.4384C80.4137 19.4343 80.4058 19.4302 80.3977 19.4259C80.3424 19.397 80.2867 19.3689 80.2306 19.3413C80.2203 19.3362 80.21 19.3311 80.1994 19.3259C79.4054 18.9369 78.5274 18.6956 76.3065 18.5616C76.2164 18.5617 76.1263 18.5617 76.0362 18.5617C75.8708 18.5617 75.7054 18.5618 75.54 18.5619C75.3164 18.562 75.0928 18.5621 74.8692 18.5621C74.3322 18.5622 73.7952 18.5625 73.2582 18.5627C71.4574 18.5633 71.4574 18.5633 69.6202 18.5639Z" fill="url(#paint0_linear_1530_301)"/>
<path d="M60.8886 13.6111C60.8921 13.6111 60.8956 13.6111 60.8992 13.6111C60.8992 18.8608 60.8992 24.1104 60.8992 29.5191C60.9132 29.5256 60.9273 29.5321 60.9418 29.5388C60.9551 29.5476 60.9682 29.5568 60.9811 29.5663C60.9924 29.5745 60.9924 29.5745 61.0039 29.5829C61.0119 29.5888 61.0199 29.5947 61.0282 29.6008C61.1252 29.6711 61.2242 29.7383 61.3249 29.8041C61.3341 29.8102 61.3434 29.8163 61.353 29.8226C61.5067 29.9235 61.6637 30.0183 61.825 30.1087C61.8346 30.114 61.8442 30.1194 61.854 30.125C62.5232 30.499 63.2343 30.7911 63.9746 31.0225C63.9822 31.0249 63.9898 31.0272 63.9977 31.0297C65.0109 31.347 66.0678 31.5353 68.1247 31.7004C68.1332 31.7008 68.1417 31.7012 68.1505 31.7016C68.2589 31.7063 68.3673 31.7091 68.4759 31.7103C68.4856 31.7104 68.4954 31.7105 68.5054 31.7106C68.5746 31.7113 68.6437 31.7117 68.7129 31.712C68.7356 31.7121 68.7583 31.7122 68.7809 31.7123C69.0662 31.714 69.3505 31.7002 69.6358 31.6906C69.6358 29.3041 69.6358 26.9176 69.6358 24.4588C69.6393 24.4588 69.6428 24.4588 69.6465 24.4588C69.6465 26.8453 69.6465 29.2318 69.6465 31.6906C70.8788 31.6894 72.1112 31.6882 73.3809 31.6869C73.77 31.6866 74.159 31.6863 74.5598 31.6859C74.9087 31.6855 74.9087 31.6855 75.2577 31.6851C75.4232 31.6849 75.5887 31.6848 75.7543 31.6847C75.9234 31.6846 76.0925 31.6844 76.2616 31.6841C76.362 31.684 76.4623 31.6839 76.5626 31.6839C76.6292 31.6839 76.6957 31.6838 76.7622 31.6837C76.7999 31.6836 76.8376 31.6835 76.8753 31.6836C77.1489 31.6837 77.4229 31.6742 77.6947 31.6439C77.7022 31.6431 77.7096 31.6423 77.7173 31.6415C78.6251 31.5419 79.519 31.2885 81.086 30.4427C81.0941 30.4373 81.1023 30.4319 81.1106 30.4263C81.2233 30.3512 81.3329 30.2734 81.4399 30.1916C81.4668 30.1711 81.4939 30.151 81.521 30.1308C81.5676 30.0955 81.6126 30.0588 81.6572 30.0213C81.6787 30.0032 81.7005 29.9856 81.7225 29.968C81.8331 29.8785 81.9383 29.7845 82.0424 29.6886C82.0511 29.6806 82.0511 29.6806 82.06 29.6724C82.1243 29.6133 82.1869 29.5534 82.2459 29.4896C82.2631 29.4722 82.2804 29.4548 82.2978 29.4374C82.3406 29.3941 82.3814 29.3497 82.4212 29.3041C82.4412 29.2812 82.4615 29.2586 82.482 29.2361C82.5748 29.1337 82.6616 29.0281 82.7461 28.9197C82.7516 28.9127 82.7571 28.9057 82.7628 28.8984C82.8863 28.7404 83.0016 28.5772 83.1079 28.4088C83.1125 28.4015 83.1171 28.3942 83.1219 28.3867C83.5644 27.6902 83.8668 26.9263 84.0739 25.7459C84.0762 25.7266 84.0787 25.7073 84.0811 25.6879C84.1383 25.2303 84.1382 24.7391 84.0762 24.282C84.0746 24.2698 84.0746 24.2698 84.0729 24.2574C83.962 23.4347 83.7047 22.6658 83.2675 21.855C83.2745 21.8517 83.2815 21.8485 83.2888 21.8452C83.7059 22.5533 84.0282 23.299 84.6369 26.2238C84.6376 26.2323 84.6382 26.2409 84.6389 26.2497C84.6571 26.4938 84.6637 26.7381 84.6635 26.9828C84.6635 26.9951 84.6635 27.0073 84.6635 27.0199C84.6621 27.9997 84.5226 28.9734 83.6293 31.7103C83.6264 31.7166 83.6236 31.723 83.6206 31.7295C83.4018 32.215 83.1664 32.6968 82.8899 33.1569C82.866 33.1971 82.8428 33.2376 82.8194 33.278C82.7478 33.402 82.6729 33.524 82.5954 33.6449C82.5749 33.6768 82.5545 33.7089 82.5342 33.7409C82.4466 33.8785 82.3567 34.0146 82.2644 34.1495C82.2466 34.1755 82.2289 34.2015 82.2113 34.2276C82.1502 34.3175 82.0878 34.4065 82.0235 34.4945C82.0064 34.518 81.9895 34.5417 81.9726 34.5653C81.8131 34.786 81.649 35.0037 81.4797 35.2181C81.4737 35.2257 81.4678 35.2333 81.4616 35.2411C81.388 35.3343 81.3132 35.4264 81.2362 35.5172C81.1958 35.5648 81.1563 35.6129 81.1172 35.6615C81.0687 35.7218 81.0182 35.7804 80.9666 35.8385C80.9298 35.88 80.8936 35.9219 80.8579 35.9642C80.7659 36.073 80.6702 36.1789 80.5734 36.2839C80.5438 36.316 80.5148 36.3485 80.4861 36.3812C80.4094 36.4681 80.3296 36.5526 80.248 36.6355C80.217 36.667 80.1876 36.6992 80.1589 36.7325C80.1107 36.7875 80.0586 36.8388 80.0058 36.8901C79.9663 36.9284 79.928 36.9675 79.8905 37.0074C79.8648 37.0346 79.8383 37.061 79.8117 37.0874C79.8006 37.0985 79.7894 37.1096 79.7783 37.1207C79.7728 37.1262 79.7672 37.1318 79.7615 37.1374C79.7363 37.1627 79.7111 37.188 79.686 37.2133C79.6812 37.2181 79.6765 37.2229 79.6716 37.2278C79.6468 37.2528 79.6221 37.2778 79.5974 37.3028C79.5508 37.35 79.504 37.3967 79.4546 37.4414C79.4374 37.4576 79.4216 37.4743 79.4058 37.4917C79.3429 37.5585 79.2733 37.6195 79.2051 37.6817C79.1439 37.7377 79.0833 37.7933 79.0274 37.854C78.9984 37.8841 78.966 37.9108 78.9338 37.938C78.8341 38.0232 78.7386 38.112 78.6432 38.2012C78.5888 38.2518 78.5345 38.3016 78.4757 38.3478C78.4468 38.3709 78.4204 38.3961 78.3937 38.4213C78.3521 38.4603 78.3097 38.4974 78.2645 38.5329C78.2428 38.5506 78.2225 38.5693 78.2022 38.5883C78.0966 38.6869 78.0966 38.6869 78.0514 38.7063C78.0281 38.7153 78.0281 38.7153 78.0213 38.7456C78.005 38.7607 78.005 38.7607 77.984 38.7769C77.9419 38.8097 77.901 38.8437 77.8604 38.8782C77.8404 38.8929 77.8404 38.8929 77.8191 38.8929C77.8191 38.8994 77.8191 38.9059 77.8191 38.9126C77.812 38.9126 77.805 38.9126 77.7978 38.9126C77.7978 38.9191 77.7978 38.9256 77.7978 38.9322C77.7817 38.9455 77.7649 38.9581 77.7479 38.9703C77.6918 39.0116 77.6393 39.0553 77.5875 39.1011C77.5446 39.1386 77.5446 39.1386 77.5211 39.1386C77.5211 39.1451 77.5211 39.1516 77.5211 39.1582C77.4628 39.2074 77.4628 39.2074 77.436 39.2074C77.436 39.2138 77.436 39.2203 77.436 39.227C77.4192 39.2409 77.4018 39.2541 77.3841 39.2669C77.3435 39.2969 77.304 39.3273 77.2657 39.3597C77.2304 39.3894 77.1944 39.4179 77.1573 39.4456C77.1097 39.4812 77.0632 39.5178 77.017 39.555C76.9063 39.6439 76.7943 39.7311 76.6804 39.8166C76.662 39.8305 76.6436 39.8444 76.6252 39.8583C76.5628 39.9055 76.5002 39.9524 76.4376 39.9993C76.4083 40.0214 76.3789 40.0434 76.3496 40.0655C76.159 40.2091 76.159 40.2091 76.0954 40.2525C76.0724 40.269 76.0724 40.269 76.0486 40.2924C75.9382 40.3872 75.8283 40.3805 75.6837 40.3789C75.6579 40.379 75.6321 40.3791 75.6063 40.3792C75.5501 40.3795 75.4939 40.3794 75.4378 40.3791C75.3537 40.3786 75.2696 40.3787 75.1855 40.3788C75.0422 40.3791 74.8989 40.379 74.7556 40.3785C74.6104 40.3781 74.4652 40.3779 74.32 40.3779C74.3062 40.3779 74.3062 40.3779 74.2922 40.3779C74.2454 40.3779 74.1986 40.378 74.1518 40.378C73.8133 40.3781 73.4748 40.3778 73.1362 40.3772C72.801 40.3766 72.4658 40.3762 72.1305 40.3761C72.1201 40.3761 72.1097 40.3761 72.099 40.3761C72.0039 40.3761 71.9088 40.3761 71.8137 40.376C71.5772 40.376 71.3408 40.3759 71.1044 40.3758C71.0937 40.3758 71.0829 40.3758 71.0718 40.3757C70.5482 40.3755 70.0245 40.3749 69.5009 40.3742C69.3192 40.374 69.1375 40.3738 68.9558 40.3736C68.9445 40.3735 68.9332 40.3735 68.9216 40.3735C68.3977 40.3729 67.8738 40.3725 67.3498 40.3722C67.3158 40.3722 67.2818 40.3722 67.2478 40.3722C67.0224 40.372 66.797 40.3719 66.5715 40.3718C66.123 40.3715 65.6745 40.3713 65.226 40.371C65.2046 40.371 65.1832 40.371 65.1619 40.371C64.2004 40.3703 63.2388 40.3694 62.2773 40.3684C62.2683 40.3684 62.2593 40.3684 62.25 40.3683C61.7997 40.3679 61.3495 40.3673 60.8992 40.3668C60.8979 39.5392 60.8966 38.7116 60.8955 37.884C60.8954 37.8503 60.8954 37.8167 60.8953 37.7831C60.8949 37.4397 60.8944 37.0963 60.894 36.753C60.8939 36.703 60.8938 36.6531 60.8938 36.6032C60.8927 35.7694 60.8917 34.9356 60.8909 34.1017C60.8909 34.0944 60.8909 34.087 60.8909 34.0795C60.8901 33.2667 60.8894 32.454 60.8879 26.3677C60.8878 26.3555 60.8878 26.3434 60.8878 26.3308C60.8878 25.1101 60.8878 23.8893 60.8879 21.7396C60.8879 21.6525 60.8879 21.5653 60.8879 21.4781C60.888 20.2806 60.888 19.0832 60.8886 13.6111Z" fill="url(#paint1_linear_1530_301)"/>
<path d="M77.5324 18.602C77.6116 18.6009 77.6893 18.6039 77.7681 18.6106C77.7792 18.6115 77.7904 18.6124 77.8019 18.6134C77.8384 18.6164 77.8748 18.6195 77.9113 18.6227C77.9239 18.6238 77.9366 18.6248 77.9496 18.626C78.7993 18.6992 79.6427 18.829 80.4728 19.01C80.4893 19.0136 80.4893 19.0136 80.5062 19.0172C81.0394 19.1338 81.5659 19.27 82.0864 19.4276C82.0954 19.4304 82.1044 19.4331 82.1136 19.4359C82.6271 19.5913 83.1314 19.7704 83.6256 19.9716C83.6324 19.9744 83.6393 19.9772 83.6464 19.98C83.8689 20.0706 84.0888 20.1657 84.3072 20.2641C84.3249 20.2721 84.3427 20.28 84.3604 20.288C84.497 20.3492 84.631 20.4141 84.7641 20.4814C84.793 20.4959 84.8219 20.5103 84.8509 20.5245C85.3606 20.7762 85.8512 21.0614 86.3218 21.3702C86.3336 21.3779 86.3336 21.3779 86.3456 21.3857C86.4489 21.4533 86.5507 21.5222 86.6509 21.5936C86.6679 21.6056 86.6849 21.6175 86.702 21.6295C86.731 21.6498 86.76 21.6703 86.7889 21.6907C86.7949 21.695 86.801 21.6993 86.8072 21.7037C86.8873 21.7605 86.9658 21.8188 87.0429 21.8791C87.0724 21.9021 87.1024 21.9246 87.1326 21.9469C87.2358 22.0239 87.3358 22.1046 87.4345 22.1864C87.4555 22.2038 87.4767 22.2208 87.4981 22.2377C87.5533 22.2817 87.6068 22.3274 87.6605 22.373C87.6734 22.384 87.6863 22.3949 87.6992 22.4059C87.8109 22.5004 87.9195 22.5975 88.0269 22.696C88.053 22.7199 88.0792 22.7438 88.1053 22.7677C88.1222 22.7831 88.1391 22.7986 88.156 22.8141C88.1636 22.8211 88.1713 22.8281 88.1792 22.8353C88.2214 22.8741 88.2618 22.9137 88.3007 22.9554C88.3179 22.9733 88.336 22.9901 88.3546 23.0068C88.3866 23.0357 88.4162 23.0658 88.4455 23.0969C88.4691 23.1217 88.4935 23.1459 88.5178 23.1701C88.5618 23.2142 88.6033 23.2597 88.6443 23.3062C88.6673 23.3317 88.6912 23.3563 88.7155 23.3808C88.7655 23.431 88.8122 23.4834 88.8589 23.5362C88.8696 23.5481 88.8803 23.5601 88.8911 23.572C88.961 23.65 89.0285 23.7292 89.0942 23.8102C89.1212 23.8434 89.1488 23.8762 89.1766 23.9089C89.2367 23.9802 89.2942 24.0531 89.3514 24.1263C89.3622 24.1402 89.373 24.154 89.3839 24.1678C89.7006 24.5708 89.9836 24.9967 90.2415 25.4332C90.2474 25.4432 90.2533 25.4532 90.2593 25.4634C90.2998 25.5324 90.3383 25.6021 90.3764 25.6721C90.3973 25.7106 90.4185 25.7488 90.4399 25.787C90.5463 25.9784 90.6448 26.1723 90.7378 26.3694C90.7484 26.3918 90.7589 26.4141 90.7695 26.4364C91.1724 27.2856 91.467 28.1796 91.9017 30.3005C91.905 30.3229 91.9084 30.3453 91.9117 30.3677C91.9237 30.4492 91.9347 30.5307 91.9449 30.6124C91.9482 30.6389 91.9516 30.6654 91.955 30.6919C92.0004 31.0504 92.0327 31.4094 92.056 31.7697C92.061 31.8464 92.0664 31.923 92.0728 31.9996C92.0774 32.0553 92.0813 32.1111 92.0848 32.1669C92.0864 32.1893 92.0882 32.2118 92.0903 32.2342C92.1055 32.4012 92.066 32.5035 91.9649 32.6425C91.9425 32.6738 91.9229 32.7059 91.9032 32.7387C91.8123 32.8856 91.7183 33.0303 91.6202 33.1733C91.6117 33.1857 91.6032 33.1981 91.5947 33.2105C91.5129 33.3301 91.4292 33.4483 91.3443 33.566C91.3241 33.5941 91.3039 33.6223 91.2836 33.6504C91.2204 33.7383 91.1567 33.8252 91.088 33.9096C91.068 33.9354 91.0482 33.9613 91.0283 33.9873C90.9191 34.1293 90.8055 34.2683 90.6896 34.4058C90.6752 34.4229 90.6609 34.4401 90.6467 34.4572C90.5813 34.5357 90.5135 34.6123 90.4453 34.6887C90.425 34.7115 90.4049 34.7346 90.3848 34.7576C90.3145 34.8382 90.2428 34.9175 90.1692 34.9955C90.1369 35.0299 90.1053 35.0647 90.0743 35.1C90.0281 35.1521 89.9786 35.201 89.9286 35.25C89.9057 35.2725 89.8833 35.2953 89.8613 35.3185C89.8164 35.3661 89.7696 35.4121 89.7231 35.4584C89.7089 35.4725 89.6947 35.4867 89.6806 35.5009C89.5275 35.6545 89.37 35.8037 89.2092 35.9505C89.1824 35.975 89.1556 35.9995 89.1288 36.0241C89.1078 36.0434 89.0867 36.0626 89.0657 36.0818C89.0511 36.0952 89.0365 36.1086 89.0219 36.122C88.9746 36.1651 88.9267 36.2068 88.876 36.2465C88.855 36.2631 88.8356 36.2807 88.8164 36.2989C88.7837 36.3293 88.7498 36.3575 88.7145 36.3853C88.6806 36.4126 88.6477 36.4407 88.6147 36.4689C88.5624 36.5135 88.5098 36.5575 88.4555 36.6C88.4445 36.6087 88.4335 36.6173 88.4225 36.6259C88.3971 36.6459 88.3716 36.6659 88.3461 36.6858C88.3209 36.7056 88.2957 36.7254 88.2706 36.7452C88.1742 36.8213 88.0763 36.8954 87.9778 36.9691C87.9704 36.9747 87.963 36.9802 87.9555 36.9859C87.8735 37.0474 87.791 37.108 87.7066 37.1668C87.6795 37.1858 87.6525 37.205 87.6256 37.2243C87.5227 37.2982 87.4182 37.3696 87.3117 37.4391C87.2876 37.4549 87.2636 37.4707 87.2397 37.4866C87.2316 37.492 87.2236 37.4973 87.2153 37.5028C87.2004 37.5126 87.1856 37.5225 87.1708 37.5323C87.1462 37.5486 87.1215 37.5648 87.0967 37.581C87.0877 37.5869 87.0877 37.5869 87.0785 37.593C86.9616 37.6694 86.8429 37.7433 86.7233 37.8162C86.6948 37.8335 86.6663 37.8509 86.6378 37.8683C86.516 37.9427 86.393 38.0151 86.2687 38.0861C86.2563 38.0932 86.2439 38.1003 86.2315 38.1074C86.0621 38.2042 85.8905 38.297 85.7168 38.3872C85.7004 38.3957 85.7004 38.3957 85.6836 38.4044C85.3233 38.5914 84.9568 38.7715 84.5809 38.9311C84.5744 38.9339 84.5679 38.9367 84.5612 38.9395C83.705 39.304 82.82 39.6075 81.5556 39.9218C81.5468 39.9239 81.5379 39.926 81.5288 39.9281C80.5227 40.1632 79.4873 40.3004 78.4142 40.3559C78.4028 40.3565 78.3914 40.3571 78.3797 40.3577C77.953 40.3795 77.5262 40.3798 77.0991 40.3795C77.0134 40.3795 76.9277 40.3795 76.842 40.3795C76.6819 40.3796 76.5218 40.3796 76.3617 40.3795C76.1998 40.3795 76.0378 40.3794 75.8759 40.3794C75.8656 40.3794 75.8553 40.3795 75.8447 40.3795C75.7923 40.3795 75.7399 40.3795 75.6875 40.3795C75.3094 40.3795 74.9313 40.3794 74.5532 40.3794C74.179 40.3793 73.8048 40.3793 73.4306 40.3793C73.419 40.3793 73.4074 40.3793 73.3954 40.3793C73.289 40.3793 73.1827 40.3793 73.0763 40.3793C72.812 40.3793 72.5477 40.3792 72.2834 40.3792C72.2714 40.3792 72.2594 40.3792 72.247 40.3792C71.6624 40.3792 71.0778 40.3791 70.4932 40.3791C70.2905 40.3791 70.0877 40.379 69.885 40.379C69.8724 40.379 69.8599 40.379 69.8469 40.379C69.2618 40.379 68.6768 40.3789 68.0917 40.3789C68.0534 40.3789 68.0151 40.3789 67.9768 40.3789C67.5776 40.3789 67.1784 40.3788 66.7793 40.3788C66.7678 40.3788 66.7564 40.3788 66.7447 40.3788C66.7239 40.3788 66.7032 40.3788 66.6824 40.3788C64.7509 40.3787 62.8194 40.3785 60.8878 40.3784C60.8878 37.266 60.8878 34.1537 60.8878 30.9471C60.8913 30.9471 60.8948 30.9471 60.8984 30.9471C60.8984 34.0562 60.8984 37.1653 60.8984 40.3686C63.4996 40.37 63.4996 40.37 66.1007 40.3704C66.1209 40.3704 66.1411 40.3704 66.1612 40.3704C66.1764 40.3704 66.1764 40.3704 66.1919 40.3704C66.5494 40.3704 66.9069 40.3704 67.2644 40.3704C67.2986 40.3704 67.3327 40.3704 67.3668 40.3704C67.8893 40.3703 68.4119 40.3704 68.9344 40.3708C68.9456 40.3708 68.9569 40.3708 68.9685 40.3708C69.1496 40.3709 69.3308 40.371 69.512 40.3712C70.0338 40.3715 70.5557 40.3718 71.0775 40.3718C71.0883 40.3718 71.099 40.3718 71.11 40.3718C71.3456 40.3717 71.5812 40.3717 71.8167 40.3716C71.9115 40.3716 72.0063 40.3715 72.1011 40.3715C72.1166 40.3715 72.1166 40.3715 72.1325 40.3715C72.4668 40.3714 72.801 40.3716 73.1353 40.3721C73.472 40.3725 73.8087 40.3726 74.1454 40.3722C74.1919 40.3721 74.2384 40.3721 74.2849 40.372C74.2941 40.372 74.3032 40.372 74.3126 40.372C74.457 40.3719 74.6014 40.3721 74.7459 40.3725C74.8879 40.3728 75.0299 40.3728 75.1719 40.3724C75.2552 40.3722 75.3384 40.3722 75.4217 40.3727C75.4835 40.373 75.5453 40.3728 75.6072 40.3724C75.632 40.3723 75.6569 40.3724 75.6817 40.3726C75.8197 40.3741 75.916 40.3691 76.0181 40.2783C76.0274 40.2697 76.0367 40.261 76.0463 40.2521C76.0616 40.2404 76.077 40.229 76.0928 40.2178C76.1056 40.2082 76.1184 40.1986 76.1312 40.189C76.1837 40.1498 76.2364 40.1111 76.2898 40.073C76.3694 40.0161 76.4472 39.9572 76.525 39.8983C76.552 39.8779 76.5791 39.8577 76.6063 39.8375C76.6542 39.8016 76.7015 39.7651 76.7487 39.7284C76.7847 39.7004 76.821 39.6729 76.8577 39.6456C76.9215 39.5981 76.9837 39.5491 77.046 39.5C77.0721 39.4795 77.0983 39.459 77.1244 39.4385C77.1701 39.4027 77.2158 39.3669 77.2611 39.3306C77.2674 39.3255 77.2738 39.3204 77.2804 39.3151C77.2935 39.3045 77.3067 39.2939 77.3198 39.2832C77.3298 39.2751 77.3298 39.2751 77.34 39.2668C77.3459 39.262 77.3518 39.2572 77.3579 39.2523C77.3732 39.2419 77.3732 39.2419 77.3944 39.2419C77.3944 39.2355 77.3944 39.2291 77.3944 39.2225C77.4526 39.1739 77.4526 39.174 77.4794 39.174C77.4794 39.1675 77.4794 39.1611 77.4794 39.1545C77.4954 39.1414 77.5121 39.129 77.5291 39.1169C77.5851 39.0761 77.6375 39.0329 77.6891 38.9876C77.7319 38.9506 77.7319 38.9506 77.7554 38.9506C77.7554 38.9441 77.7554 38.9377 77.7554 38.9311C77.7624 38.9311 77.7694 38.9311 77.7766 38.9311C77.7766 38.9247 77.7766 38.9183 77.7766 38.9117C77.7937 38.8976 77.8116 38.8841 77.8297 38.871C77.8891 38.8275 77.9482 38.7839 78.002 38.7345C78.0387 38.701 78.0765 38.6686 78.1143 38.6361C78.1261 38.6259 78.1261 38.6259 78.1381 38.6156C78.178 38.5813 78.218 38.547 78.258 38.5128C78.3576 38.4279 78.3576 38.4279 78.454 38.3399C78.473 38.323 78.4922 38.3075 78.5124 38.2919C78.5858 38.2335 78.6529 38.1688 78.7213 38.1055C78.8813 37.9577 78.8813 37.9577 78.9479 37.906C78.9793 37.8807 79.007 37.8522 79.0352 37.8239C79.1155 37.7441 79.1992 37.6676 79.2836 37.5914C79.3335 37.5462 79.3821 37.5005 79.4277 37.4516C79.4477 37.4305 79.4691 37.411 79.4909 37.3916C79.5258 37.3601 79.5584 37.3278 79.5903 37.2937C79.6215 37.2614 79.6538 37.23 79.686 37.1986C79.7358 37.15 79.7851 37.101 79.8337 37.0513C79.8612 37.0233 79.889 36.9956 79.9169 36.9679C79.9614 36.9236 80.0052 36.8787 80.0482 36.8331C80.0708 36.8093 80.0933 36.7854 80.1159 36.7615C80.1219 36.7551 80.1279 36.7488 80.1341 36.7422C80.1679 36.7066 80.202 36.6713 80.2367 36.6365C80.2763 36.5965 80.3135 36.5551 80.3506 36.5131C80.3819 36.4784 80.414 36.4445 80.4463 36.4106C80.5025 36.3517 80.5571 36.2918 80.6108 36.2309C80.6259 36.2141 80.6409 36.1973 80.656 36.1806C80.6728 36.1617 80.6896 36.1429 80.7064 36.1241C80.7143 36.1153 80.7143 36.1153 80.7223 36.1063C80.791 36.0295 80.8589 35.9522 80.9247 35.8733C80.951 35.8417 80.978 35.8105 81.0049 35.7793C81.172 35.5854 81.3321 35.3868 81.4896 35.1864C81.5124 35.1575 81.5353 35.1286 81.5582 35.0998C81.8168 34.7746 82.0577 34.4364 82.288 34.0941C82.2952 34.0835 82.3024 34.0728 82.3098 34.0619C82.4232 33.8933 82.5325 33.7228 82.6383 33.5502C82.6418 33.5446 82.6452 33.539 82.6488 33.5332C82.877 33.1606 83.0944 32.7826 83.2872 32.3936C83.2968 32.3742 83.3065 32.3549 83.3161 32.3356C83.4852 31.9956 83.638 31.6496 83.7765 31.2982C83.7848 31.2773 83.7932 31.2564 83.8015 31.2355C84.0455 30.3677 84.383 29.4554 84.0608 23.8761C84.0557 23.861 84.0506 23.846 84.0455 23.8309C83.8614 23.2858 83.6227 22.7618 83.3376 22.2547C83.3326 22.2457 83.3326 22.2457 83.3274 22.2364C83.3178 22.2193 83.3081 22.2023 83.2984 22.1852C83.2929 22.1755 83.2874 22.1658 83.2817 22.1558C83.2555 22.1129 83.2284 22.075 83.1903 22.0404C83.1806 22.0262 83.1714 22.0116 83.1626 21.9969C83.1573 21.9881 83.152 21.9793 83.1466 21.9703C83.1409 21.9608 83.1352 21.9512 83.1293 21.9415C82.9468 21.6418 82.7355 21.3558 82.5003 21.0885C82.4949 21.0824 82.4895 21.0762 82.4839 21.0698C82.363 20.932 82.2382 20.7987 82.1056 20.6702C82.0858 20.6509 82.0661 20.6316 82.0465 20.6123C82.04 20.6058 82.0334 20.5994 82.0267 20.5927C82.0143 20.5805 82.0019 20.5683 81.9896 20.5561C81.9357 20.5032 81.8814 20.4505 81.821 20.4038C81.7933 20.382 81.767 20.3596 81.7414 20.3358C81.7025 20.2997 81.6613 20.2667 81.6193 20.2338C81.6078 20.2248 81.5964 20.2157 81.585 20.2067C81.2259 19.9233 80.8425 19.6716 80.4304 19.4568C80.4225 19.4526 80.4146 19.4485 80.4065 19.4443C80.3512 19.4153 80.2954 19.3872 80.2393 19.3596C80.229 19.3546 80.2187 19.3495 80.2081 19.3443C79.4049 18.951 78.5184 18.7112 77.5324 18.6117C77.5324 18.6085 77.5324 18.6053 77.5324 18.602Z" fill="url(#paint2_linear_1530_301)"/>
<path d="M82.8882 21.7365C82.9199 21.7617 82.9345 21.79 82.9524 21.8247C82.9884 21.8931 83.0265 21.9603 83.0653 22.0274C83.0697 22.035 83.074 22.0426 83.0785 22.0505C83.0844 22.0606 83.0844 22.0606 83.0904 22.071C83.1002 22.0893 83.1002 22.0893 83.1108 22.1187C83.095 22.1235 83.095 22.1235 83.079 22.1285C83.0747 22.1204 83.0705 22.1123 83.0662 22.1039C83.0503 22.0734 83.0344 22.0429 83.0185 22.0124C83.0116 21.9993 83.0048 21.9862 82.998 21.9731C82.9584 21.8972 82.9187 21.8214 82.8776 21.7463C82.8811 21.743 82.8846 21.7398 82.8882 21.7365Z" fill="#497386"/>
<path d="M77.2065 18.2476C77.3209 18.2431 77.4342 18.2564 77.5477 18.2672C77.5681 18.2691 77.5885 18.271 77.6089 18.2729C77.6586 18.2774 77.7082 18.2821 77.7577 18.2868C77.7542 18.2965 77.7507 18.3062 77.7471 18.3162C77.6347 18.3082 77.5231 18.2944 77.4113 18.2813C77.3914 18.279 77.3715 18.2766 77.3516 18.2743C77.3032 18.2687 77.2549 18.2631 77.2065 18.2574C77.2065 18.2542 77.2065 18.2509 77.2065 18.2476Z" fill="#558093"/>
<path d="M30.8747 60.3436L19.9317 60.452L19.8982 56.3222L20.0253 49.372L19.9957 45.7363L30.7551 45.6298L30.7751 48.0819L22.7074 48.1618L22.7373 51.8404L29.4603 51.7738L29.4802 54.2262L22.7572 54.2927L22.7871 57.9712L30.8547 57.8913L30.8747 60.3436Z" fill="#FF1717"/>
<path d="M60.6087 57.0302C61.3986 56.6368 62.0168 56.077 62.4633 55.3809C62.8926 54.6849 63.1158 53.8829 63.1158 52.9901C63.1158 52.0822 62.8926 51.2954 62.4633 50.5842C62.0168 49.8882 61.3986 49.3283 60.6087 48.95C59.8359 48.5566 58.9601 48.3599 57.9813 48.3599C57.0196 48.3599 56.1438 48.5566 55.3538 48.95C54.5811 49.3283 53.9629 49.8882 53.5164 50.5842C53.0699 51.2954 52.8467 52.0822 52.8467 52.9901C52.8467 53.8829 53.0699 54.6849 53.5164 55.3809C53.9629 56.077 54.5811 56.6368 55.3538 57.0302C56.1438 57.4237 57.0196 57.6204 57.9813 57.6204C58.9601 57.6204 59.8359 57.4237 60.6087 57.0302ZM53.379 59.4967C52.0052 58.846 50.9405 57.9533 50.1677 56.8184C49.395 55.6835 49 54.3974 49 52.9901C49 51.5678 49.395 50.2816 50.1677 49.1467C50.9405 48.0118 52.0052 47.1191 53.379 46.4684C54.7528 45.8178 56.2812 45.5 57.9813 45.5C59.6985 45.5 61.2269 45.8178 62.5835 46.4684C63.9401 47.1191 65.022 48.0118 65.7948 49.1467C66.5847 50.2816 66.9797 51.5678 66.9797 52.9901C66.9797 54.3974 66.5847 55.6835 65.7948 56.8184C65.022 57.9533 63.9401 58.846 62.5835 59.4967C61.2269 60.1473 59.6985 60.4651 57.9813 60.4651C56.2812 60.4651 54.7528 60.1473 53.379 59.4967Z" fill="white"/>
<path d="M120.609 57.0302C121.399 56.6368 122.017 56.077 122.463 55.3809C122.893 54.6849 123.116 53.8829 123.116 52.9901C123.116 52.0822 122.893 51.2954 122.463 50.5842C122.017 49.8882 121.399 49.3283 120.609 48.95C119.836 48.5566 118.96 48.3599 117.981 48.3599C117.02 48.3599 116.144 48.5566 115.354 48.95C114.581 49.3283 113.963 49.8882 113.516 50.5842C113.07 51.2954 112.847 52.0822 112.847 52.9901C112.847 53.8829 113.07 54.6849 113.516 55.3809C113.963 56.077 114.581 56.6368 115.354 57.0302C116.144 57.4237 117.02 57.6204 117.981 57.6204C118.96 57.6204 119.836 57.4237 120.609 57.0302ZM113.379 59.4967C112.005 58.846 110.94 57.9533 110.168 56.8184C109.395 55.6835 109 54.3974 109 52.9901C109 51.5678 109.395 50.2816 110.168 49.1467C110.94 48.0118 112.005 47.1191 113.379 46.4684C114.753 45.8178 116.281 45.5 117.981 45.5C119.699 45.5 121.227 45.8178 122.583 46.4684C123.94 47.1191 125.022 48.0118 125.795 49.1467C126.585 50.2816 126.98 51.5678 126.98 52.9901C126.98 54.3974 126.585 55.6835 125.795 56.8184C125.022 57.9533 123.94 58.846 122.583 59.4967C121.227 60.1474 119.699 60.4651 117.981 60.4651C116.281 60.4651 114.753 60.1474 113.379 59.4967Z" fill="white"/>
<path d="M16.9199 49.0461C16.1381 47.9214 15.0365 47.0622 13.6151 46.4373C12.1937 45.8124 10.5768 45.5 8.72898 45.5H1V48.3432H8.53353C10.2392 48.3432 11.5896 48.7649 12.6024 49.5929C13.6151 50.4208 14.1126 51.5612 14.1126 52.9828C14.1126 54.4044 13.6151 55.5292 12.6024 56.3571C11.5896 57.1851 10.2392 57.6068 8.53353 57.6068H1V60.45H8.72898C10.5768 60.45 12.1937 60.1376 13.6151 59.5127C15.0365 58.9034 16.1381 58.0286 16.9199 56.9039C17.7017 55.7791 18.0926 54.4669 18.0926 52.9828C18.0926 51.4831 17.7017 50.1709 16.9199 49.0461Z" fill="#FF1717"/>
<path d="M129.958 58.5131C128.653 57.3631 128 55.7289 128 53.6105V45.5H131.795V53.4895C131.795 56.077 133.014 57.3783 135.453 57.3783C136.655 57.3783 137.548 57.0605 138.183 56.425C138.802 55.8046 139.111 54.821 139.111 53.4895V45.5H142.871V53.6105C142.871 55.7289 142.219 57.3631 140.914 58.5131C139.609 59.648 137.788 60.223 135.436 60.223C133.083 60.223 131.263 59.648 129.958 58.5131Z" fill="white"/>
<path d="M89.6843 45.4772H85.4136V52.9522V60.1136H89.6843V59.5909V59.0681V55.9318V52.2727V48.6136V47.0454V45.4772Z" fill="white"/>
<path d="M39.4728 60.1365L42.6759 60.1363L50.4599 45.5338L46.562 45.5266L45.0947 48.7264L43.8693 51.3487L40.9999 56.5L38.6663 51.3391L37.4706 48.7125L36.0187 45.5073L32.0349 45.5L39.4728 60.1365Z" fill="#FF1717"/>
<path d="M83.463 45.5L83.4135 60.1364H80.7444L72.5951 51.3738V60.1364H69V45.5H72.0179L79.8513 54.5762V45.5H83.463Z" fill="white"/>
<path d="M105 45.5L104.493 52.8182L105.899 60.1364H104.297V55.9545V52.8182V50L99.4925 53.3409L94.688 50V60.1364H91.485V45.5H94L99.4925 49.6818L105 45.5L104.493 52.8182L105.899 60.1364H107.5V53.3409V45.5H105Z" fill="white"/>
<path d="M146.937 59.996C145.717 59.6934 144.738 59.2849 144 58.7855L145.305 56.2737C146.009 56.7276 146.833 57.0908 147.812 57.3631C148.774 57.6355 149.753 57.7868 150.714 57.7868C151.796 57.7868 152.586 57.6355 153.119 57.3631C153.634 57.0756 153.891 56.6974 153.891 56.2283C153.891 55.8803 153.737 55.5928 153.428 55.3658C153.119 55.1388 152.724 54.9572 152.26 54.821C151.779 54.6849 151.127 54.5335 150.319 54.3671C149.066 54.1099 148.036 53.8526 147.246 53.5803C146.456 53.323 145.769 52.8993 145.202 52.3243C144.618 51.7493 144.343 50.9776 144.343 50.0092C144.343 49.1618 144.601 48.4053 145.116 47.7243C145.631 47.0434 146.404 46.4987 147.452 46.1053C148.482 45.6967 149.753 45.5 151.264 45.5C152.312 45.5 153.325 45.6059 154.338 45.8329C155.334 46.0447 156.21 46.3625 156.965 46.7862L155.78 49.3283C154.269 48.5717 152.758 48.1934 151.23 48.1934C150.165 48.1934 149.392 48.3447 148.877 48.6474C148.362 48.95 148.121 49.3434 148.121 49.8428C148.121 50.3421 148.413 50.7053 148.997 50.9474C149.581 51.1895 150.474 51.4316 151.676 51.6585C152.93 51.9158 153.96 52.1881 154.75 52.4454C155.557 52.7026 156.227 53.1263 156.811 53.6862C157.377 54.246 157.669 55.0178 157.669 55.9862C157.669 56.8033 157.395 57.5599 156.879 58.2408C156.347 58.9217 155.557 59.4664 154.527 59.8599C153.462 60.2684 152.191 60.4651 150.697 60.4651C149.392 60.4651 148.139 60.3138 146.937 59.996Z" fill="white"/>
<path d="M35.3434 69V64.7344H36.6559C37.236 64.7344 37.7165 64.917 38.0973 65.2822C38.4801 65.6475 38.6715 66.1406 38.6715 66.7617V66.9727C38.6715 67.5938 38.4801 68.0869 38.0973 68.4521C37.7165 68.8174 37.236 69 36.6559 69H35.3434ZM35.8503 68.5664H36.6559C37.1149 68.5664 37.4801 68.4277 37.7516 68.1504C38.0231 67.8711 38.1588 67.4785 38.1588 66.9727V66.7617C38.1588 66.2559 38.0231 65.8643 37.7516 65.5869C37.4801 65.3076 37.1149 65.168 36.6559 65.168H35.8503V68.5664ZM39.3496 69V64.7344H42.1386V65.168H39.8564V66.583H41.8486V67.0166H39.8564V68.5664H42.1709V69H39.3496ZM42.219 64.7344H42.7581L43.9944 67.9658C44.0237 68.042 44.052 68.1182 44.0794 68.1943C44.1067 68.2705 44.1321 68.3467 44.1555 68.4229H44.1848C44.2083 68.3467 44.2337 68.2705 44.261 68.1943C44.2883 68.1182 44.3167 68.042 44.346 67.9658L45.5852 64.7344H46.095L44.4192 69.0264H43.8948L42.219 64.7344ZM46.442 69V64.7344H49.231V65.168H46.9488V66.583H48.941V67.0166H46.9488V68.5664H49.2633V69H46.442ZM49.8094 69V64.7344H50.3163V68.5664H52.5048V69H49.8094ZM52.758 66.9727V66.7617C52.758 66.0957 52.9347 65.5771 53.2883 65.2061C53.6418 64.833 54.0969 64.6465 54.6535 64.6465C55.2082 64.6465 55.6623 64.833 56.0158 65.2061C56.3693 65.5771 56.5461 66.0957 56.5461 66.7617V66.9727C56.5461 67.6387 56.3693 68.1582 56.0158 68.5312C55.6623 68.9023 55.2082 69.0879 54.6535 69.0879C54.0988 69.0879 53.6437 68.9023 53.2883 68.5312C52.9347 68.1582 52.758 67.6387 52.758 66.9727ZM53.2707 66.9727C53.2707 67.5 53.3976 67.9102 53.6515 68.2031C53.9054 68.4941 54.2394 68.6396 54.6535 68.6396C55.0676 68.6396 55.4015 68.4941 55.6554 68.2031C55.9094 67.9102 56.0363 67.5 56.0363 66.9727V66.7617C56.0363 66.2344 55.9094 65.8252 55.6554 65.5342C55.4015 65.2412 55.0676 65.0947 54.6535 65.0947C54.2375 65.0947 53.9025 65.2412 53.6486 65.5342C53.3967 65.8252 53.2707 66.2344 53.2707 66.7617V66.9727ZM57.23 69V64.7344H58.7007C59.1968 64.7344 59.5747 64.8535 59.8345 65.0918C60.0942 65.3281 60.2241 65.6406 60.2241 66.0293C60.2241 66.418 60.0942 66.7334 59.8345 66.9756C59.5747 67.2158 59.1968 67.3359 58.7007 67.3359H57.7368V69H57.23ZM57.7368 66.9023H58.7007C59.0776 66.9023 59.3413 66.8184 59.4917 66.6504C59.6421 66.4824 59.7173 66.2764 59.7173 66.0322C59.7173 65.7861 59.6421 65.5811 59.4917 65.417C59.3413 65.251 59.0776 65.168 58.7007 65.168H57.7368V66.9023ZM60.7146 69V64.7344H61.3826L62.7801 67.9658C62.8055 68.0244 62.8328 68.0928 62.8621 68.1709C62.8933 68.249 62.9168 68.3164 62.9324 68.373H62.9588C62.9764 68.3145 62.9988 68.2471 63.0262 68.1709C63.0555 68.0928 63.0828 68.0244 63.1082 67.9658L64.491 64.7344H65.1883V69H64.6931V65.7568C64.6931 65.6982 64.6941 65.6328 64.6961 65.5605C64.7 65.4863 64.7058 65.4199 64.7137 65.3613H64.6844C64.6668 65.4199 64.6443 65.4863 64.617 65.5605C64.5916 65.6328 64.5662 65.6982 64.5408 65.7568L63.1639 69H62.7127L61.3152 65.7568C61.2898 65.6982 61.2644 65.6328 61.239 65.5605C61.2137 65.4863 61.1961 65.4199 61.1863 65.3613H61.1512C61.157 65.4199 61.1629 65.4863 61.1687 65.5605C61.1765 65.6328 61.1805 65.6982 61.1805 65.7568V69H60.7146ZM66.0333 69V64.7344H68.8223V65.168H66.5401V66.583H68.5323V67.0166H66.5401V68.5664H68.8546V69H66.0333ZM69.4008 69V64.7344H69.9633L72.1225 67.9424C72.1693 68.0127 72.2103 68.0811 72.2455 68.1475C72.2807 68.2139 72.308 68.2715 72.3275 68.3203H72.3598C72.3539 68.2617 72.348 68.1846 72.3422 68.0889C72.3383 67.9932 72.3363 67.916 72.3363 67.8574V64.7344H72.8197V69H72.2631L70.0775 65.7598C70.0365 65.6992 70.0004 65.6426 69.9691 65.5898C69.9398 65.5371 69.9144 65.4863 69.893 65.4375H69.8637C69.8695 65.4961 69.8734 65.5596 69.8754 65.6279C69.8793 65.6963 69.8812 65.7598 69.8812 65.8184V69H69.4008ZM73.237 65.168V64.7344H76.7116V65.168H75.2263V69H74.7224V65.168H73.237Z" fill="white"/>
<path d="M77.8157 69L79.5237 64.708H80.0481L81.7562 69H81.2142L79.9456 65.7129C79.9124 65.6328 79.8831 65.5566 79.8577 65.4844C79.8323 65.4102 79.8089 65.3359 79.7874 65.2617H79.7552C79.7356 65.3359 79.7132 65.4102 79.6878 65.4844C79.6624 65.5566 79.6341 65.6328 79.6028 65.7129L78.3226 69H77.8157ZM78.513 67.8779L78.6771 67.4443L80.8773 67.4473L81.0442 67.8809L78.513 67.8779ZM82.1031 69V64.7344H82.6656L84.8248 67.9424C84.8717 68.0127 84.9127 68.0811 84.9479 68.1475C84.983 68.2139 85.0104 68.2715 85.0299 68.3203H85.0621C85.0563 68.2617 85.0504 68.1846 85.0445 68.0889C85.0406 67.9932 85.0387 67.916 85.0387 67.8574V64.7344H85.5221V69H84.9654L82.7799 65.7598C82.7389 65.6992 82.7027 65.6426 82.6715 65.5898C82.6422 65.5371 82.6168 65.4863 82.5953 65.4375H82.566C82.5719 65.4961 82.5758 65.5596 82.5777 65.6279C82.5816 65.6963 82.5836 65.7598 82.5836 65.8184V69H82.1031ZM86.206 66.9727V66.7617C86.206 66.0957 86.3827 65.5771 86.7362 65.2061C87.0898 64.833 87.5448 64.6465 88.1015 64.6465C88.6562 64.6465 89.1103 64.833 89.4638 65.2061C89.8173 65.5771 89.9941 66.0957 89.9941 66.7617V66.9727C89.9941 67.6387 89.8173 68.1582 89.4638 68.5312C89.1103 68.9023 88.6562 69.0879 88.1015 69.0879C87.5468 69.0879 87.0917 68.9023 86.7362 68.5312C86.3827 68.1582 86.206 67.6387 86.206 66.9727ZM86.7187 66.9727C86.7187 67.5 86.8456 67.9102 87.0995 68.2031C87.3534 68.4941 87.6874 68.6396 88.1015 68.6396C88.5155 68.6396 88.8495 68.4941 89.1034 68.2031C89.3573 67.9102 89.4843 67.5 89.4843 66.9727V66.7617C89.4843 66.2344 89.3573 65.8252 89.1034 65.5342C88.8495 65.2412 88.5155 65.0947 88.1015 65.0947C87.6855 65.0947 87.3505 65.2412 87.0966 65.5342C86.8446 65.8252 86.7187 66.2344 86.7187 66.7617V66.9727ZM90.6779 69V64.7344H91.2404L93.3996 67.9424C93.4465 68.0127 93.4875 68.0811 93.5227 68.1475C93.5578 68.2139 93.5852 68.2715 93.6047 68.3203H93.6369C93.6311 68.2617 93.6252 68.1846 93.6194 68.0889C93.6154 67.9932 93.6135 67.916 93.6135 67.8574V64.7344H94.0969V69H93.5403L91.3547 65.7598C91.3137 65.6992 91.2776 65.6426 91.2463 65.5898C91.217 65.5371 91.1916 65.4863 91.1701 65.4375H91.1408C91.1467 65.4961 91.1506 65.5596 91.1526 65.6279C91.1565 65.6963 91.1584 65.7598 91.1584 65.8184V69H90.6779ZM96.0816 69V67.3945L94.4878 64.7344H95.0737L96.1489 66.5684C96.1841 66.627 96.2173 66.6855 96.2486 66.7441C96.2798 66.8027 96.3081 66.8613 96.3335 66.9199H96.3628C96.3902 66.8613 96.4194 66.8027 96.4507 66.7441C96.4819 66.6855 96.5152 66.627 96.5503 66.5684L97.6255 64.7344H98.1821L96.5884 67.3945V69H96.0816ZM98.5731 69V64.7344H99.241L100.639 67.9658C100.664 68.0244 100.691 68.0928 100.721 68.1709C100.752 68.249 100.775 68.3164 100.791 68.373H100.817C100.835 68.3145 100.857 68.2471 100.885 68.1709C100.914 68.0928 100.941 68.0244 100.967 67.9658L102.349 64.7344H103.047V69H102.552V65.7568C102.552 65.6982 102.553 65.6328 102.555 65.5605C102.558 65.4863 102.564 65.4199 102.572 65.3613H102.543C102.525 65.4199 102.503 65.4863 102.475 65.5605C102.45 65.6328 102.425 65.6982 102.399 65.7568L101.022 69H100.571L99.1737 65.7568C99.1483 65.6982 99.1229 65.6328 99.0975 65.5605C99.0721 65.4863 99.0545 65.4199 99.0448 65.3613H99.0096C99.0155 65.4199 99.0213 65.4863 99.0272 65.5605C99.035 65.6328 99.0389 65.6982 99.0389 65.7568V69H98.5731ZM103.731 66.9727V66.7617C103.731 66.0957 103.907 65.5771 104.261 65.2061C104.614 64.833 105.069 64.6465 105.626 64.6465C106.181 64.6465 106.635 64.833 106.988 65.2061C107.342 65.5771 107.519 66.0957 107.519 66.7617V66.9727C107.519 67.6387 107.342 68.1582 106.988 68.5312C106.635 68.9023 106.181 69.0879 105.626 69.0879C105.071 69.0879 104.616 68.9023 104.261 68.5312C103.907 68.1582 103.731 67.6387 103.731 66.9727ZM104.243 66.9727C104.243 67.5 104.37 67.9102 104.624 68.2031C104.878 68.4941 105.212 68.6396 105.626 68.6396C106.04 68.6396 106.374 68.4941 106.628 68.2031C106.882 67.9102 107.009 67.5 107.009 66.9727V66.7617C107.009 66.2344 106.882 65.8252 106.628 65.5342C106.374 65.2412 106.04 65.0947 105.626 65.0947C105.21 65.0947 104.875 65.2412 104.621 65.5342C104.369 65.8252 104.243 66.2344 104.243 66.7617V66.9727ZM108.159 67.5293V64.7344H108.665V67.5293C108.665 67.9043 108.768 68.1836 108.973 68.3672C109.178 68.5488 109.445 68.6396 109.773 68.6396C110.101 68.6396 110.368 68.5488 110.573 68.3672C110.78 68.1836 110.883 67.9043 110.883 67.5293V64.7344H111.387V67.5293C111.387 68.0488 111.231 68.4385 110.918 68.6982C110.606 68.958 110.224 69.0879 109.773 69.0879C109.322 69.0879 108.94 68.958 108.627 68.6982C108.315 68.4385 108.159 68.0488 108.159 67.5293ZM111.957 67.8223V67.7871H112.464V67.8193C112.464 68.0889 112.561 68.2939 112.757 68.4346C112.954 68.5732 113.228 68.6426 113.58 68.6426C113.933 68.6426 114.204 68.5723 114.391 68.4316C114.579 68.2891 114.673 68.1074 114.673 67.8867C114.673 67.6895 114.592 67.5303 114.429 67.4092C114.269 67.2861 113.933 67.1621 113.422 67.0371C112.91 66.9102 112.553 66.7568 112.352 66.5771C112.151 66.3975 112.051 66.1436 112.051 65.8154C112.051 65.4814 112.182 65.2031 112.446 64.9805C112.712 64.7578 113.08 64.6465 113.551 64.6465C114.019 64.6465 114.391 64.7676 114.667 65.0098C114.944 65.252 115.083 65.5469 115.083 65.8945V65.9297H114.579V65.8945C114.579 65.6582 114.492 65.4658 114.318 65.3174C114.146 65.167 113.889 65.0918 113.548 65.0918C113.21 65.0918 112.96 65.1562 112.798 65.2852C112.635 65.4121 112.554 65.5703 112.554 65.7598C112.554 65.9629 112.634 66.124 112.792 66.2432C112.952 66.3623 113.257 66.4775 113.706 66.5889C114.223 66.7178 114.597 66.8789 114.828 67.0723C115.06 67.2637 115.176 67.5322 115.176 67.8779C115.176 68.2314 115.033 68.5215 114.746 68.748C114.459 68.9746 114.07 69.0879 113.58 69.0879C113.09 69.0879 112.696 68.9746 112.399 68.748C112.104 68.5215 111.957 68.2129 111.957 67.8223ZM115.758 69V64.7344H116.265V68.5664H118.453V69H115.758ZM120.007 69V67.3945L118.413 64.7344H118.999L120.075 66.5684C120.11 66.627 120.143 66.6855 120.174 66.7441C120.205 66.8027 120.234 66.8613 120.259 66.9199H120.288C120.316 66.8613 120.345 66.8027 120.376 66.7441C120.408 66.6855 120.441 66.627 120.476 66.5684L121.551 64.7344H122.108L120.514 67.3945V69H120.007Z" fill="#FF1717"/>
<defs>
<linearGradient id="paint0_linear_1530_301" x1="58.1935" y1="33.1041" x2="90.9607" y2="26.8587" gradientUnits="userSpaceOnUse">
<stop stop-color="#F24B4B"/>
<stop offset="0.42" stop-color="#F9A5A5"/>
<stop offset="1" stop-color="white"/>
</linearGradient>
<linearGradient id="paint1_linear_1530_301" x1="68.3015" y1="22.5382" x2="78.8844" y2="39.2826" gradientUnits="userSpaceOnUse">
<stop stop-color="#FF1717" stop-opacity="0.08"/>
<stop offset="1" stop-color="#990E0E"/>
</linearGradient>
<linearGradient id="paint2_linear_1530_301" x1="68.3994" y1="10.8453" x2="68.3994" y2="32.6231" gradientUnits="userSpaceOnUse">
<stop stop-color="#FF1717"/>
<stop offset="1" stop-color="#410808"/>
</linearGradient>
</defs>
</svg>
