<svg width="233" height="74" viewBox="0 0 233 74" fill="none" xmlns="http://www.w3.org/2000/svg">
<g filter="url(#filter0_d_1534_354)">
<path d="M188.236 50.9565C186.231 49.1059 185.235 46.4826 185.246 43.0866L185.292 30.0847L191.141 30.1053L191.095 42.9131C191.081 47.0611 192.952 49.1538 196.71 49.167C198.563 49.1735 199.94 48.669 200.923 47.6536C201.879 46.6624 202.361 45.0874 202.369 42.9527L202.414 30.1449L208.209 30.1653L208.163 43.1672C208.151 46.5632 207.137 49.1794 205.119 51.0159C203.101 52.8281 200.293 53.74 196.668 53.7273C193.042 53.7145 190.24 52.7829 188.236 50.9565Z" fill="white"/>
</g>
<g filter="url(#filter1_d_1534_354)">
<path d="M50.6837 52.9495L35.5719 53.0686L35.5487 46.5038L35.7632 35.4567L35.7427 29.6773L50.6009 29.5604L50.6147 33.4583L39.4736 33.5461L39.4943 39.3935L48.7785 39.3204L48.7923 43.2186L39.5081 43.2917L39.5288 49.139L50.6698 49.0512L50.6837 52.9495Z" fill="#FF1717"/>
<path d="M91.7619 47.8271C92.855 47.2056 93.7118 46.3186 94.3322 45.2144C94.929 44.11 95.2417 42.8363 95.2467 41.4172C95.2518 39.9741 94.9479 38.7223 94.359 37.5897C93.7464 36.4811 92.8958 35.5882 91.8071 34.983C90.7422 34.3539 89.5339 34.0369 88.1822 34.0322C86.8543 34.0275 85.6438 34.336 84.5508 34.9575C83.4815 35.555 82.6247 36.442 82.0043 37.5462C81.3837 38.6745 81.0711 39.9242 81.066 41.3673C81.061 42.7864 81.3648 44.0623 81.9774 45.1709C82.5901 46.2795 83.4407 47.1724 84.5056 47.8016C85.5942 48.4308 86.8025 48.7477 88.1305 48.7524C89.4821 48.7571 90.6926 48.4487 91.7619 47.8271ZM81.7647 51.7125C79.8713 50.6716 78.406 49.2473 77.3453 47.4396C76.2845 45.6319 75.7463 43.5856 75.7541 41.3487C75.7621 39.0877 76.3147 37.0452 77.3882 35.245C78.4616 33.4448 79.9368 32.0309 81.8376 31.0033C83.7383 29.9757 85.8506 29.478 88.1982 29.4863C90.5696 29.4946 92.6783 30.0071 94.5481 31.048C96.4178 32.0888 97.9067 33.5132 98.9675 35.3209C100.052 37.1287 100.59 39.1751 100.582 41.436C100.574 43.6729 100.022 45.7154 98.9246 47.5155C97.8512 49.3157 96.3522 50.7296 94.4752 51.7573C92.5982 52.7849 90.4859 53.2826 88.1145 53.2743C85.7669 53.266 83.6582 52.7535 81.7647 51.7125Z" fill="white"/>
<path d="M174.616 48.1186C175.709 47.4971 176.566 46.6101 177.186 45.5059C177.783 44.4015 178.096 43.1278 178.101 41.7087C178.106 40.2656 177.802 39.0138 177.213 37.8812C176.6 36.7726 175.75 35.8797 174.661 35.2745C173.596 34.6454 172.388 34.3285 171.036 34.3237C169.708 34.319 168.498 34.6275 167.405 35.249C166.336 35.8465 165.479 36.7335 164.858 37.8377C164.238 38.966 163.925 40.2157 163.92 41.6589C163.915 43.078 164.219 44.3538 164.831 45.4624C165.444 46.571 166.295 47.464 167.36 48.0931C168.448 48.7223 169.656 49.0392 170.984 49.0439C172.336 49.0486 173.547 48.7402 174.616 48.1186ZM164.619 52.0041C162.725 50.9631 161.26 49.5388 160.199 47.7311C159.138 45.9234 158.6 43.8771 158.608 41.6402C158.616 39.3792 159.169 37.3367 160.242 35.5365C161.316 33.7363 162.791 32.3224 164.692 31.2948C166.592 30.2672 168.705 29.7695 171.052 29.7778C173.424 29.7861 175.532 30.2986 177.402 31.3395C179.272 32.3803 180.761 33.8047 181.822 35.6124C182.906 37.4202 183.444 39.4666 183.436 41.7275C183.428 43.9644 182.876 46.0069 181.779 47.8071C180.705 49.6072 179.206 51.0211 177.329 52.0488C175.452 53.0764 173.34 53.5741 170.969 53.5658C168.621 53.5575 166.512 53.045 164.619 52.0041Z" fill="white"/>
<path d="M31.4768 34.9236C30.4035 33.1319 28.8871 31.7608 26.9278 30.7607C24.9684 29.7605 22.7375 29.256 20.1858 29.247L9.51282 29.2095L9.49692 33.7289L19.9 33.7654C22.2554 33.7737 24.1177 34.4507 25.5116 35.7718C26.9055 37.0928 27.5861 38.9079 27.5782 41.1676C27.5702 43.4273 26.8769 45.2127 25.4738 46.5239C24.0706 47.8351 22.2036 48.499 19.8482 48.4907L9.44512 48.4541L9.42922 52.9735L20.1022 53.011C22.6539 53.02 24.8883 52.5312 26.8547 51.5448C28.8209 50.5833 30.347 49.1981 31.4329 47.414C32.5187 45.6299 33.0658 43.5459 33.0741 41.1869C33.0825 38.8031 32.5501 36.7153 31.4768 34.9236Z" fill="#FF1717"/>
<path d="M131.977 29.604L126.08 29.5833L126.038 41.4653L125.998 52.8487L131.895 52.8695L131.898 52.0385L131.901 51.2076L131.919 46.2222L131.939 40.4058L131.959 34.5895L131.968 32.0967L131.977 29.604Z" fill="white"/>
<path d="M62.5583 52.6619L66.9813 52.6773L77.812 29.5034L72.4294 29.4731L70.3854 34.5522L68.6785 38.7145L64.6874 46.8889L61.4938 38.6741L59.8573 34.493L57.8703 29.3912L52.3691 29.3603L62.5583 52.6619Z" fill="#FF1717"/>
<path d="M123.386 29.61L123.236 52.8753L119.55 52.8623L108.346 38.894L108.297 52.8227L103.332 52.8052L103.414 29.5398L107.582 29.5545L118.348 44.0198L118.399 29.5925L123.386 29.61Z" fill="white"/>
<path d="M153.126 29.7147L152.385 41.345L154.285 52.9845L152.074 52.9767L152.097 46.3295L152.115 41.344L152.13 36.8643L145.477 42.1516L138.861 36.8176L138.805 52.9301L134.382 52.9145L134.464 29.649L137.937 29.6613L145.498 36.3352L153.126 29.7147L152.385 41.345L154.285 52.9845L156.497 52.9923L156.535 42.1905L156.579 29.7268L153.126 29.7147Z" fill="white"/>
<path d="M214.146 52.3058C212.464 51.8188 211.115 51.1646 210.098 50.3673L211.914 46.3809C212.884 47.1059 214.02 47.6872 215.37 48.1249C216.697 48.5625 218.047 48.8078 219.375 48.8125C220.869 48.8177 221.961 48.581 222.698 48.1507C223.411 47.6962 223.768 47.0961 223.771 46.3505C223.773 45.7973 223.561 45.3395 223.136 44.9772C222.71 44.6149 222.166 44.3244 221.526 44.1057C220.863 43.8869 219.963 43.6432 218.849 43.3747C217.119 42.9597 215.698 42.5458 214.609 42.109C213.519 41.6963 212.573 41.0195 211.794 40.1027C210.991 39.1859 210.616 37.9579 210.621 36.4185C210.626 35.0715 210.986 33.8702 211.701 32.7903C212.416 31.7104 213.486 30.8483 214.935 30.228C216.36 29.5836 218.116 29.2771 220.203 29.2844C221.649 29.2895 223.048 29.4628 224.446 29.8285C225.82 30.1701 227.028 30.6795 228.069 31.3566L226.418 35.3917C224.336 34.1817 222.251 33.573 220.14 33.5656C218.67 33.5605 217.602 33.7972 216.889 34.2758C216.176 34.7543 215.842 35.3785 215.839 36.1723C215.836 36.966 216.237 37.5447 217.042 37.9324C217.847 38.32 219.079 38.7092 220.738 39.0758C222.467 39.4908 223.888 39.9288 224.978 40.3415C226.091 40.7543 227.013 41.431 227.817 42.3238C228.596 43.2165 228.995 44.4446 228.989 45.984C228.985 47.2828 228.601 48.4841 227.886 49.564C227.147 50.6438 226.053 51.5058 224.628 52.1262C223.156 52.7704 221.4 53.0769 219.337 53.0697C217.534 53.0634 215.804 52.8167 214.146 52.3058Z" fill="white"/>
<path d="M153.201 65L155.862 57.8516H157.18L159.856 65H158.508L156.667 59.834C156.625 59.7168 156.588 59.6045 156.555 59.4971C156.526 59.3896 156.498 59.279 156.472 59.165H156.423C156.401 59.279 156.373 59.3896 156.34 59.4971C156.311 59.6045 156.275 59.7168 156.233 59.834L154.387 65H153.201ZM154.47 63.2959L154.812 62.334L158.162 62.3389L158.503 63.3008L154.47 63.2959ZM160.483 65V57.8906H161.86L164.785 62.6025C164.844 62.7035 164.899 62.8109 164.951 62.9248C165.006 63.0355 165.054 63.1364 165.093 63.2275H165.137C165.13 63.1234 165.123 62.9964 165.117 62.8467C165.114 62.6969 165.112 62.57 165.112 62.4658V57.8906H166.235V65H164.853L161.919 60.2881C161.857 60.1904 161.802 60.0928 161.753 59.9951C161.704 59.8975 161.662 59.8031 161.626 59.7119H161.582C161.588 59.8161 161.593 59.9284 161.596 60.0488C161.603 60.1693 161.606 60.2816 161.606 60.3857V65H160.483ZM167.434 61.6553V61.2354C167.434 60.1286 167.735 59.2708 168.337 58.6621C168.942 58.0501 169.72 57.7441 170.671 57.7441C171.622 57.7441 172.4 58.0501 173.005 58.6621C173.61 59.2708 173.913 60.1286 173.913 61.2354V61.6553C173.913 62.762 173.61 63.6214 173.005 64.2334C172.4 64.8421 171.622 65.1465 170.671 65.1465C169.72 65.1465 168.942 64.8421 168.337 64.2334C167.735 63.6214 167.434 62.762 167.434 61.6553ZM168.728 61.6846C168.728 62.4626 168.903 63.068 169.255 63.501C169.61 63.9339 170.082 64.1504 170.671 64.1504C171.263 64.1504 171.737 63.9339 172.092 63.501C172.447 63.068 172.624 62.4626 172.624 61.6846V61.2061C172.624 60.4281 172.447 59.8242 172.092 59.3945C171.737 58.9616 171.263 58.7451 170.671 58.7451C170.082 58.7451 169.61 58.9616 169.255 59.3945C168.903 59.8242 168.728 60.4281 168.728 61.2061V61.6846ZM175.117 65V57.8906H176.494L179.418 62.6025C179.477 62.7035 179.532 62.8109 179.584 62.9248C179.64 63.0355 179.687 63.1364 179.726 63.2275H179.77C179.763 63.1234 179.757 62.9964 179.75 62.8467C179.747 62.6969 179.746 62.57 179.746 62.4658V57.8906H180.869V65H179.487L176.552 60.2881C176.49 60.1904 176.435 60.0928 176.386 59.9951C176.337 59.8975 176.295 59.8031 176.259 59.7119H176.215C176.222 59.8161 176.227 59.9284 176.23 60.0488C176.236 60.1693 176.24 60.2816 176.24 60.3857V65H175.117ZM184.02 65V62.4463L181.53 57.8906H182.956L184.43 60.7031C184.482 60.8008 184.53 60.8968 184.572 60.9912C184.618 61.0856 184.658 61.18 184.694 61.2744H184.738C184.774 61.18 184.813 61.0856 184.855 60.9912C184.897 60.8968 184.945 60.8008 184.997 60.7031L186.491 57.8906H187.751L185.285 62.417V65H184.02ZM188.441 65V57.8906H190.092L191.938 62.749C191.977 62.8532 192.014 62.959 192.05 63.0664C192.089 63.1706 192.123 63.2764 192.152 63.3838H192.191C192.217 63.2764 192.248 63.1706 192.284 63.0664C192.32 62.959 192.357 62.8532 192.396 62.749L194.208 57.8906H195.912V65H194.662V60.127C194.662 60.0228 194.664 59.9072 194.667 59.7803C194.674 59.6501 194.683 59.5329 194.696 59.4287H194.647C194.621 59.5329 194.589 59.6501 194.55 59.7803C194.511 59.9072 194.472 60.0228 194.433 60.127L192.611 65H191.562L189.711 60.1221C189.672 60.0179 189.634 59.9023 189.599 59.7754C189.563 59.6452 189.535 59.528 189.516 59.4238H189.467C189.477 59.528 189.485 59.6452 189.491 59.7754C189.501 59.9023 189.506 60.0179 189.506 60.1221V65H188.441ZM197.111 61.6553V61.2354C197.111 60.1286 197.412 59.2708 198.014 58.6621C198.619 58.0501 199.397 57.7441 200.348 57.7441C201.298 57.7441 202.076 58.0501 202.682 58.6621C203.287 59.2708 203.59 60.1286 203.59 61.2354V61.6553C203.59 62.762 203.287 63.6214 202.682 64.2334C202.076 64.8421 201.298 65.1465 200.348 65.1465C199.397 65.1465 198.619 64.8421 198.014 64.2334C197.412 63.6214 197.111 62.762 197.111 61.6553ZM198.405 61.6846C198.405 62.4626 198.58 63.068 198.932 63.501C199.287 63.9339 199.759 64.1504 200.348 64.1504C200.94 64.1504 201.414 63.9339 201.769 63.501C202.124 63.068 202.301 62.4626 202.301 61.6846V61.2061C202.301 60.4281 202.124 59.8242 201.769 59.3945C201.414 58.9616 200.94 58.7451 200.348 58.7451C199.759 58.7451 199.287 58.9616 198.932 59.3945C198.58 59.8242 198.405 60.4281 198.405 61.2061V61.6846ZM204.715 62.4902V57.8906H205.985V62.5098C205.985 63.0729 206.127 63.488 206.41 63.7549C206.693 64.0186 207.069 64.1504 207.538 64.1504C208.006 64.1504 208.382 64.0186 208.666 63.7549C208.952 63.488 209.095 63.0729 209.095 62.5098V57.8906H210.326V62.4902C210.326 63.3822 210.054 64.0479 209.51 64.4873C208.97 64.9268 208.308 65.1465 207.523 65.1465C206.735 65.1465 206.07 64.9268 205.526 64.4873C204.986 64.0479 204.715 63.3822 204.715 62.4902ZM211.329 63.0029V62.915H212.603V62.998C212.603 63.3822 212.74 63.6719 213.014 63.8672C213.287 64.0625 213.67 64.1602 214.161 64.1602C214.649 64.1602 215.024 64.0641 215.284 63.8721C215.545 63.68 215.675 63.4294 215.675 63.1201C215.678 62.8239 215.562 62.5928 215.328 62.4268C215.094 62.2607 214.576 62.0801 213.775 61.8848C212.962 61.6829 212.372 61.4242 212.008 61.1084C211.643 60.7894 211.461 60.3402 211.461 59.7607C211.461 59.1748 211.697 58.693 212.169 58.3154C212.641 57.9346 213.289 57.7441 214.112 57.7441C214.936 57.7441 215.59 57.946 216.075 58.3496C216.563 58.7533 216.808 59.2562 216.808 59.8584V59.9463H215.538V59.8633C215.538 59.5247 215.419 59.2529 215.182 59.0479C214.944 58.8395 214.587 58.7354 214.112 58.7354C213.643 58.7354 213.297 58.82 213.072 58.9893C212.848 59.1585 212.735 59.3766 212.735 59.6436C212.735 59.9365 212.846 60.1595 213.067 60.3125C213.289 60.4622 213.766 60.6283 214.498 60.8105C215.315 61.0124 215.927 61.2826 216.334 61.6211C216.744 61.9596 216.949 62.4398 216.949 63.0615C216.949 63.6865 216.697 64.1911 216.192 64.5752C215.691 64.9561 215.014 65.1465 214.161 65.1465C213.311 65.1465 212.626 64.9577 212.105 64.5801C211.588 64.1992 211.329 63.6735 211.329 63.0029ZM217.982 65V57.8906H219.251V64.0332H222.655V65H217.982ZM225.001 65V62.4463L222.51 57.8906H223.936L225.411 60.7031C225.463 60.8008 225.51 60.8968 225.552 60.9912C225.598 61.0856 225.639 61.18 225.674 61.2744H225.718C225.754 61.18 225.793 61.0856 225.835 60.9912C225.878 60.8968 225.925 60.8008 225.977 60.7031L227.471 57.8906H228.731L226.265 62.417V65H225.001Z" fill="#FF1717"/>
</g>
<g clip-path="url(#clip0_1534_354)">
<path d="M120.515 8.13799C120.678 8.1787 120.842 8.21931 121.005 8.25985C121.331 8.34067 121.656 8.4219 121.981 8.50354C122.606 8.66036 123.232 8.81424 123.858 8.96754C123.956 8.99187 124.054 9.01619 124.155 9.04125C124.245 9.06334 124.335 9.08544 124.427 9.1082C124.504 9.1271 124.58 9.14601 124.659 9.16548C125.648 9.3808 126.631 9.34279 127.604 9.09956C127.678 9.08164 127.752 9.06371 127.828 9.04524C128.799 8.80608 129.757 8.53565 130.715 8.26681C134.279 7.26875 134.279 7.26875 135.597 7.72078C136.449 8.10548 136.913 8.67764 137.204 9.38698C137.233 9.4559 137.263 9.52482 137.293 9.59583C137.396 9.83849 137.496 10.0818 137.596 10.3254C137.634 10.419 137.672 10.5125 137.712 10.609C138.007 11.3319 138.297 12.0564 138.585 12.7811C138.786 13.2863 138.987 13.7913 139.189 14.2964C139.241 14.4261 139.292 14.5558 139.344 14.6854C139.702 15.5821 140.063 16.4776 140.429 17.3723C140.575 17.7303 140.721 18.0885 140.867 18.4467C141.005 18.7857 141.144 19.1244 141.284 19.463C141.37 19.6726 141.455 19.8825 141.54 20.0924C141.598 20.2346 141.657 20.3765 141.716 20.5184C142.063 21.3796 142.063 21.3796 141.983 21.8542C141.708 22.1769 141.372 22.2386 140.898 22.3294C140.829 22.3428 140.76 22.3563 140.689 22.3702C140.458 22.4149 140.227 22.458 139.995 22.501C139.83 22.5325 139.665 22.564 139.5 22.5956C138.943 22.7016 138.386 22.8045 137.828 22.907C137.725 22.9259 137.622 22.9448 137.517 22.9643C133.224 23.754 133.224 23.754 131.171 24.0684C131.025 24.0908 131.025 24.0908 130.876 24.1137C130.59 24.1557 130.304 24.1942 130.017 24.2308C129.899 24.2461 129.78 24.2614 129.658 24.2772C128.55 24.4079 127.455 24.4441 126.336 24.4535C126.242 24.4543 126.149 24.4552 126.052 24.4561C124.43 24.468 122.875 24.3899 121.278 24.166C121.127 24.1452 120.976 24.1244 120.824 24.1037C118.608 23.7965 116.404 23.4367 114.203 23.0738C113.947 23.0316 113.691 22.9895 113.434 22.9476C113.074 22.8886 112.715 22.8287 112.355 22.7686C112.193 22.7423 112.193 22.7423 112.029 22.7154C111.515 22.6286 111.046 22.5434 110.59 22.3348C110.271 21.8577 110.559 21.2646 110.747 20.7845C110.775 20.7092 110.804 20.634 110.833 20.5565C110.928 20.3075 111.024 20.0588 111.12 19.8102C111.188 19.6333 111.255 19.4565 111.322 19.2796C111.501 18.8114 111.681 18.3434 111.861 17.8756C112.038 17.4149 112.214 16.9541 112.39 16.4932C112.599 15.9461 112.808 15.399 113.018 14.8521C113.371 13.9351 113.72 13.0176 114.064 12.0987C114.164 11.8314 114.264 11.5641 114.365 11.2967C114.428 11.128 114.491 10.9591 114.553 10.7902C114.64 10.5569 114.727 10.3238 114.815 10.0908C114.852 9.98973 114.852 9.98973 114.889 9.88667C115.205 9.05566 115.613 8.34971 116.624 7.89702C117.943 7.41545 119.227 7.81146 120.515 8.13799Z" fill="url(#paint0_linear_1534_354)"/>
<path d="M108.808 21.3821L108.817 21.3611C108.872 21.231 108.879 21.2068 108.879 21.1874C108.879 21.1764 108.876 21.1639 108.864 21.1318L108.685 21.1794L108.684 21.1795C106.344 21.7956 103.952 22.512 102.096 23.7683C101.683 24.0704 101.266 24.3859 100.943 24.7363C100.621 25.0858 100.405 25.4565 100.372 25.8671C100.362 26.2981 100.435 26.6526 100.6 26.9752C100.767 27.3003 101.032 27.6031 101.424 27.9221L101.599 28.0594L101.6 28.0606L101.6 28.0606L101.833 28.2489C104.683 30.2302 108.598 31.3011 112.738 31.8845C116.877 32.4679 121.224 32.5616 124.925 32.6007C128.791 32.6321 133.717 32.5565 138.416 31.9233C143.119 31.2896 147.573 30.0999 150.513 27.9191C150.514 27.9188 150.514 27.9185 150.515 27.9182L150.692 27.781L150.696 27.7783L150.696 27.7783C151.278 27.3553 151.786 26.8762 152.084 26.3267C152.28 25.7054 152.205 25.0871 151.823 24.5274C150.988 23.4498 149.644 22.6769 148.112 22.0856C146.659 21.5246 145.056 21.1333 143.594 20.7968C143.629 20.965 143.653 21.1336 143.665 21.3104L143.665 21.3187L143.665 21.3187L143.667 21.579C143.667 21.5791 143.667 21.5793 143.667 21.5794L143.667 21.5799L143.517 21.581C143.522 21.9544 143.49 22.1925 143.253 22.5256L108.808 21.3821ZM108.808 21.3821L108.806 21.4049M108.808 21.3821L108.806 21.4049M108.806 21.4049C108.746 22.0058 108.719 22.6156 109.274 23.1541L109.273 23.1544M108.806 21.4049L109.273 23.1544M109.273 23.1544L109.281 23.1608M109.273 23.1544L109.281 23.1608M109.281 23.1608C109.726 23.5389 110.304 23.7422 110.903 23.8758C111.302 23.9647 111.725 24.0252 112.132 24.0834C112.332 24.1121 112.529 24.1403 112.717 24.171L113.23 24.2554L113.23 24.2554M109.281 23.1608L113.23 24.2554M113.23 24.2554C113.589 24.3144 113.948 24.3731 114.307 24.4317L113.23 24.2554Z" fill="#990E0E" stroke="black" stroke-width="0.3"/>
</g>
<path d="M8.87532 26V18.8906H11.2337C12.2168 18.8906 13.0371 19.1917 13.6947 19.7939C14.3522 20.3929 14.681 21.2067 14.681 22.2354V22.6553C14.681 23.6807 14.3522 24.4945 13.6947 25.0967C13.0371 25.6989 12.2168 26 11.2337 26H8.87532ZM10.14 25.0381H11.2288C11.8831 25.0381 12.4056 24.8298 12.7962 24.4131C13.1901 23.9964 13.387 23.4121 13.387 22.6602V22.2305C13.387 21.4785 13.1901 20.8942 12.7962 20.4775C12.4056 20.0609 11.8831 19.8525 11.2288 19.8525H10.14V25.0381ZM15.8795 26V18.8906H20.7282V19.8574H17.1442V21.8496H20.2692V22.8164H17.1442V25.0332H20.7819V26H15.8795ZM20.8769 18.8906H22.2392L24.0361 23.9248C24.0784 24.0355 24.1142 24.1429 24.1435 24.2471C24.1728 24.348 24.2005 24.4554 24.2265 24.5693H24.2704C24.2965 24.4554 24.3242 24.348 24.3535 24.2471C24.386 24.1429 24.4218 24.0355 24.4609 23.9248L26.2822 18.8906H27.4833L24.832 26.0342H23.5331L20.8769 18.8906ZM28.0618 26V18.8906H32.9104V19.8574H29.3264V21.8496H32.4514V22.8164H29.3264V25.0332H32.9641V26H28.0618ZM33.9527 26V18.8906H35.2222V25.0332H38.6255V26H33.9527ZM39.0965 22.6553V22.2354C39.0965 21.1286 39.3976 20.2708 39.9999 19.6621C40.6053 19.0501 41.3833 18.7441 42.3338 18.7441C43.2844 18.7441 44.0624 19.0501 44.6678 19.6621C45.2733 20.2708 45.576 21.1286 45.576 22.2354V22.6553C45.576 23.762 45.2733 24.6214 44.6678 25.2334C44.0624 25.8421 43.2844 26.1465 42.3338 26.1465C41.3833 26.1465 40.6053 25.8421 39.9999 25.2334C39.3976 24.6214 39.0965 23.762 39.0965 22.6553ZM40.3905 22.6846C40.3905 23.4626 40.5663 24.068 40.9178 24.501C41.2726 24.9339 41.7446 25.1504 42.3338 25.1504C42.9263 25.1504 43.3999 24.9339 43.7547 24.501C44.1096 24.068 44.287 23.4626 44.287 22.6846V22.2061C44.287 21.4281 44.1096 20.8242 43.7547 20.3945C43.3999 19.9616 42.9263 19.7451 42.3338 19.7451C41.7446 19.7451 41.2726 19.9616 40.9178 20.3945C40.5663 20.8242 40.3905 21.4281 40.3905 22.2061V22.6846ZM46.7794 26V18.8906H49.4015C50.2576 18.8906 50.9152 19.0924 51.3742 19.4961C51.8332 19.8965 52.0626 20.4401 52.0626 21.127C52.0626 21.8138 51.8332 22.3623 51.3742 22.7725C50.9152 23.1794 50.2576 23.3828 49.4015 23.3828H48.049V26H46.7794ZM48.049 22.4209H49.3722C49.8996 22.4209 50.269 22.2988 50.4806 22.0547C50.6922 21.8073 50.798 21.498 50.798 21.127C50.798 20.7591 50.6922 20.4548 50.4806 20.2139C50.269 19.973 49.8996 19.8525 49.3722 19.8525H48.049V22.4209ZM52.9926 26V18.8906H54.643L56.4887 23.749C56.5278 23.8532 56.5652 23.959 56.601 24.0664C56.6401 24.1706 56.6743 24.2764 56.7036 24.3838H56.7426C56.7687 24.2764 56.7996 24.1706 56.8354 24.0664C56.8712 23.959 56.9086 23.8532 56.9477 23.749L58.7592 18.8906H60.4633V26H59.2133V21.127C59.2133 21.0228 59.215 20.9072 59.2182 20.7803C59.2247 20.6501 59.2345 20.5329 59.2475 20.4287H59.1987C59.1726 20.5329 59.1401 20.6501 59.101 20.7803C59.062 20.9072 59.0229 21.0228 58.9838 21.127L57.1626 26H56.1128L54.2622 21.1221C54.2231 21.0179 54.1857 20.9023 54.1499 20.7754C54.1141 20.6452 54.0864 20.528 54.0669 20.4238H54.018C54.0278 20.528 54.0359 20.6452 54.0424 20.7754C54.0522 20.9023 54.0571 21.0179 54.0571 21.1221V26H52.9926ZM61.9304 26V18.8906H66.7791V19.8574H63.1951V21.8496H66.3201V22.8164H63.1951V25.0332H66.8328V26H61.9304ZM67.8214 26V18.8906H69.1983L72.1231 23.6025C72.1817 23.7035 72.237 23.8109 72.2891 23.9248C72.3445 24.0355 72.3917 24.1364 72.4307 24.2275H72.4747C72.4682 24.1234 72.4616 23.9964 72.4551 23.8467C72.4519 23.6969 72.4503 23.57 72.4503 23.4658V18.8906H73.5733V26H72.1915L69.2569 21.2881C69.195 21.1904 69.1397 21.0928 69.0909 20.9951C69.0421 20.8975 68.9997 20.8031 68.9639 20.7119H68.92C68.9265 20.8161 68.9314 20.9284 68.9346 21.0488C68.9411 21.1693 68.9444 21.2816 68.9444 21.3857V26H67.8214ZM74.3177 19.8574V18.8906H80.1722V19.8574H77.8773V26H76.6127V19.8574H74.3177Z" fill="white"/>
<defs>
<filter id="filter0_d_1534_354" x="181.246" y="30.0847" width="30.9628" height="31.6427" filterUnits="userSpaceOnUse" color-interpolation-filters="sRGB">
<feFlood flood-opacity="0" result="BackgroundImageFix"/>
<feColorMatrix in="SourceAlpha" type="matrix" values="0 0 0 0 0 0 0 0 0 0 0 0 0 0 0 0 0 0 127 0" result="hardAlpha"/>
<feOffset dy="4"/>
<feGaussianBlur stdDeviation="2"/>
<feComposite in2="hardAlpha" operator="out"/>
<feColorMatrix type="matrix" values="0 0 0 0 0 0 0 0 0 0 0 0 0 0 0 0 0 0 0.25 0"/>
<feBlend mode="normal" in2="BackgroundImageFix" result="effect1_dropShadow_1534_354"/>
<feBlend mode="normal" in="SourceGraphic" in2="effect1_dropShadow_1534_354" result="shape"/>
</filter>
<filter id="filter1_d_1534_354" x="4.00049" y="29.2095" width="228.989" height="46.0397" filterUnits="userSpaceOnUse" color-interpolation-filters="sRGB">
<feFlood flood-opacity="0" result="BackgroundImageFix"/>
<feColorMatrix in="SourceAlpha" type="matrix" values="0 0 0 0 0 0 0 0 0 0 0 0 0 0 0 0 0 0 127 0" result="hardAlpha"/>
<feOffset dy="4"/>
<feGaussianBlur stdDeviation="2"/>
<feComposite in2="hardAlpha" operator="out"/>
<feColorMatrix type="matrix" values="0 0 0 0 0 0 0 0 0 0 0 0 0 0 0 0 0 0 0.25 0"/>
<feBlend mode="normal" in2="BackgroundImageFix" result="effect1_dropShadow_1534_354"/>
<feBlend mode="normal" in="SourceGraphic" in2="effect1_dropShadow_1534_354" result="shape"/>
</filter>
<linearGradient id="paint0_linear_1534_354" x1="126.09" y1="7.51548" x2="126.266" y2="24.4543" gradientUnits="userSpaceOnUse">
<stop stop-color="#FF1717"/>
<stop offset="1" stop-color="#990E0E"/>
</linearGradient>
<clipPath id="clip0_1534_354">
<rect width="52.0217" height="39.7697" fill="white" transform="translate(100 0.53894) rotate(-0.593626)"/>
</clipPath>
</defs>
</svg>
