<svg width="158" height="25" viewBox="0 0 158 25" fill="none" xmlns="http://www.w3.org/2000/svg">
<path d="M30.8747 15.3436L19.9317 15.452L19.8982 11.3222L20.0253 4.37201L19.9957 0.73629L30.7551 0.629831L30.7751 3.08195L22.7074 3.16184L22.7373 6.84041L29.4603 6.77383L29.4802 9.22615L22.7572 9.29273L22.7871 12.9712L30.8547 12.8913L30.8747 15.3436Z" fill="#FF1717"/>
<path d="M60.6087 12.0302C61.3986 11.6368 62.0168 11.077 62.4633 10.3809C62.8926 9.68486 63.1158 8.88288 63.1158 7.99012C63.1158 7.08223 62.8926 6.29539 62.4633 5.5842C62.0168 4.88815 61.3986 4.32828 60.6087 3.95C59.8359 3.55658 58.9601 3.35986 57.9813 3.35986C57.0196 3.35986 56.1438 3.55658 55.3538 3.95C54.5811 4.32828 53.9629 4.88815 53.5164 5.5842C53.0699 6.29539 52.8467 7.08223 52.8467 7.99012C52.8467 8.88288 53.0699 9.68486 53.5164 10.3809C53.9629 11.077 54.5811 11.6368 55.3538 12.0302C56.1438 12.4237 57.0196 12.6204 57.9813 12.6204C58.9601 12.6204 59.8359 12.4237 60.6087 12.0302ZM53.379 14.4967C52.0052 13.846 50.9405 12.9533 50.1677 11.8184C49.395 10.6835 49 9.39736 49 7.99012C49 6.56776 49.395 5.28157 50.1677 4.14671C50.9405 3.01184 52.0052 2.11908 53.379 1.46842C54.7528 0.817763 56.2812 0.5 57.9813 0.5C59.6985 0.5 61.2269 0.817763 62.5835 1.46842C63.9401 2.11908 65.022 3.01184 65.7948 4.14671C66.5847 5.28157 66.9797 6.56776 66.9797 7.99012C66.9797 9.39736 66.5847 10.6835 65.7948 11.8184C65.022 12.9533 63.9401 13.846 62.5835 14.4967C61.2269 15.1473 59.6985 15.4651 57.9813 15.4651C56.2812 15.4651 54.7528 15.1473 53.379 14.4967Z" fill="white"/>
<path d="M120.609 12.0302C121.399 11.6368 122.017 11.077 122.463 10.3809C122.893 9.68486 123.116 8.88288 123.116 7.99012C123.116 7.08223 122.893 6.29539 122.463 5.5842C122.017 4.88815 121.399 4.32828 120.609 3.95C119.836 3.55658 118.96 3.35986 117.981 3.35986C117.02 3.35986 116.144 3.55658 115.354 3.95C114.581 4.32828 113.963 4.88815 113.516 5.5842C113.07 6.29539 112.847 7.08223 112.847 7.99012C112.847 8.88288 113.07 9.68486 113.516 10.3809C113.963 11.077 114.581 11.6368 115.354 12.0302C116.144 12.4237 117.02 12.6204 117.981 12.6204C118.96 12.6204 119.836 12.4237 120.609 12.0302ZM113.379 14.4967C112.005 13.846 110.94 12.9533 110.168 11.8184C109.395 10.6835 109 9.39736 109 7.99012C109 6.56776 109.395 5.28157 110.168 4.14671C110.94 3.01184 112.005 2.11908 113.379 1.46842C114.753 0.817763 116.281 0.5 117.981 0.5C119.699 0.5 121.227 0.817763 122.583 1.46842C123.94 2.11908 125.022 3.01184 125.795 4.14671C126.585 5.28157 126.98 6.56776 126.98 7.99012C126.98 9.39736 126.585 10.6835 125.795 11.8184C125.022 12.9533 123.94 13.846 122.583 14.4967C121.227 15.1474 119.699 15.4651 117.981 15.4651C116.281 15.4651 114.753 15.1474 113.379 14.4967Z" fill="white"/>
<path d="M16.9199 4.04613C16.1381 2.92137 15.0365 2.06217 13.6151 1.4373C12.1937 0.812435 10.5768 0.5 8.72898 0.5H1V3.34316H8.53353C10.2392 3.34316 11.5896 3.76494 12.6024 4.59289C13.6151 5.42085 14.1126 6.56123 14.1126 7.98281C14.1126 9.40439 13.6151 10.5292 12.6024 11.3571C11.5896 12.1851 10.2392 12.6068 8.53353 12.6068H1V15.45H8.72898C10.5768 15.45 12.1937 15.1376 13.6151 14.5127C15.0365 13.9034 16.1381 13.0286 16.9199 11.9039C17.7017 10.7791 18.0926 9.46688 18.0926 7.98281C18.0926 6.48312 17.7017 5.1709 16.9199 4.04613Z" fill="#FF1717"/>
<path d="M129.958 13.5131C128.653 12.3631 128 10.7289 128 8.61051V0.5H131.795V8.48946C131.795 11.077 133.014 12.3783 135.453 12.3783C136.655 12.3783 137.548 12.0605 138.183 11.425C138.802 10.8046 139.111 9.82104 139.111 8.48946V0.5H142.871V8.61051C142.871 10.7289 142.219 12.3631 140.914 13.5131C139.609 14.648 137.788 15.223 135.436 15.223C133.083 15.223 131.263 14.648 129.958 13.5131Z" fill="white"/>
<path d="M89.6843 0.477248H85.4136V7.95225V15.1136H89.6843V14.5909V14.0681V10.9318V7.27268V3.61359V2.04541V0.477248Z" fill="white"/>
<path d="M39.4728 15.1365L42.6759 15.1363L50.4599 0.533768L46.562 0.526634L45.0947 3.72643L43.8693 6.34866L40.9999 11.5L38.6663 6.33914L37.4706 3.71248L36.0187 0.507339L32.0349 0.500048L39.4728 15.1365Z" fill="#FF1717"/>
<path d="M83.463 0.5L83.4135 15.1364H80.7444L72.5951 6.37377V15.1364H69V0.5H72.0179L79.8513 9.57623V0.5H83.463Z" fill="white"/>
<path d="M105 0.5L104.493 7.81818L105.899 15.1364H104.297V10.9545V7.81818V5L99.4925 8.34091L94.688 5V15.1364H91.485V0.5H94L99.4925 4.68182L105 0.5L104.493 7.81818L105.899 15.1364H107.5V8.34091V0.5H105Z" fill="white"/>
<path d="M146.937 14.996C145.717 14.6934 144.738 14.2849 144 13.7855L145.305 11.2737C146.009 11.7276 146.833 12.0908 147.812 12.3631C148.774 12.6355 149.753 12.7868 150.714 12.7868C151.796 12.7868 152.586 12.6355 153.119 12.3631C153.634 12.0756 153.891 11.6974 153.891 11.2283C153.891 10.8803 153.737 10.5928 153.428 10.3658C153.119 10.1388 152.724 9.95723 152.26 9.82104C151.779 9.68486 151.127 9.53354 150.319 9.36709C149.066 9.10986 148.036 8.85262 147.246 8.58025C146.456 8.32302 145.769 7.89933 145.202 7.32433C144.618 6.74933 144.343 5.97762 144.343 5.0092C144.343 4.16184 144.601 3.40526 145.116 2.72434C145.631 2.04342 146.404 1.49868 147.452 1.10526C148.482 0.69671 149.753 0.5 151.264 0.5C152.312 0.5 153.325 0.605921 154.338 0.832894C155.334 1.04474 156.21 1.3625 156.965 1.78618L155.78 4.32828C154.269 3.57171 152.758 3.19342 151.23 3.19342C150.165 3.19342 149.392 3.34473 148.877 3.64736C148.362 3.95 148.121 4.34342 148.121 4.84276C148.121 5.3421 148.413 5.70526 148.997 5.94736C149.581 6.18947 150.474 6.43157 151.676 6.65855C152.93 6.91578 153.96 7.18815 154.75 7.44539C155.557 7.70262 156.227 8.12631 156.811 8.68617C157.377 9.24604 157.669 10.0178 157.669 10.9862C157.669 11.8033 157.395 12.5599 156.879 13.2408C156.347 13.9217 155.557 14.4664 154.527 14.8599C153.462 15.2684 152.191 15.4651 150.697 15.4651C149.392 15.4651 148.139 15.3138 146.937 14.996Z" fill="white"/>
<path d="M35.3434 24V19.7344H36.6559C37.236 19.7344 37.7165 19.917 38.0973 20.2822C38.4801 20.6475 38.6715 21.1406 38.6715 21.7617V21.9727C38.6715 22.5938 38.4801 23.0869 38.0973 23.4521C37.7165 23.8174 37.236 24 36.6559 24H35.3434ZM35.8503 23.5664H36.6559C37.1149 23.5664 37.4801 23.4277 37.7516 23.1504C38.0231 22.8711 38.1588 22.4785 38.1588 21.9727V21.7617C38.1588 21.2559 38.0231 20.8643 37.7516 20.5869C37.4801 20.3076 37.1149 20.168 36.6559 20.168H35.8503V23.5664ZM39.3496 24V19.7344H42.1386V20.168H39.8564V21.583H41.8486V22.0166H39.8564V23.5664H42.1709V24H39.3496ZM42.219 19.7344H42.7581L43.9944 22.9658C44.0237 23.042 44.052 23.1182 44.0794 23.1943C44.1067 23.2705 44.1321 23.3467 44.1555 23.4229H44.1848C44.2083 23.3467 44.2337 23.2705 44.261 23.1943C44.2883 23.1182 44.3167 23.042 44.346 22.9658L45.5852 19.7344H46.095L44.4192 24.0264H43.8948L42.219 19.7344ZM46.442 24V19.7344H49.231V20.168H46.9488V21.583H48.941V22.0166H46.9488V23.5664H49.2633V24H46.442ZM49.8094 24V19.7344H50.3163V23.5664H52.5048V24H49.8094ZM52.758 21.9727V21.7617C52.758 21.0957 52.9347 20.5771 53.2883 20.2061C53.6418 19.833 54.0969 19.6465 54.6535 19.6465C55.2082 19.6465 55.6623 19.833 56.0158 20.2061C56.3693 20.5771 56.5461 21.0957 56.5461 21.7617V21.9727C56.5461 22.6387 56.3693 23.1582 56.0158 23.5312C55.6623 23.9023 55.2082 24.0879 54.6535 24.0879C54.0988 24.0879 53.6437 23.9023 53.2883 23.5312C52.9347 23.1582 52.758 22.6387 52.758 21.9727ZM53.2707 21.9727C53.2707 22.5 53.3976 22.9102 53.6515 23.2031C53.9054 23.4941 54.2394 23.6396 54.6535 23.6396C55.0676 23.6396 55.4015 23.4941 55.6554 23.2031C55.9094 22.9102 56.0363 22.5 56.0363 21.9727V21.7617C56.0363 21.2344 55.9094 20.8252 55.6554 20.5342C55.4015 20.2412 55.0676 20.0947 54.6535 20.0947C54.2375 20.0947 53.9025 20.2412 53.6486 20.5342C53.3967 20.8252 53.2707 21.2344 53.2707 21.7617V21.9727ZM57.23 24V19.7344H58.7007C59.1968 19.7344 59.5747 19.8535 59.8345 20.0918C60.0942 20.3281 60.2241 20.6406 60.2241 21.0293C60.2241 21.418 60.0942 21.7334 59.8345 21.9756C59.5747 22.2158 59.1968 22.3359 58.7007 22.3359H57.7368V24H57.23ZM57.7368 21.9023H58.7007C59.0776 21.9023 59.3413 21.8184 59.4917 21.6504C59.6421 21.4824 59.7173 21.2764 59.7173 21.0322C59.7173 20.7861 59.6421 20.5811 59.4917 20.417C59.3413 20.251 59.0776 20.168 58.7007 20.168H57.7368V21.9023ZM60.7146 24V19.7344H61.3826L62.7801 22.9658C62.8055 23.0244 62.8328 23.0928 62.8621 23.1709C62.8933 23.249 62.9168 23.3164 62.9324 23.373H62.9588C62.9764 23.3145 62.9988 23.2471 63.0262 23.1709C63.0555 23.0928 63.0828 23.0244 63.1082 22.9658L64.491 19.7344H65.1883V24H64.6931V20.7568C64.6931 20.6982 64.6941 20.6328 64.6961 20.5605C64.7 20.4863 64.7058 20.4199 64.7137 20.3613H64.6844C64.6668 20.4199 64.6443 20.4863 64.617 20.5605C64.5916 20.6328 64.5662 20.6982 64.5408 20.7568L63.1639 24H62.7127L61.3152 20.7568C61.2898 20.6982 61.2644 20.6328 61.239 20.5605C61.2137 20.4863 61.1961 20.4199 61.1863 20.3613H61.1512C61.157 20.4199 61.1629 20.4863 61.1687 20.5605C61.1765 20.6328 61.1805 20.6982 61.1805 20.7568V24H60.7146ZM66.0333 24V19.7344H68.8223V20.168H66.5401V21.583H68.5323V22.0166H66.5401V23.5664H68.8546V24H66.0333ZM69.4008 24V19.7344H69.9633L72.1225 22.9424C72.1693 23.0127 72.2103 23.0811 72.2455 23.1475C72.2807 23.2139 72.308 23.2715 72.3275 23.3203H72.3598C72.3539 23.2617 72.348 23.1846 72.3422 23.0889C72.3383 22.9932 72.3363 22.916 72.3363 22.8574V19.7344H72.8197V24H72.2631L70.0775 20.7598C70.0365 20.6992 70.0004 20.6426 69.9691 20.5898C69.9398 20.5371 69.9144 20.4863 69.893 20.4375H69.8637C69.8695 20.4961 69.8734 20.5596 69.8754 20.6279C69.8793 20.6963 69.8812 20.7598 69.8812 20.8184V24H69.4008ZM73.237 20.168V19.7344H76.7116V20.168H75.2263V24H74.7224V20.168H73.237Z" fill="white"/>
<path d="M77.8157 24L79.5237 19.708H80.0481L81.7562 24H81.2142L79.9456 20.7129C79.9124 20.6328 79.8831 20.5566 79.8577 20.4844C79.8323 20.4102 79.8089 20.3359 79.7874 20.2617H79.7552C79.7356 20.3359 79.7132 20.4102 79.6878 20.4844C79.6624 20.5566 79.6341 20.6328 79.6028 20.7129L78.3226 24H77.8157ZM78.513 22.8779L78.6771 22.4443L80.8773 22.4473L81.0442 22.8809L78.513 22.8779ZM82.1031 24V19.7344H82.6656L84.8248 22.9424C84.8717 23.0127 84.9127 23.0811 84.9479 23.1475C84.983 23.2139 85.0104 23.2715 85.0299 23.3203H85.0621C85.0563 23.2617 85.0504 23.1846 85.0445 23.0889C85.0406 22.9932 85.0387 22.916 85.0387 22.8574V19.7344H85.5221V24H84.9654L82.7799 20.7598C82.7389 20.6992 82.7027 20.6426 82.6715 20.5898C82.6422 20.5371 82.6168 20.4863 82.5953 20.4375H82.566C82.5719 20.4961 82.5758 20.5596 82.5777 20.6279C82.5816 20.6963 82.5836 20.7598 82.5836 20.8184V24H82.1031ZM86.206 21.9727V21.7617C86.206 21.0957 86.3827 20.5771 86.7362 20.2061C87.0898 19.833 87.5448 19.6465 88.1015 19.6465C88.6562 19.6465 89.1103 19.833 89.4638 20.2061C89.8173 20.5771 89.9941 21.0957 89.9941 21.7617V21.9727C89.9941 22.6387 89.8173 23.1582 89.4638 23.5312C89.1103 23.9023 88.6562 24.0879 88.1015 24.0879C87.5468 24.0879 87.0917 23.9023 86.7362 23.5312C86.3827 23.1582 86.206 22.6387 86.206 21.9727ZM86.7187 21.9727C86.7187 22.5 86.8456 22.9102 87.0995 23.2031C87.3534 23.4941 87.6874 23.6396 88.1015 23.6396C88.5155 23.6396 88.8495 23.4941 89.1034 23.2031C89.3573 22.9102 89.4843 22.5 89.4843 21.9727V21.7617C89.4843 21.2344 89.3573 20.8252 89.1034 20.5342C88.8495 20.2412 88.5155 20.0947 88.1015 20.0947C87.6855 20.0947 87.3505 20.2412 87.0966 20.5342C86.8446 20.8252 86.7187 21.2344 86.7187 21.7617V21.9727ZM90.6779 24V19.7344H91.2404L93.3996 22.9424C93.4465 23.0127 93.4875 23.0811 93.5227 23.1475C93.5578 23.2139 93.5852 23.2715 93.6047 23.3203H93.6369C93.6311 23.2617 93.6252 23.1846 93.6194 23.0889C93.6154 22.9932 93.6135 22.916 93.6135 22.8574V19.7344H94.0969V24H93.5403L91.3547 20.7598C91.3137 20.6992 91.2776 20.6426 91.2463 20.5898C91.217 20.5371 91.1916 20.4863 91.1701 20.4375H91.1408C91.1467 20.4961 91.1506 20.5596 91.1526 20.6279C91.1565 20.6963 91.1584 20.7598 91.1584 20.8184V24H90.6779ZM96.0816 24V22.3945L94.4878 19.7344H95.0737L96.1489 21.5684C96.1841 21.627 96.2173 21.6855 96.2486 21.7441C96.2798 21.8027 96.3081 21.8613 96.3335 21.9199H96.3628C96.3902 21.8613 96.4194 21.8027 96.4507 21.7441C96.4819 21.6855 96.5152 21.627 96.5503 21.5684L97.6255 19.7344H98.1821L96.5884 22.3945V24H96.0816ZM98.5731 24V19.7344H99.241L100.639 22.9658C100.664 23.0244 100.691 23.0928 100.721 23.1709C100.752 23.249 100.775 23.3164 100.791 23.373H100.817C100.835 23.3145 100.857 23.2471 100.885 23.1709C100.914 23.0928 100.941 23.0244 100.967 22.9658L102.349 19.7344H103.047V24H102.552V20.7568C102.552 20.6982 102.553 20.6328 102.555 20.5605C102.558 20.4863 102.564 20.4199 102.572 20.3613H102.543C102.525 20.4199 102.503 20.4863 102.475 20.5605C102.45 20.6328 102.425 20.6982 102.399 20.7568L101.022 24H100.571L99.1737 20.7568C99.1483 20.6982 99.1229 20.6328 99.0975 20.5605C99.0721 20.4863 99.0545 20.4199 99.0448 20.3613H99.0096C99.0155 20.4199 99.0213 20.4863 99.0272 20.5605C99.035 20.6328 99.0389 20.6982 99.0389 20.7568V24H98.5731ZM103.731 21.9727V21.7617C103.731 21.0957 103.907 20.5771 104.261 20.2061C104.614 19.833 105.069 19.6465 105.626 19.6465C106.181 19.6465 106.635 19.833 106.988 20.2061C107.342 20.5771 107.519 21.0957 107.519 21.7617V21.9727C107.519 22.6387 107.342 23.1582 106.988 23.5312C106.635 23.9023 106.181 24.0879 105.626 24.0879C105.071 24.0879 104.616 23.9023 104.261 23.5312C103.907 23.1582 103.731 22.6387 103.731 21.9727ZM104.243 21.9727C104.243 22.5 104.37 22.9102 104.624 23.2031C104.878 23.4941 105.212 23.6396 105.626 23.6396C106.04 23.6396 106.374 23.4941 106.628 23.2031C106.882 22.9102 107.009 22.5 107.009 21.9727V21.7617C107.009 21.2344 106.882 20.8252 106.628 20.5342C106.374 20.2412 106.04 20.0947 105.626 20.0947C105.21 20.0947 104.875 20.2412 104.621 20.5342C104.369 20.8252 104.243 21.2344 104.243 21.7617V21.9727ZM108.159 22.5293V19.7344H108.665V22.5293C108.665 22.9043 108.768 23.1836 108.973 23.3672C109.178 23.5488 109.445 23.6396 109.773 23.6396C110.101 23.6396 110.368 23.5488 110.573 23.3672C110.78 23.1836 110.883 22.9043 110.883 22.5293V19.7344H111.387V22.5293C111.387 23.0488 111.231 23.4385 110.918 23.6982C110.606 23.958 110.224 24.0879 109.773 24.0879C109.322 24.0879 108.94 23.958 108.627 23.6982C108.315 23.4385 108.159 23.0488 108.159 22.5293ZM111.957 22.8223V22.7871H112.464V22.8193C112.464 23.0889 112.561 23.2939 112.757 23.4346C112.954 23.5732 113.228 23.6426 113.58 23.6426C113.933 23.6426 114.204 23.5723 114.391 23.4316C114.579 23.2891 114.673 23.1074 114.673 22.8867C114.673 22.6895 114.592 22.5303 114.429 22.4092C114.269 22.2861 113.933 22.1621 113.422 22.0371C112.91 21.9102 112.553 21.7568 112.352 21.5771C112.151 21.3975 112.051 21.1436 112.051 20.8154C112.051 20.4814 112.182 20.2031 112.446 19.9805C112.712 19.7578 113.08 19.6465 113.551 19.6465C114.019 19.6465 114.391 19.7676 114.667 20.0098C114.944 20.252 115.083 20.5469 115.083 20.8945V20.9297H114.579V20.8945C114.579 20.6582 114.492 20.4658 114.318 20.3174C114.146 20.167 113.889 20.0918 113.548 20.0918C113.21 20.0918 112.96 20.1562 112.798 20.2852C112.635 20.4121 112.554 20.5703 112.554 20.7598C112.554 20.9629 112.634 21.124 112.792 21.2432C112.952 21.3623 113.257 21.4775 113.706 21.5889C114.223 21.7178 114.597 21.8789 114.828 22.0723C115.06 22.2637 115.176 22.5322 115.176 22.8779C115.176 23.2314 115.033 23.5215 114.746 23.748C114.459 23.9746 114.07 24.0879 113.58 24.0879C113.09 24.0879 112.696 23.9746 112.399 23.748C112.104 23.5215 111.957 23.2129 111.957 22.8223ZM115.758 24V19.7344H116.265V23.5664H118.453V24H115.758ZM120.007 24V22.3945L118.413 19.7344H118.999L120.075 21.5684C120.11 21.627 120.143 21.6855 120.174 21.7441C120.205 21.8027 120.234 21.8613 120.259 21.9199H120.288C120.316 21.8613 120.345 21.8027 120.376 21.7441C120.408 21.6855 120.441 21.627 120.476 21.5684L121.551 19.7344H122.108L120.514 22.3945V24H120.007Z" fill="#FF1717"/>
</svg>
