<svg width="158" height="24" viewBox="0 0 158 24" fill="none" xmlns="http://www.w3.org/2000/svg">
<path d="M30.8747 15.3436L19.9317 15.452L19.8982 11.3222L20.0253 4.37201L19.9957 0.73629L30.7551 0.629831L30.7751 3.08195L22.7074 3.16184L22.7373 6.84041L29.4603 6.77383L29.4802 9.22615L22.7572 9.29273L22.7871 12.9712L30.8547 12.8913L30.8747 15.3436Z" stroke="#FF1717" stroke-width="0.6"/>
<path d="M61.2674 12.3276C62.1022 11.907 62.7555 11.3084 63.2273 10.5642C63.681 9.82002 63.9169 8.96259 63.9169 8.00809C63.9169 7.03741 63.681 6.19616 63.2273 5.43579C62.7555 4.69161 62.1022 4.09302 61.2674 3.68857C60.4508 3.26795 59.5253 3.05763 58.4909 3.05763C57.4747 3.05763 56.5492 3.26795 55.7144 3.68857C54.8978 4.09302 54.2445 4.69161 53.7727 5.43579C53.3009 6.19616 53.0649 7.03741 53.0649 8.00809C53.0649 8.96259 53.3009 9.82002 53.7727 10.5642C54.2445 11.3084 54.8978 11.907 55.7144 12.3276C56.5492 12.7482 57.4747 12.9585 58.4909 12.9585C59.5253 12.9585 60.4508 12.7482 61.2674 12.3276ZM53.6275 14.9646C52.1757 14.269 51.0506 13.3145 50.234 12.1011C49.4174 10.8878 49 9.51264 49 8.00809C49 6.48736 49.4174 5.11223 50.234 3.89889C51.0506 2.68554 52.1757 1.73104 53.6275 1.03539C55.0793 0.339737 56.6944 0 58.4909 0C60.3056 0 61.9207 0.339737 63.3543 1.03539C64.788 1.73104 65.9312 2.68554 66.7479 3.89889C67.5826 5.11223 68 6.48736 68 8.00809C68 9.51264 67.5826 10.8878 66.7479 12.1011C65.9312 13.3145 64.788 14.269 63.3543 14.9646C61.9207 15.6603 60.3056 16 58.4909 16C56.6944 16 55.0793 15.6603 53.6275 14.9646Z" fill="#FF1717"/>
<path d="M120.267 12.3276C121.102 11.907 121.755 11.3084 122.227 10.5642C122.681 9.82002 122.917 8.96259 122.917 8.00809C122.917 7.03741 122.681 6.19616 122.227 5.43579C121.755 4.69161 121.102 4.09302 120.267 3.68857C119.451 3.26795 118.525 3.05763 117.491 3.05763C116.475 3.05763 115.549 3.26795 114.714 3.68857C113.898 4.09302 113.245 4.69161 112.773 5.43579C112.301 6.19616 112.065 7.03741 112.065 8.00809C112.065 8.96259 112.301 9.82002 112.773 10.5642C113.245 11.3084 113.898 11.907 114.714 12.3276C115.549 12.7482 116.475 12.9585 117.491 12.9585C118.525 12.9585 119.451 12.7482 120.267 12.3276ZM112.628 14.9646C111.176 14.269 110.051 13.3145 109.234 12.1011C108.417 10.8878 108 9.51264 108 8.00809C108 6.48736 108.417 5.11223 109.234 3.89889C110.051 2.68554 111.176 1.73104 112.628 1.03539C114.079 0.339737 115.694 0 117.491 0C119.306 0 120.921 0.339737 122.354 1.03539C123.788 1.73104 124.931 2.68554 125.748 3.89889C126.583 5.11223 127 6.48736 127 8.00809C127 9.51264 126.583 10.8878 125.748 12.1011C124.931 13.3145 123.788 14.269 122.354 14.9646C120.921 15.6603 119.306 16 117.491 16C115.694 16 114.079 15.6603 112.628 14.9646Z" fill="#FF1717"/>
<path d="M16.9199 4.04613C16.1381 2.92137 15.0365 2.06217 13.6151 1.4373C12.1937 0.812435 10.5768 0.5 8.72898 0.5H1V3.34316H8.53353C10.2392 3.34316 11.5896 3.76494 12.6024 4.59289C13.6151 5.42085 14.1126 6.56123 14.1126 7.98281C14.1126 9.40439 13.6151 10.5292 12.6024 11.3571C11.5896 12.1851 10.2392 12.6068 8.53353 12.6068H1V15.45H8.72898C10.5768 15.45 12.1937 15.1376 13.6151 14.5127C15.0365 13.9034 16.1381 13.0286 16.9199 11.9039C17.7017 10.7791 18.0926 9.46688 18.0926 7.98281C18.0926 6.48312 17.7017 5.1709 16.9199 4.04613Z" stroke="#FF1717" stroke-width="0.6"/>
<path d="M129.958 13.5131C128.653 12.3631 128 10.7289 128 8.61051V0.5H131.795V8.48946C131.795 11.077 133.014 12.3783 135.453 12.3783C136.655 12.3783 137.548 12.0605 138.183 11.425C138.802 10.8046 139.111 9.82104 139.111 8.48946V0.5H142.871V8.61051C142.871 10.7289 142.219 12.3631 140.914 13.5131C139.609 14.648 137.788 15.223 135.436 15.223C133.083 15.223 131.263 14.648 129.958 13.5131Z" fill="#FF1717"/>
<path d="M89.6843 0.477248H85.4136V7.95225V15.1136H89.6843V14.5909V14.0681V10.9318V7.27268V3.61359V2.04541V0.477248Z" fill="#FF1717"/>
<path d="M39.4728 15.1365L42.6759 15.1363L50.4599 0.533768L46.562 0.526634L45.0947 3.72643L43.8693 6.34866L40.9999 11.5L38.6663 6.33914L37.4706 3.71248L36.0187 0.507339L32.0349 0.500048L39.4728 15.1365Z" stroke="#FF1717" stroke-width="0.6"/>
<path d="M83.463 0.5L83.4135 15.1364H80.7444L72.5951 6.37377V15.1364H69V0.5H72.0179L79.8513 9.57623V0.5H83.463Z" fill="#FF1717"/>
<path d="M105 0.5L104.493 7.81818L105.899 15.1364H104.297V10.9545V7.81818V5L99.4925 8.34091L94.688 5V15.1364H91.485V0.5H94L99.4925 4.68182L105 0.5L104.493 7.81818L105.899 15.1364H107.5V8.34091V0.5H105Z" fill="#FF1717"/>
<path d="M146.937 14.996C145.717 14.6934 144.738 14.2849 144 13.7855L145.305 11.2737C146.009 11.7276 146.833 12.0908 147.812 12.3631C148.774 12.6355 149.753 12.7868 150.714 12.7868C151.796 12.7868 152.586 12.6355 153.119 12.3631C153.634 12.0756 153.891 11.6974 153.891 11.2283C153.891 10.8803 153.737 10.5928 153.428 10.3658C153.119 10.1388 152.724 9.95723 152.26 9.82104C151.779 9.68486 151.127 9.53354 150.319 9.36709C149.066 9.10986 148.036 8.85262 147.246 8.58025C146.456 8.32302 145.769 7.89933 145.202 7.32433C144.618 6.74933 144.343 5.97762 144.343 5.0092C144.343 4.16184 144.601 3.40526 145.116 2.72434C145.631 2.04342 146.404 1.49868 147.452 1.10526C148.482 0.69671 149.753 0.5 151.264 0.5C152.312 0.5 153.325 0.605921 154.338 0.832894C155.334 1.04474 156.21 1.3625 156.965 1.78618L155.78 4.32828C154.269 3.57171 152.758 3.19342 151.23 3.19342C150.165 3.19342 149.392 3.34473 148.877 3.64736C148.362 3.95 148.121 4.34342 148.121 4.84276C148.121 5.3421 148.413 5.70526 148.997 5.94736C149.581 6.18947 150.474 6.43157 151.676 6.65855C152.93 6.91578 153.96 7.18815 154.75 7.44539C155.557 7.70262 156.227 8.12631 156.811 8.68617C157.377 9.24604 157.669 10.0178 157.669 10.9862C157.669 11.8033 157.395 12.5599 156.879 13.2408C156.347 13.9217 155.557 14.4664 154.527 14.8599C153.462 15.2684 152.191 15.4651 150.697 15.4651C149.392 15.4651 148.139 15.3138 146.937 14.996Z" fill="#FF1717"/>
<path d="M35.3434 23.5V19.2344H36.6559C37.236 19.2344 37.7165 19.417 38.0973 19.7822C38.4801 20.1475 38.6715 20.6406 38.6715 21.2617V21.4727C38.6715 22.0938 38.4801 22.5869 38.0973 22.9521C37.7165 23.3174 37.236 23.5 36.6559 23.5H35.3434ZM35.8503 23.0664H36.6559C37.1149 23.0664 37.4801 22.9277 37.7516 22.6504C38.0231 22.3711 38.1588 21.9785 38.1588 21.4727V21.2617C38.1588 20.7559 38.0231 20.3643 37.7516 20.0869C37.4801 19.8076 37.1149 19.668 36.6559 19.668H35.8503V23.0664ZM39.3496 23.5V19.2344H42.1386V19.668H39.8564V21.083H41.8486V21.5166H39.8564V23.0664H42.1709V23.5H39.3496ZM42.219 19.2344H42.7581L43.9944 22.4658C44.0237 22.542 44.052 22.6182 44.0794 22.6943C44.1067 22.7705 44.1321 22.8467 44.1555 22.9229H44.1848C44.2083 22.8467 44.2337 22.7705 44.261 22.6943C44.2883 22.6182 44.3167 22.542 44.346 22.4658L45.5852 19.2344H46.095L44.4192 23.5264H43.8948L42.219 19.2344ZM46.442 23.5V19.2344H49.231V19.668H46.9488V21.083H48.941V21.5166H46.9488V23.0664H49.2633V23.5H46.442ZM49.8094 23.5V19.2344H50.3163V23.0664H52.5048V23.5H49.8094ZM52.758 21.4727V21.2617C52.758 20.5957 52.9347 20.0771 53.2883 19.7061C53.6418 19.333 54.0969 19.1465 54.6535 19.1465C55.2082 19.1465 55.6623 19.333 56.0158 19.7061C56.3693 20.0771 56.5461 20.5957 56.5461 21.2617V21.4727C56.5461 22.1387 56.3693 22.6582 56.0158 23.0312C55.6623 23.4023 55.2082 23.5879 54.6535 23.5879C54.0988 23.5879 53.6437 23.4023 53.2883 23.0312C52.9347 22.6582 52.758 22.1387 52.758 21.4727ZM53.2707 21.4727C53.2707 22 53.3976 22.4102 53.6515 22.7031C53.9054 22.9941 54.2394 23.1396 54.6535 23.1396C55.0676 23.1396 55.4015 22.9941 55.6554 22.7031C55.9094 22.4102 56.0363 22 56.0363 21.4727V21.2617C56.0363 20.7344 55.9094 20.3252 55.6554 20.0342C55.4015 19.7412 55.0676 19.5947 54.6535 19.5947C54.2375 19.5947 53.9025 19.7412 53.6486 20.0342C53.3967 20.3252 53.2707 20.7344 53.2707 21.2617V21.4727ZM57.23 23.5V19.2344H58.7007C59.1968 19.2344 59.5747 19.3535 59.8345 19.5918C60.0942 19.8281 60.2241 20.1406 60.2241 20.5293C60.2241 20.918 60.0942 21.2334 59.8345 21.4756C59.5747 21.7158 59.1968 21.8359 58.7007 21.8359H57.7368V23.5H57.23ZM57.7368 21.4023H58.7007C59.0776 21.4023 59.3413 21.3184 59.4917 21.1504C59.6421 20.9824 59.7173 20.7764 59.7173 20.5322C59.7173 20.2861 59.6421 20.0811 59.4917 19.917C59.3413 19.751 59.0776 19.668 58.7007 19.668H57.7368V21.4023ZM60.7146 23.5V19.2344H61.3826L62.7801 22.4658C62.8055 22.5244 62.8328 22.5928 62.8621 22.6709C62.8933 22.749 62.9168 22.8164 62.9324 22.873H62.9588C62.9764 22.8145 62.9988 22.7471 63.0262 22.6709C63.0555 22.5928 63.0828 22.5244 63.1082 22.4658L64.491 19.2344H65.1883V23.5H64.6931V20.2568C64.6931 20.1982 64.6941 20.1328 64.6961 20.0605C64.7 19.9863 64.7058 19.9199 64.7137 19.8613H64.6844C64.6668 19.9199 64.6443 19.9863 64.617 20.0605C64.5916 20.1328 64.5662 20.1982 64.5408 20.2568L63.1639 23.5H62.7127L61.3152 20.2568C61.2898 20.1982 61.2644 20.1328 61.239 20.0605C61.2137 19.9863 61.1961 19.9199 61.1863 19.8613H61.1512C61.157 19.9199 61.1629 19.9863 61.1687 20.0605C61.1765 20.1328 61.1805 20.1982 61.1805 20.2568V23.5H60.7146ZM66.0333 23.5V19.2344H68.8223V19.668H66.5401V21.083H68.5323V21.5166H66.5401V23.0664H68.8546V23.5H66.0333ZM69.4008 23.5V19.2344H69.9633L72.1225 22.4424C72.1693 22.5127 72.2103 22.5811 72.2455 22.6475C72.2807 22.7139 72.308 22.7715 72.3275 22.8203H72.3598C72.3539 22.7617 72.348 22.6846 72.3422 22.5889C72.3383 22.4932 72.3363 22.416 72.3363 22.3574V19.2344H72.8197V23.5H72.2631L70.0775 20.2598C70.0365 20.1992 70.0004 20.1426 69.9691 20.0898C69.9398 20.0371 69.9144 19.9863 69.893 19.9375H69.8637C69.8695 19.9961 69.8734 20.0596 69.8754 20.1279C69.8793 20.1963 69.8812 20.2598 69.8812 20.3184V23.5H69.4008ZM73.237 19.668V19.2344H76.7116V19.668H75.2263V23.5H74.7224V19.668H73.237ZM77.8157 23.5L79.5237 19.208H80.0481L81.7562 23.5H81.2142L79.9456 20.2129C79.9124 20.1328 79.8831 20.0566 79.8577 19.9844C79.8323 19.9102 79.8089 19.8359 79.7874 19.7617H79.7552C79.7356 19.8359 79.7132 19.9102 79.6878 19.9844C79.6624 20.0566 79.6341 20.1328 79.6028 20.2129L78.3226 23.5H77.8157ZM78.513 22.3779L78.6771 21.9443L80.8773 21.9473L81.0442 22.3809L78.513 22.3779ZM82.1031 23.5V19.2344H82.6656L84.8248 22.4424C84.8717 22.5127 84.9127 22.5811 84.9479 22.6475C84.983 22.7139 85.0104 22.7715 85.0299 22.8203H85.0621C85.0563 22.7617 85.0504 22.6846 85.0445 22.5889C85.0406 22.4932 85.0387 22.416 85.0387 22.3574V19.2344H85.5221V23.5H84.9654L82.7799 20.2598C82.7389 20.1992 82.7027 20.1426 82.6715 20.0898C82.6422 20.0371 82.6168 19.9863 82.5953 19.9375H82.566C82.5719 19.9961 82.5758 20.0596 82.5777 20.1279C82.5816 20.1963 82.5836 20.2598 82.5836 20.3184V23.5H82.1031ZM86.206 21.4727V21.2617C86.206 20.5957 86.3827 20.0771 86.7362 19.7061C87.0898 19.333 87.5448 19.1465 88.1015 19.1465C88.6562 19.1465 89.1103 19.333 89.4638 19.7061C89.8173 20.0771 89.9941 20.5957 89.9941 21.2617V21.4727C89.9941 22.1387 89.8173 22.6582 89.4638 23.0312C89.1103 23.4023 88.6562 23.5879 88.1015 23.5879C87.5468 23.5879 87.0917 23.4023 86.7362 23.0312C86.3827 22.6582 86.206 22.1387 86.206 21.4727ZM86.7187 21.4727C86.7187 22 86.8456 22.4102 87.0995 22.7031C87.3534 22.9941 87.6874 23.1396 88.1015 23.1396C88.5155 23.1396 88.8495 22.9941 89.1034 22.7031C89.3573 22.4102 89.4843 22 89.4843 21.4727V21.2617C89.4843 20.7344 89.3573 20.3252 89.1034 20.0342C88.8495 19.7412 88.5155 19.5947 88.1015 19.5947C87.6855 19.5947 87.3505 19.7412 87.0966 20.0342C86.8446 20.3252 86.7187 20.7344 86.7187 21.2617V21.4727ZM90.6779 23.5V19.2344H91.2404L93.3996 22.4424C93.4465 22.5127 93.4875 22.5811 93.5227 22.6475C93.5578 22.7139 93.5852 22.7715 93.6047 22.8203H93.6369C93.6311 22.7617 93.6252 22.6846 93.6194 22.5889C93.6154 22.4932 93.6135 22.416 93.6135 22.3574V19.2344H94.0969V23.5H93.5403L91.3547 20.2598C91.3137 20.1992 91.2776 20.1426 91.2463 20.0898C91.217 20.0371 91.1916 19.9863 91.1701 19.9375H91.1408C91.1467 19.9961 91.1506 20.0596 91.1526 20.1279C91.1565 20.1963 91.1584 20.2598 91.1584 20.3184V23.5H90.6779ZM96.0816 23.5V21.8945L94.4878 19.2344H95.0737L96.1489 21.0684C96.1841 21.127 96.2173 21.1855 96.2486 21.2441C96.2798 21.3027 96.3081 21.3613 96.3335 21.4199H96.3628C96.3902 21.3613 96.4194 21.3027 96.4507 21.2441C96.4819 21.1855 96.5152 21.127 96.5503 21.0684L97.6255 19.2344H98.1821L96.5884 21.8945V23.5H96.0816ZM98.5731 23.5V19.2344H99.241L100.639 22.4658C100.664 22.5244 100.691 22.5928 100.721 22.6709C100.752 22.749 100.775 22.8164 100.791 22.873H100.817C100.835 22.8145 100.857 22.7471 100.885 22.6709C100.914 22.5928 100.941 22.5244 100.967 22.4658L102.349 19.2344H103.047V23.5H102.552V20.2568C102.552 20.1982 102.553 20.1328 102.555 20.0605C102.558 19.9863 102.564 19.9199 102.572 19.8613H102.543C102.525 19.9199 102.503 19.9863 102.475 20.0605C102.45 20.1328 102.425 20.1982 102.399 20.2568L101.022 23.5H100.571L99.1737 20.2568C99.1483 20.1982 99.1229 20.1328 99.0975 20.0605C99.0721 19.9863 99.0545 19.9199 99.0448 19.8613H99.0096C99.0155 19.9199 99.0213 19.9863 99.0272 20.0605C99.035 20.1328 99.0389 20.1982 99.0389 20.2568V23.5H98.5731ZM103.731 21.4727V21.2617C103.731 20.5957 103.907 20.0771 104.261 19.7061C104.614 19.333 105.069 19.1465 105.626 19.1465C106.181 19.1465 106.635 19.333 106.988 19.7061C107.342 20.0771 107.519 20.5957 107.519 21.2617V21.4727C107.519 22.1387 107.342 22.6582 106.988 23.0312C106.635 23.4023 106.181 23.5879 105.626 23.5879C105.071 23.5879 104.616 23.4023 104.261 23.0312C103.907 22.6582 103.731 22.1387 103.731 21.4727ZM104.243 21.4727C104.243 22 104.37 22.4102 104.624 22.7031C104.878 22.9941 105.212 23.1396 105.626 23.1396C106.04 23.1396 106.374 22.9941 106.628 22.7031C106.882 22.4102 107.009 22 107.009 21.4727V21.2617C107.009 20.7344 106.882 20.3252 106.628 20.0342C106.374 19.7412 106.04 19.5947 105.626 19.5947C105.21 19.5947 104.875 19.7412 104.621 20.0342C104.369 20.3252 104.243 20.7344 104.243 21.2617V21.4727ZM108.159 22.0293V19.2344H108.665V22.0293C108.665 22.4043 108.768 22.6836 108.973 22.8672C109.178 23.0488 109.445 23.1396 109.773 23.1396C110.101 23.1396 110.368 23.0488 110.573 22.8672C110.78 22.6836 110.883 22.4043 110.883 22.0293V19.2344H111.387V22.0293C111.387 22.5488 111.231 22.9385 110.918 23.1982C110.606 23.458 110.224 23.5879 109.773 23.5879C109.322 23.5879 108.94 23.458 108.627 23.1982C108.315 22.9385 108.159 22.5488 108.159 22.0293ZM111.957 22.3223V22.2871H112.464V22.3193C112.464 22.5889 112.561 22.7939 112.757 22.9346C112.954 23.0732 113.228 23.1426 113.58 23.1426C113.933 23.1426 114.204 23.0723 114.391 22.9316C114.579 22.7891 114.673 22.6074 114.673 22.3867C114.673 22.1895 114.592 22.0303 114.429 21.9092C114.269 21.7861 113.933 21.6621 113.422 21.5371C112.91 21.4102 112.553 21.2568 112.352 21.0771C112.151 20.8975 112.051 20.6436 112.051 20.3154C112.051 19.9814 112.182 19.7031 112.446 19.4805C112.712 19.2578 113.08 19.1465 113.551 19.1465C114.019 19.1465 114.391 19.2676 114.667 19.5098C114.944 19.752 115.083 20.0469 115.083 20.3945V20.4297H114.579V20.3945C114.579 20.1582 114.492 19.9658 114.318 19.8174C114.146 19.667 113.889 19.5918 113.548 19.5918C113.21 19.5918 112.96 19.6562 112.798 19.7852C112.635 19.9121 112.554 20.0703 112.554 20.2598C112.554 20.4629 112.634 20.624 112.792 20.7432C112.952 20.8623 113.257 20.9775 113.706 21.0889C114.223 21.2178 114.597 21.3789 114.828 21.5723C115.06 21.7637 115.176 22.0322 115.176 22.3779C115.176 22.7314 115.033 23.0215 114.746 23.248C114.459 23.4746 114.07 23.5879 113.58 23.5879C113.09 23.5879 112.696 23.4746 112.399 23.248C112.104 23.0215 111.957 22.7129 111.957 22.3223ZM115.758 23.5V19.2344H116.265V23.0664H118.453V23.5H115.758ZM120.007 23.5V21.8945L118.413 19.2344H118.999L120.075 21.0684C120.11 21.127 120.143 21.1855 120.174 21.2441C120.205 21.3027 120.234 21.3613 120.259 21.4199H120.288C120.316 21.3613 120.345 21.3027 120.376 21.2441C120.408 21.1855 120.441 21.127 120.476 21.0684L121.551 19.2344H122.108L120.514 21.8945V23.5H120.007Z" fill="#FF1717"/>
</svg>
