<svg width="285" height="85" viewBox="0 0 285 85" fill="none" xmlns="http://www.w3.org/2000/svg">
<g filter="url(#filter0_d_1534_354)">
<g filter="url(#filter1_d_1534_354)">
<path d="M232.486 58.345C230.126 56.226 228.953 53.2224 228.967 49.3339L229.021 34.4469L235.906 34.4704L235.853 49.1353C235.836 53.8847 238.039 56.2809 242.463 56.296C244.644 56.3035 246.266 55.7258 247.423 54.5632C248.548 53.4283 249.116 51.6249 249.124 49.1807L249.177 34.5158L256 34.5392L255.946 49.4263C255.932 53.3147 254.737 56.3102 252.362 58.413C249.987 60.488 246.681 61.5321 242.413 61.5175C238.145 61.5029 234.846 60.4362 232.486 58.345Z" fill="white"/>
</g>
<g filter="url(#filter2_d_1534_354)">
<path d="M70.5534 60.6268L52.7631 60.7632L52.7358 53.2465L52.9883 40.5976L52.9641 33.9803L70.4559 33.8464L70.4722 38.3094L57.3564 38.41L57.3808 45.1053L68.3106 45.0215L68.3268 49.485L57.397 49.5687L57.4214 56.2638L70.5371 56.1633L70.5534 60.6268Z" fill="#FF1717"/>
<path d="M118.913 54.7618C120.199 54.0502 121.208 53.0346 121.939 51.7702C122.641 50.5058 123.009 49.0474 123.015 47.4225C123.021 45.7701 122.663 44.3368 121.97 43.04C121.249 41.7707 120.248 40.7483 118.966 40.0554C117.712 39.335 116.29 38.9721 114.698 38.9667C113.135 38.9614 111.71 39.3145 110.423 40.0262C109.165 40.7104 108.156 41.7259 107.425 42.9903C106.695 44.2822 106.327 45.713 106.321 47.3654C106.315 48.9903 106.673 50.4512 107.394 51.7205C108.115 52.9898 109.116 54.0122 110.37 54.7326C111.652 55.453 113.074 55.8159 114.638 55.8213C116.229 55.8267 117.654 55.4735 118.913 54.7618ZM107.143 59.2106C104.914 58.0188 103.189 56.388 101.941 54.3182C100.692 52.2484 100.058 49.9053 100.068 47.344C100.077 44.7553 100.727 42.4165 101.991 40.3553C103.255 38.2941 104.992 36.6752 107.229 35.4986C109.467 34.322 111.954 33.7522 114.717 33.7616C117.509 33.7712 119.991 34.358 122.193 35.5498C124.394 36.7416 126.147 38.3724 127.395 40.4422C128.672 42.5121 129.306 44.8553 129.296 47.444C129.287 50.0053 128.637 52.344 127.345 54.4051C126.081 56.4663 124.317 58.0851 122.107 59.2618C119.897 60.4385 117.41 61.0083 114.619 60.9988C111.855 60.9893 109.373 60.4025 107.143 59.2106Z" fill="white"/>
<path d="M216.452 55.0954C217.739 54.3838 218.748 53.3682 219.478 52.1039C220.181 50.8394 220.549 49.381 220.555 47.7562C220.561 46.1037 220.203 44.6704 219.51 43.3736C218.789 42.1043 217.787 41.0819 216.506 40.389C215.252 39.6687 213.829 39.3058 212.238 39.3003C210.675 39.295 209.25 39.6481 207.963 40.3598C206.704 41.044 205.696 42.0595 204.965 43.3239C204.235 44.6158 203.867 46.0466 203.861 47.699C203.855 49.3239 204.212 50.7848 204.934 52.0541C205.655 53.3234 206.656 54.3459 207.91 55.0662C209.191 55.7866 210.614 56.1495 212.177 56.1549C213.768 56.1603 215.193 55.8072 216.452 55.0954ZM204.683 59.5442C202.454 58.3524 200.729 56.7216 199.48 54.6518C198.232 52.582 197.598 50.2389 197.607 47.6776C197.617 45.0889 198.267 42.7502 199.531 40.6889C200.795 38.6277 202.531 37.0088 204.769 35.8322C207.007 34.6556 209.493 34.0858 212.257 34.0952C215.049 34.1048 217.531 34.6916 219.732 35.8834C221.933 37.0752 223.686 38.7061 224.935 40.7759C226.212 42.8458 226.845 45.1889 226.836 47.7776C226.827 50.3389 226.176 52.6776 224.885 54.7387C223.621 56.7999 221.856 58.4188 219.647 59.5954C217.437 60.7721 214.95 61.342 212.158 61.3324C209.395 61.323 206.912 60.7361 204.683 59.5442Z" fill="white"/>
<path d="M47.9421 39.9874C46.6786 37.9359 44.8934 36.366 42.5868 35.2208C40.2802 34.0756 37.6538 33.498 34.6498 33.4877L22.0851 33.4447L22.0664 38.6194L34.3133 38.6613C37.0862 38.6708 39.2787 39.4459 40.9196 40.9585C42.5606 42.471 43.3618 44.5493 43.3525 47.1367C43.3431 49.724 42.527 51.7684 40.8751 53.2696C39.2232 54.7709 37.0253 55.5311 34.2524 55.5216L22.0054 55.4797L21.9867 60.6544L34.5514 60.6974C37.5553 60.7076 40.1859 60.148 42.5007 59.0186C44.8155 57.9176 46.6121 56.3316 47.8904 54.2888C49.1687 52.246 49.8128 49.8599 49.8226 47.1588C49.8325 44.4293 49.2056 42.0388 47.9421 39.9874Z" fill="#FF1717"/>
<path d="M166.256 33.8965L159.313 33.8727L159.264 47.4776L159.217 60.5115L166.159 60.5353L166.163 59.5839L166.166 58.6325L166.187 52.9242L166.211 46.2645L166.235 39.6047L166.245 36.7506L166.256 33.8965Z" fill="white"/>
<path d="M84.5327 60.2975L89.7397 60.3151L102.49 33.7811L96.1534 33.7464L93.7471 39.562L91.7377 44.3278L87.0392 53.6875L83.2795 44.2815L81.3529 39.4942L79.0137 33.6527L72.5375 33.6172L84.5327 60.2975Z" fill="#FF1717"/>
<path d="M156.142 33.9033L155.965 60.5419L151.626 60.527L138.436 44.5334L138.378 60.4817L132.534 60.4617L132.63 33.8229L137.536 33.8397L150.211 50.4024L150.271 33.8832L156.142 33.9033Z" fill="white"/>
<path d="M191.154 34.023L190.281 47.3396L192.518 60.6669L189.915 60.658L189.942 53.0469L189.963 47.3386L189.981 42.2093L182.149 48.2632L174.36 42.1559L174.294 60.6045L169.087 60.5867L169.183 33.9479L173.272 33.9619L182.173 41.6035L191.154 34.023L190.281 47.3396L192.518 60.6669L195.122 60.6758L195.166 48.3078L195.218 34.0369L191.154 34.023Z" fill="white"/>
<path d="M262.989 59.8899C261.009 59.3323 259.42 58.5833 258.223 57.6703L260.361 53.1059C261.503 53.936 262.841 54.6016 264.43 55.1028C265.992 55.6038 267.582 55.8847 269.145 55.89C270.904 55.896 272.189 55.625 273.056 55.1323C273.896 54.6119 274.317 53.9248 274.32 53.0711C274.322 52.4376 274.073 51.9135 273.572 51.4987C273.071 51.0839 272.43 50.7512 271.677 50.5008C270.896 50.2502 269.837 49.9712 268.526 49.6638C266.489 49.1886 264.816 48.7147 263.534 48.2146C262.251 47.742 261.137 46.9671 260.22 45.9174C259.275 44.8676 258.833 43.4615 258.839 41.699C258.845 40.1567 259.269 38.7812 260.111 37.5447C260.953 36.3083 262.212 35.3211 263.918 34.6109C265.596 33.8731 267.663 33.5221 270.119 33.5305C271.822 33.5363 273.469 33.7348 275.114 34.1535C276.732 34.5446 278.154 35.1278 279.379 35.9031L277.436 40.5233C274.985 39.1379 272.53 38.441 270.046 38.4325C268.315 38.4265 267.058 38.6976 266.218 39.2456C265.379 39.7935 264.985 40.5082 264.982 41.417C264.979 42.3259 265.451 42.9885 266.399 43.4323C267.346 43.8762 268.796 44.3218 270.749 44.7416C272.785 45.2168 274.458 45.7182 275.741 46.1908C277.051 46.6635 278.137 47.4383 279.083 48.4606C280 49.4827 280.47 50.8889 280.463 52.6514C280.458 54.1386 280.006 55.5141 279.164 56.7505C278.294 57.9869 277.007 58.9739 275.329 59.6842C273.596 60.4219 271.528 60.7728 269.1 60.7645C266.978 60.7573 264.941 60.4749 262.989 59.8899Z" fill="white"/>
<path d="M202.645 72L205.306 64.8516L206.625 64.8516L209.3 72L207.953 72L206.112 66.834C206.07 66.7168 206.032 66.6045 206 66.4971C205.97 66.3896 205.943 66.279 205.917 66.165L205.868 66.165C205.845 66.279 205.817 66.3896 205.785 66.4971C205.755 66.6045 205.72 66.7168 205.677 66.834L203.832 72L202.645 72ZM203.915 70.2959L204.256 69.334L207.606 69.3389L207.948 70.3008L203.915 70.2959ZM209.928 72L209.928 64.8906L211.305 64.8906L214.229 69.6025C214.288 69.7034 214.343 69.8109 214.395 69.9248C214.451 70.0355 214.498 70.1364 214.537 70.2275L214.581 70.2275C214.574 70.1234 214.568 69.9964 214.561 69.8467C214.558 69.6969 214.556 69.57 214.556 69.4658L214.556 64.8906L215.68 64.8906L215.68 72L214.298 72L211.363 67.2881C211.301 67.1904 211.246 67.0928 211.197 66.9951C211.148 66.8975 211.106 66.8031 211.07 66.7119L211.026 66.7119C211.033 66.8161 211.038 66.9284 211.041 67.0488C211.047 67.1693 211.051 67.2816 211.051 67.3857L211.051 72L209.928 72ZM216.878 68.6553L216.878 68.2353C216.878 67.1286 217.179 66.2708 217.781 65.6621C218.387 65.0501 219.165 64.7441 220.115 64.7441C221.066 64.7441 221.844 65.0501 222.449 65.6621C223.055 66.2708 223.358 67.1286 223.358 68.2353L223.358 68.6553C223.358 69.762 223.055 70.6214 222.449 71.2334C221.844 71.8421 221.066 72.1465 220.115 72.1465C219.165 72.1465 218.387 71.8421 217.781 71.2334C217.179 70.6214 216.878 69.762 216.878 68.6553ZM218.172 68.6846C218.172 69.4626 218.348 70.068 218.699 70.501C219.054 70.9339 219.526 71.1504 220.115 71.1504C220.708 71.1504 221.181 70.9339 221.536 70.501C221.891 70.068 222.069 69.4626 222.069 68.6846L222.069 68.206C222.069 67.4281 221.891 66.8242 221.536 66.3945C221.181 65.9616 220.708 65.7451 220.115 65.7451C219.526 65.7451 219.054 65.9616 218.699 66.3945C218.348 66.8242 218.172 67.4281 218.172 68.206L218.172 68.6846ZM224.561 72L224.561 64.8906L225.938 64.8906L228.863 69.6025C228.921 69.7034 228.977 69.8109 229.029 69.9248C229.084 70.0355 229.131 70.1364 229.17 70.2275L229.214 70.2275C229.208 70.1234 229.201 69.9964 229.195 69.8467C229.192 69.6969 229.19 69.57 229.19 69.4658L229.19 64.8906L230.313 64.8906L230.313 72L228.931 72L225.997 67.2881C225.935 67.1904 225.879 67.0928 225.831 66.9951C225.782 66.8975 225.739 66.8031 225.704 66.7119L225.66 66.7119C225.666 66.8161 225.671 66.9284 225.674 67.0488C225.681 67.1693 225.684 67.2816 225.684 67.3857L225.684 72L224.561 72ZM233.465 72L233.465 69.4463L230.974 64.8906L232.4 64.8906L233.875 67.7031C233.927 67.8008 233.974 67.8968 234.016 67.9912C234.062 68.0856 234.103 68.18 234.138 68.2744L234.182 68.2744C234.218 68.18 234.257 68.0856 234.3 67.9912C234.342 67.8968 234.389 67.8008 234.441 67.7031L235.935 64.8906L237.195 64.8906L234.729 69.417L234.729 72L233.465 72ZM237.886 72L237.886 64.8906L239.536 64.8906L241.382 69.749C241.421 69.8532 241.458 69.959 241.494 70.0664C241.533 70.1706 241.567 70.2764 241.597 70.3838L241.636 70.3838C241.662 70.2764 241.693 70.1706 241.729 70.0664C241.764 69.959 241.802 69.8532 241.841 69.749L243.652 64.8906L245.357 64.8906L245.357 72L244.107 72L244.107 67.1269C244.107 67.0228 244.108 66.9072 244.111 66.7803C244.118 66.6501 244.128 66.5329 244.141 66.4287L244.092 66.4287C244.066 66.5329 244.033 66.6501 243.994 66.7803C243.955 66.9072 243.916 67.0228 243.877 67.1269L242.056 72L241.006 72L239.155 67.1221C239.116 67.0179 239.079 66.9023 239.043 66.7754C239.007 66.6452 238.98 66.528 238.96 66.4238L238.911 66.4238C238.921 66.528 238.929 66.6452 238.936 66.7754C238.945 66.9023 238.95 67.0179 238.95 67.1221L238.95 72L237.886 72ZM246.555 68.6553L246.555 68.2353C246.555 67.1286 246.856 66.2708 247.458 65.6621C248.064 65.0501 248.842 64.7441 249.792 64.7441C250.743 64.7441 251.521 65.0501 252.126 65.6621C252.732 66.2708 253.035 67.1286 253.035 68.2353L253.035 68.6553C253.035 69.762 252.732 70.6214 252.126 71.2334C251.521 71.8421 250.743 72.1465 249.792 72.1465C248.842 72.1465 248.064 71.8421 247.458 71.2334C246.856 70.6214 246.555 69.762 246.555 68.6553ZM247.849 68.6846C247.849 69.4626 248.025 70.068 248.376 70.501C248.731 70.9339 249.203 71.1504 249.792 71.1504C250.385 71.1504 250.858 70.9339 251.213 70.501C251.568 70.068 251.745 69.4626 251.745 68.6846L251.745 68.206C251.745 67.4281 251.568 66.8242 251.213 66.3945C250.858 65.9616 250.385 65.7451 249.792 65.7451C249.203 65.7451 248.731 65.9616 248.376 66.3945C248.025 66.8242 247.849 67.4281 247.849 68.206L247.849 68.6846ZM254.16 69.4902L254.16 64.8906L255.429 64.8906L255.429 69.5098C255.429 70.0729 255.571 70.4879 255.854 70.7549C256.137 71.0185 256.513 71.1504 256.982 71.1504C257.451 71.1504 257.827 71.0185 258.11 70.7549C258.397 70.4879 258.54 70.0729 258.54 69.5098L258.54 64.8906L259.77 64.8906L259.77 69.4902C259.77 70.3822 259.498 71.0478 258.955 71.4873C258.414 71.9267 257.752 72.1465 256.967 72.1465C256.18 72.1465 255.514 71.9267 254.97 71.4873C254.43 71.0478 254.16 70.3822 254.16 69.4902ZM260.773 70.0029L260.773 69.915L262.048 69.915L262.048 69.998C262.048 70.3822 262.185 70.6719 262.458 70.8672C262.731 71.0625 263.114 71.1601 263.605 71.1601C264.094 71.1601 264.468 71.0641 264.729 70.8721C264.989 70.68 265.119 70.4294 265.119 70.1201C265.122 69.8239 265.007 69.5928 264.772 69.4268C264.538 69.2607 264.021 69.0801 263.22 68.8848C262.406 68.6829 261.817 68.4241 261.452 68.1084C261.088 67.7894 260.905 67.3402 260.905 66.7607C260.905 66.1748 261.141 65.693 261.613 65.3154C262.085 64.9346 262.733 64.7441 263.557 64.7441C264.38 64.7441 265.035 64.946 265.52 65.3496C266.008 65.7533 266.252 66.2562 266.252 66.8584L266.252 66.9463L264.982 66.9463L264.982 66.8633C264.982 66.5247 264.864 66.2529 264.626 66.0478C264.388 65.8395 264.032 65.7353 263.557 65.7353C263.088 65.7353 262.741 65.82 262.517 65.9893C262.292 66.1585 262.18 66.3766 262.18 66.6435C262.18 66.9365 262.29 67.1595 262.512 67.3125C262.733 67.4622 263.21 67.6282 263.942 67.8105C264.759 68.0124 265.371 68.2825 265.778 68.6211C266.188 68.9596 266.394 69.4398 266.394 70.0615C266.394 70.6865 266.141 71.1911 265.637 71.5752C265.135 71.956 264.458 72.1465 263.605 72.1465C262.756 72.1465 262.071 71.9577 261.55 71.5801C261.032 71.1992 260.773 70.6735 260.773 70.0029ZM267.426 72L267.426 64.8906L268.696 64.8906L268.696 71.0332L272.099 71.0332L272.099 72L267.426 72ZM274.445 72L274.445 69.4463L271.955 64.8906L273.38 64.8906L274.855 67.7031C274.907 67.8008 274.954 67.8968 274.997 67.9912C275.042 68.0856 275.083 68.18 275.119 68.2744L275.163 68.2744C275.199 68.18 275.238 68.0856 275.28 67.9912C275.322 67.8968 275.369 67.8008 275.421 67.7031L276.916 64.8906L278.175 64.8906L275.71 69.417L275.71 72L274.445 72Z" fill="#FF1717"/>
</g>
<g clip-path="url(#clip0_1534_354)">
<path d="M155.078 9.03693C155.271 9.08354 155.463 9.13004 155.655 9.17645C156.038 9.269 156.421 9.36201 156.804 9.45548C157.539 9.63504 158.276 9.81123 159.014 9.98676C159.129 10.0146 159.244 10.0425 159.363 10.0712C159.469 10.0965 159.575 10.1218 159.684 10.1478C159.774 10.1695 159.864 10.1911 159.957 10.2134C161.121 10.4599 162.278 10.4164 163.424 10.1379C163.511 10.1174 163.598 10.0969 163.687 10.0757C164.831 9.80189 165.958 9.49225 167.086 9.18443C171.282 8.04165 171.282 8.04165 172.833 8.55922C173.837 8.99971 174.383 9.65483 174.725 10.467C174.76 10.5459 174.795 10.6248 174.83 10.7062C174.952 10.984 175.069 11.2626 175.186 11.5415C175.231 11.6486 175.277 11.7558 175.323 11.8662C175.671 12.694 176.012 13.5235 176.351 14.3532C176.588 14.9317 176.825 15.51 177.062 16.0883C177.123 16.2368 177.184 16.3852 177.245 16.5337C177.666 17.5603 178.092 18.5858 178.522 19.6101C178.694 20.0201 178.866 20.4302 179.037 20.8404C179.2 21.2285 179.364 21.6164 179.528 22.004C179.629 22.244 179.73 22.4843 179.83 22.7246C179.898 22.8874 179.968 23.0499 180.037 23.2124C180.446 24.1985 180.446 24.1985 180.351 24.7419C180.028 25.1114 179.632 25.1821 179.074 25.286C178.993 25.3014 178.912 25.3168 178.828 25.3327C178.556 25.384 178.284 25.4333 178.011 25.4826C177.817 25.5186 177.623 25.5547 177.429 25.5908C176.773 25.7121 176.116 25.83 175.459 25.9474C175.339 25.9691 175.218 25.9907 175.093 26.013C170.04 26.9172 170.04 26.9172 167.624 27.2771C167.451 27.3028 167.451 27.3028 167.276 27.329C166.939 27.3771 166.603 27.4212 166.265 27.4632C166.125 27.4807 165.985 27.4982 165.841 27.5162C164.538 27.6659 163.248 27.7073 161.931 27.7181C161.821 27.719 161.71 27.72 161.597 27.721C159.687 27.7347 157.856 27.6453 155.977 27.389C155.799 27.3651 155.621 27.3413 155.442 27.3176C152.833 26.9658 150.239 26.5538 147.647 26.1383C147.346 26.09 147.044 26.0419 146.743 25.9939C146.319 25.9263 145.895 25.8578 145.472 25.7889C145.282 25.7588 145.282 25.7588 145.088 25.728C144.484 25.6286 143.931 25.531 143.394 25.2922C143.018 24.7459 143.357 24.0668 143.579 23.5171C143.612 23.431 143.646 23.3448 143.68 23.2561C143.792 22.971 143.905 22.6863 144.018 22.4015C144.097 22.199 144.177 21.9965 144.256 21.794C144.466 21.2579 144.678 20.7221 144.89 20.1864C145.099 19.659 145.306 19.1313 145.513 18.6036C145.759 17.9771 146.005 17.3507 146.253 16.7245C146.668 15.6746 147.079 14.6241 147.484 13.572C147.602 13.2659 147.72 12.9598 147.838 12.6537C147.912 12.4604 147.986 12.2671 148.06 12.0737C148.162 11.8065 148.264 11.5397 148.368 11.2728C148.411 11.1572 148.411 11.1572 148.455 11.0392C148.827 10.0877 149.308 9.27934 150.498 8.76102C152.05 8.20963 153.562 8.66306 155.078 9.03693Z" fill="url(#paint0_linear_1534_354)"/>
<path d="M141.322 24.2059L141.332 24.1844C141.362 24.1153 141.381 24.0712 141.393 24.0361C141.404 24.003 141.406 23.9878 141.406 23.9782C141.406 23.9686 141.404 23.9534 141.392 23.9206C141.388 23.9105 141.384 23.8996 141.379 23.8877L141.143 23.9486L141.143 23.9486C138.387 24.6541 135.567 25.4754 133.378 26.917C132.892 27.2629 132.399 27.6256 132.016 28.0288C131.635 28.4313 131.377 28.86 131.338 29.336C131.327 29.8319 131.413 30.241 131.609 30.614C131.807 30.9896 132.122 31.3388 132.585 31.7054L132.791 31.8628L132.792 31.8639L132.792 31.864L133.067 32.0802C136.428 34.3527 141.043 35.5798 145.918 36.2481C150.793 36.9163 155.912 37.0237 160.269 37.0684C160.27 37.0684 160.27 37.0684 160.27 37.0684L160.268 37.2184C169.376 37.2903 183.502 36.8725 190.5 31.8232L141.322 24.2059ZM141.322 24.2059L141.32 24.2292C141.25 24.9175 141.219 25.6072 141.865 26.2162L141.864 26.2164L141.872 26.2228C142.391 26.6517 143.066 26.8831 143.769 27.0356C144.238 27.1372 144.733 27.2061 145.212 27.2728C145.448 27.3056 145.68 27.338 145.903 27.3734L141.322 24.2059ZM190.413 31.7015C190.412 31.7018 190.412 31.7021 190.411 31.7024L181.847 25.5107C182.126 25.1294 182.163 24.8568 182.157 24.4292L182.307 24.4281L182.307 24.4277C182.307 24.4275 182.307 24.4273 182.307 24.4272L182.305 24.129L182.305 24.129L182.304 24.1205C182.291 23.9072 182.259 23.7043 182.214 23.5012C183.946 23.8886 185.852 24.339 187.578 24.9871C189.383 25.6651 190.972 26.5524 191.958 27.7916C192.412 28.4385 192.501 29.1531 192.268 29.8701C191.915 30.5041 191.313 31.0557 190.626 31.5415L190.626 31.5415L190.622 31.5441L190.413 31.7015Z" fill="#990E0E" stroke="black" stroke-width="0.3"/>
</g>
<path d="M21.9939 31V23.8906H24.3523C25.3353 23.8906 26.1556 24.1917 26.8132 24.7939C27.4707 25.3929 27.7995 26.2067 27.7995 27.2354V27.6553C27.7995 28.6807 27.4707 29.4945 26.8132 30.0967C26.1556 30.6989 25.3353 31 24.3523 31H21.9939ZM23.2585 30.0381H24.3474C25.0017 30.0381 25.5241 29.8298 25.9148 29.4131C26.3086 28.9964 26.5056 28.4121 26.5056 27.6602V27.2305C26.5056 26.4785 26.3086 25.8942 25.9148 25.4775C25.5241 25.0609 25.0017 24.8525 24.3474 24.8525H23.2585V30.0381ZM28.9981 31V23.8906H33.8467V24.8574H30.2627V26.8496H33.3877V27.8164H30.2627V30.0332H33.9004V31H28.9981ZM33.9954 23.8906H35.3577L37.1546 28.9248C37.1969 29.0355 37.2327 29.1429 37.262 29.2471C37.2913 29.348 37.319 29.4554 37.345 29.5693H37.389C37.415 29.4554 37.4427 29.348 37.472 29.2471C37.5045 29.1429 37.5404 29.0355 37.5794 28.9248L39.4007 23.8906H40.6019L37.9505 31.0342H36.6517L33.9954 23.8906ZM41.1803 31V23.8906H46.0289V24.8574H42.4449V26.8496H45.5699V27.8164H42.4449V30.0332H46.0826V31H41.1803ZM47.0712 31V23.8906H48.3408V30.0332H51.7441V31H47.0712ZM52.2151 27.6553V27.2354C52.2151 26.1286 52.5162 25.2708 53.1184 24.6621C53.7239 24.0501 54.5019 23.7441 55.4524 23.7441C56.4029 23.7441 57.1809 24.0501 57.7864 24.6621C58.3918 25.2708 58.6946 26.1286 58.6946 27.2354V27.6553C58.6946 28.762 58.3918 29.6214 57.7864 30.2334C57.1809 30.8421 56.4029 31.1465 55.4524 31.1465C54.5019 31.1465 53.7239 30.8421 53.1184 30.2334C52.5162 29.6214 52.2151 28.762 52.2151 27.6553ZM53.509 27.6846C53.509 28.4626 53.6848 29.068 54.0364 29.501C54.3912 29.9339 54.8632 30.1504 55.4524 30.1504C56.0448 30.1504 56.5185 29.9339 56.8733 29.501C57.2281 29.068 57.4055 28.4626 57.4055 27.6846V27.2061C57.4055 26.4281 57.2281 25.8242 56.8733 25.3945C56.5185 24.9616 56.0448 24.7451 55.4524 24.7451C54.8632 24.7451 54.3912 24.9616 54.0364 25.3945C53.6848 25.8242 53.509 26.4281 53.509 27.2061V27.6846ZM59.898 31V23.8906H62.5201C63.3762 23.8906 64.0337 24.0924 64.4927 24.4961C64.9517 24.8965 65.1812 25.4401 65.1812 26.127C65.1812 26.8138 64.9517 27.3623 64.4927 27.7725C64.0337 28.1794 63.3762 28.3828 62.5201 28.3828H61.1675V31H59.898ZM61.1675 27.4209H62.4908C63.0181 27.4209 63.3876 27.2988 63.5992 27.0547C63.8107 26.8073 63.9165 26.498 63.9165 26.127C63.9165 25.7591 63.8107 25.4548 63.5992 25.2139C63.3876 24.973 63.0181 24.8525 62.4908 24.8525H61.1675V27.4209ZM66.1258 31V23.8906H67.3905V31H66.1258ZM68.8771 31V23.8906H70.254L73.1788 28.6025C73.2374 28.7035 73.2928 28.8109 73.3449 28.9248C73.4002 29.0355 73.4474 29.1364 73.4865 29.2275H73.5304C73.5239 29.1234 73.5174 28.9964 73.5109 28.8467C73.5076 28.6969 73.506 28.57 73.506 28.4658V23.8906H74.629V31H73.2472L70.3126 26.2881C70.2508 26.1904 70.1954 26.0928 70.1466 25.9951C70.0978 25.8975 70.0555 25.8031 70.0197 25.7119H69.9757C69.9822 25.8161 69.9871 25.9284 69.9904 26.0488C69.9969 26.1693 70.0001 26.2816 70.0001 26.3857V31H68.8771ZM75.8276 27.6553V27.2354C75.8276 26.1286 76.1303 25.2708 76.7358 24.6621C77.3413 24.0501 78.1095 23.7441 79.0405 23.7441C79.9519 23.7441 80.6583 23.9622 81.1596 24.3984C81.6642 24.8314 81.9376 25.3555 81.9799 25.9707L81.9848 26.0244H80.7055L80.7006 25.9756C80.6811 25.6663 80.5346 25.3831 80.2612 25.126C79.9877 24.8656 79.576 24.7354 79.0258 24.7354C78.4659 24.7354 78.0086 24.9518 77.6538 25.3848C77.2989 25.8177 77.1215 26.4232 77.1215 27.2012V27.6895C77.1215 28.4707 77.3022 29.0778 77.6635 29.5107C78.0248 29.9404 78.531 30.1553 79.1821 30.1553C79.5141 30.1553 79.8006 30.1227 80.0415 30.0576C80.2856 29.9893 80.5183 29.8818 80.7397 29.7354V28.2998H79.0795V27.3379H81.9848V30.165C81.7342 30.4092 81.3728 30.6338 80.9008 30.8389C80.4288 31.0439 79.8559 31.1465 79.1821 31.1465C78.1567 31.1465 77.3413 30.8421 76.7358 30.2334C76.1303 29.6214 75.8276 28.762 75.8276 27.6553Z" fill="white"/>
</g>
<defs>
<filter id="filter0_d_1534_354" x="16.3048" y="0" width="268.159" height="84.9999" filterUnits="userSpaceOnUse" color-interpolation-filters="sRGB">
<feFlood flood-opacity="0" result="BackgroundImageFix"/>
<feColorMatrix in="SourceAlpha" type="matrix" values="0 0 0 0 0 0 0 0 0 0 0 0 0 0 0 0 0 0 127 0" result="hardAlpha"/>
<feOffset dy="4"/>
<feGaussianBlur stdDeviation="2"/>
<feComposite in2="hardAlpha" operator="out"/>
<feColorMatrix type="matrix" values="0 0 0 0 0 0 0 0 0 0 0 0 0 0 0 0 0 0 0.25 0"/>
<feBlend mode="normal" in2="BackgroundImageFix" result="effect1_dropShadow_1534_354"/>
<feBlend mode="normal" in="SourceGraphic" in2="effect1_dropShadow_1534_354" result="shape"/>
</filter>
<filter id="filter1_d_1534_354" x="224.967" y="34.4469" width="35.033" height="35.0708" filterUnits="userSpaceOnUse" color-interpolation-filters="sRGB">
<feFlood flood-opacity="0" result="BackgroundImageFix"/>
<feColorMatrix in="SourceAlpha" type="matrix" values="0 0 0 0 0 0 0 0 0 0 0 0 0 0 0 0 0 0 127 0" result="hardAlpha"/>
<feOffset dy="4"/>
<feGaussianBlur stdDeviation="2"/>
<feComposite in2="hardAlpha" operator="out"/>
<feColorMatrix type="matrix" values="0 0 0 0 0 0 0 0 0 0 0 0 0 0 0 0 0 0 0.25 0"/>
<feBlend mode="normal" in2="BackgroundImageFix" result="effect1_dropShadow_1534_354"/>
<feBlend mode="normal" in="SourceGraphic" in2="effect1_dropShadow_1534_354" result="shape"/>
</filter>
<filter id="filter2_d_1534_354" x="16.3048" y="33.4447" width="268.159" height="51.5552" filterUnits="userSpaceOnUse" color-interpolation-filters="sRGB">
<feFlood flood-opacity="0" result="BackgroundImageFix"/>
<feColorMatrix in="SourceAlpha" type="matrix" values="0 0 0 0 0 0 0 0 0 0 0 0 0 0 0 0 0 0 127 0" result="hardAlpha"/>
<feOffset dy="4"/>
<feGaussianBlur stdDeviation="2"/>
<feComposite in2="hardAlpha" operator="out"/>
<feColorMatrix type="matrix" values="0 0 0 0 0 0 0 0 0 0 0 0 0 0 0 0 0 0 0.25 0"/>
<feBlend mode="normal" in2="BackgroundImageFix" result="effect1_dropShadow_1534_354"/>
<feBlend mode="normal" in="SourceGraphic" in2="effect1_dropShadow_1534_354" result="shape"/>
</filter>
<linearGradient id="paint0_linear_1534_354" x1="161.642" y1="8.32415" x2="161.837" y2="27.7192" gradientUnits="userSpaceOnUse">
<stop stop-color="#FF1717"/>
<stop offset="1" stop-color="#990E0E"/>
</linearGradient>
<clipPath id="clip0_1534_354">
<rect width="61.2422" height="45.5363" fill="white" transform="matrix(0.999949 -0.0100767 0.0106524 0.999943 128.611 0.617065)"/>
</clipPath>
</defs>
</svg>
