<svg width="273" height="84" viewBox="0 0 273 84" fill="none" xmlns="http://www.w3.org/2000/svg">
<g filter="url(#filter0_d_1534_354)">
<g filter="url(#filter1_d_1534_354)">
<path d="M220.119 57.5874C217.722 55.4959 216.531 52.5313 216.545 48.6933L216.6 33.9996L223.592 34.0229L223.538 48.4973C223.521 53.185 225.759 55.5501 230.251 55.565C232.466 55.5724 234.114 55.0022 235.289 53.8547C236.432 52.7345 237.008 50.9545 237.017 48.5421L237.071 34.0677L244 34.0907L243.945 48.7845C243.931 52.6224 242.718 55.579 240.305 57.6545C237.893 59.7025 234.535 60.7331 230.201 60.7187C225.866 60.7043 222.516 59.6514 220.119 57.5874Z" fill="white"/>
</g>
<g filter="url(#filter2_d_1534_354)">
<path d="M55.6559 59.8396L37.5877 59.9742L37.5599 52.5551L37.8163 40.0705L37.7918 33.5391L55.5569 33.4069L55.5735 37.812L42.2527 37.9113L42.2774 44.5196L53.378 44.4369L53.3945 48.8424L42.2939 48.9251L42.3187 55.5333L55.6394 55.434L55.6559 59.8396Z" fill="#FF1717"/>
<path d="M104.771 54.0506C106.078 53.3482 107.102 52.3458 107.844 51.0979C108.557 49.8498 108.931 48.4104 108.937 46.8066C108.943 45.1757 108.58 43.7609 107.876 42.481C107.143 41.2282 106.127 40.219 104.825 39.5351C103.552 38.8241 102.107 38.466 100.491 38.4606C98.903 38.4553 97.4557 38.8039 96.1488 39.5063C94.8704 40.1816 93.8459 41.184 93.1041 42.4319C92.3622 43.707 91.9883 45.1193 91.9823 46.7502C91.9763 48.354 92.3395 49.7959 93.072 51.0487C93.8046 52.3016 94.8215 53.3107 96.0948 54.0217C97.3964 54.7328 98.8411 55.091 100.429 55.0963C102.045 55.1016 103.492 54.7531 104.771 54.0506ZM92.8177 58.4416C90.5538 57.2652 88.8019 55.6556 87.5336 53.6127C86.2653 51.5698 85.6218 49.2571 85.6312 46.7291C85.6407 44.174 86.3014 41.8656 87.5849 39.8312C88.8684 37.7967 90.6322 36.1988 92.9048 35.0375C95.1774 33.8762 97.7029 33.3138 100.51 33.3231C103.345 33.3325 105.866 33.9118 108.102 35.088C110.338 36.2643 112.118 37.874 113.386 39.917C114.683 41.96 115.326 44.2727 115.317 46.8278C115.307 49.3558 114.647 51.6641 113.335 53.6985C112.051 55.7329 110.259 57.3307 108.015 58.4921C105.771 59.6535 103.245 60.216 100.41 60.2066C97.6029 60.1972 95.0816 59.618 92.8177 58.4416Z" fill="white"/>
<path d="M203.834 54.38C205.141 53.6776 206.166 52.6753 206.908 51.4273C207.621 50.1793 207.995 48.7398 208.001 47.1361C208.007 45.5051 207.644 44.0904 206.94 42.8105C206.207 41.5576 205.19 40.5485 203.888 39.8646C202.615 39.1536 201.17 38.7954 199.554 38.7901C197.967 38.7848 196.519 39.1333 195.212 39.8358C193.934 40.5111 192.91 41.5134 192.168 42.7614C191.426 44.0365 191.052 45.4488 191.046 47.0797C191.04 48.6835 191.403 50.1254 192.136 51.3782C192.868 52.6311 193.885 53.6402 195.158 54.3512C196.46 55.0623 197.905 55.4204 199.492 55.4257C201.109 55.4311 202.556 55.0825 203.834 54.38ZM191.881 58.7711C189.617 57.5947 187.866 55.9851 186.597 53.9422C185.329 51.8992 184.685 49.5866 184.695 47.0586C184.704 44.5034 185.365 42.1951 186.648 40.1607C187.932 38.1262 189.696 36.5283 191.968 35.367C194.241 34.2057 196.767 33.6432 199.573 33.6526C202.409 33.662 204.93 34.2412 207.166 35.4175C209.401 36.5938 211.181 38.2035 212.45 40.2464C213.746 42.2895 214.39 44.6021 214.38 47.1573C214.371 49.6853 213.71 51.9936 212.398 54.0279C211.115 56.0624 209.323 57.6602 207.078 58.8216C204.834 59.983 202.309 60.5454 199.473 60.536C196.666 60.5267 194.145 59.9475 191.881 58.7711Z" fill="white"/>
<path d="M32.6914 39.4681C31.4081 37.4432 29.595 35.8937 27.2524 34.7634C24.9097 33.6331 22.2422 33.0629 19.1913 33.0528L6.4303 33.0104L6.41129 38.1178L18.8496 38.1592C21.6658 38.1686 23.8925 38.9337 25.5591 40.4266C27.2257 41.9195 28.0395 43.9708 28.03 46.5245C28.0205 49.0783 27.1916 51.0961 25.5139 52.5779C23.8362 54.0596 21.6039 54.8099 18.7877 54.8006L6.34936 54.7592L6.33035 59.8667L19.0914 59.9091C22.1423 59.9192 24.8139 59.3669 27.1649 58.2521C29.5159 57.1655 31.3405 55.6 32.6388 53.5838C33.9371 51.5675 34.5913 49.2124 34.6012 46.5464C34.6112 43.8523 33.9746 41.4929 32.6914 39.4681Z" fill="#FF1717"/>
<path d="M152.854 33.4563L145.802 33.4329L145.752 46.861L145.705 59.7258L152.756 59.7492L152.759 58.8101L152.763 57.8711L152.784 52.2369L152.808 45.6637L152.833 39.0905L152.843 36.2734L152.854 33.4563Z" fill="white"/>
<path d="M69.8536 59.5145L75.142 59.5318L88.0916 33.3424L81.6559 33.3082L79.212 39.0483L77.1712 43.7522L72.3992 52.9903L68.5808 43.7065L66.6242 38.9814L64.2484 33.2157L57.671 33.1807L69.8536 59.5145Z" fill="#FF1717"/>
<path d="M142.582 33.4631L142.402 59.7557L137.995 59.741L124.599 43.9551L124.54 59.6963L118.605 59.6765L118.703 33.3837L123.685 33.4002L136.558 49.7478L136.619 33.4432L142.582 33.4631Z" fill="white"/>
<path d="M178.141 33.5813L177.254 46.7249L179.526 59.8791L176.882 59.8703L176.91 52.358L176.931 46.7239L176.95 41.6613L168.995 47.6365L161.085 41.6085L161.017 59.8175L155.729 59.8L155.827 33.5071L159.979 33.5209L169.019 41.0633L178.141 33.5813L177.254 46.7249L179.526 59.8791L182.171 59.8879L182.216 47.6805L182.268 33.595L178.141 33.5813Z" fill="white"/>
<path d="M251.098 59.1121C249.087 58.5617 247.474 57.8224 246.258 56.9214L248.43 52.4162C249.589 53.2356 250.948 53.8925 252.562 54.3871C254.148 54.8817 255.763 55.1589 257.351 55.1642C259.137 55.1701 260.442 54.9026 261.323 54.4163C262.176 53.9026 262.603 53.2245 262.606 52.3818C262.609 51.7566 262.356 51.2393 261.847 50.8299C261.338 50.4205 260.687 50.0921 259.922 49.8449C259.129 49.5976 258.053 49.3222 256.722 49.0188C254.653 48.5498 252.954 48.082 251.652 47.5884C250.349 47.122 249.218 46.3571 248.286 45.3211C247.326 44.2849 246.877 42.8971 246.884 41.1574C246.89 39.6352 247.32 38.2775 248.175 37.0571C249.03 35.8367 250.31 34.8624 252.042 34.1614C253.746 33.4332 255.845 33.0868 258.34 33.0951C260.07 33.1008 261.742 33.2966 263.413 33.7099C265.056 34.096 266.5 34.6716 267.745 35.4369L265.771 39.997C263.281 38.6296 260.789 37.9417 258.265 37.9333C256.508 37.9275 255.231 38.1951 254.378 38.7359C253.525 39.2767 253.126 39.9821 253.123 40.8792C253.119 41.7762 253.599 42.4302 254.561 42.8683C255.524 43.3064 256.996 43.7462 258.98 44.1606C261.048 44.6296 262.747 45.1245 264.049 45.5909C265.38 46.0575 266.483 46.8223 267.443 47.8312C268.375 48.8401 268.852 50.228 268.846 51.9677C268.84 53.4355 268.382 54.7931 267.526 56.0135C266.643 57.2338 265.335 58.208 263.631 58.9091C261.871 59.6372 259.771 59.9836 257.305 59.9754C255.15 59.9682 253.081 59.6895 251.098 59.1121Z" fill="white"/>
<path d="M189.201 72L191.862 64.8516L193.18 64.8516L195.856 72L194.508 72L192.667 66.834C192.625 66.7168 192.588 66.6045 192.555 66.4971C192.526 66.3896 192.498 66.279 192.472 66.165L192.423 66.165C192.4 66.279 192.373 66.3896 192.34 66.4971C192.311 66.6045 192.275 66.7168 192.233 66.834L190.387 72L189.201 72ZM190.47 70.2959L190.812 69.334L194.162 69.3389L194.503 70.3008L190.47 70.2959ZM196.483 72L196.483 64.8906L197.86 64.8906L200.785 69.6025C200.844 69.7034 200.899 69.8109 200.951 69.9248C201.006 70.0355 201.053 70.1364 201.093 70.2275L201.136 70.2275C201.13 70.1234 201.123 69.9964 201.117 69.8467C201.114 69.6969 201.112 69.57 201.112 69.4658L201.112 64.8906L202.235 64.8906L202.235 72L200.853 72L197.919 67.2881C197.857 67.1904 197.802 67.0928 197.753 66.9951C197.704 66.8975 197.662 66.8031 197.626 66.7119L197.582 66.7119C197.588 66.8161 197.593 66.9284 197.596 67.0488C197.603 67.1693 197.606 67.2816 197.606 67.3857L197.606 72L196.483 72ZM203.434 68.6553L203.434 68.2353C203.434 67.1286 203.735 66.2708 204.337 65.6621C204.942 65.0501 205.72 64.7441 206.671 64.7441C207.621 64.7441 208.399 65.0501 209.005 65.6621C209.61 66.2708 209.913 67.1286 209.913 68.2353L209.913 68.6553C209.913 69.762 209.61 70.6214 209.005 71.2334C208.399 71.8421 207.621 72.1465 206.671 72.1465C205.72 72.1465 204.942 71.8421 204.337 71.2334C203.735 70.6214 203.434 69.762 203.434 68.6553ZM204.728 68.6846C204.728 69.4626 204.903 70.068 205.255 70.501C205.61 70.9339 206.082 71.1504 206.671 71.1504C207.263 71.1504 207.737 70.9339 208.092 70.501C208.447 70.068 208.624 69.4626 208.624 68.6846L208.624 68.206C208.624 67.428 208.447 66.8242 208.092 66.3945C207.737 65.9616 207.263 65.7451 206.671 65.7451C206.082 65.7451 205.61 65.9616 205.255 66.3945C204.903 66.8242 204.728 67.428 204.728 68.206L204.728 68.6846ZM211.117 72L211.117 64.8906L212.494 64.8906L215.418 69.6025C215.477 69.7034 215.532 69.8109 215.584 69.9248C215.64 70.0355 215.687 70.1364 215.726 70.2275L215.77 70.2275C215.763 70.1234 215.757 69.9964 215.75 69.8467C215.747 69.6969 215.745 69.57 215.745 69.4658L215.745 64.8906L216.869 64.8906L216.869 72L215.487 72L212.552 67.2881C212.49 67.1904 212.435 67.0928 212.386 66.9951C212.337 66.8975 212.295 66.8031 212.259 66.7119L212.215 66.7119C212.222 66.8161 212.227 66.9284 212.23 67.0488C212.236 67.1693 212.24 67.2816 212.24 67.3857L212.24 72L211.117 72ZM220.02 72L220.02 69.4463L217.53 64.8906L218.956 64.8906L220.43 67.7031C220.482 67.8008 220.53 67.8968 220.572 67.9912C220.618 68.0856 220.658 68.18 220.694 68.2744L220.738 68.2744C220.774 68.18 220.813 68.0856 220.855 67.9912C220.897 67.8968 220.945 67.8008 220.997 67.7031L222.491 64.8906L223.751 64.8906L221.285 69.417L221.285 72L220.02 72ZM224.441 72L224.441 64.8906L226.092 64.8906L227.938 69.749C227.977 69.8532 228.014 69.959 228.05 70.0664C228.089 70.1706 228.123 70.2764 228.152 70.3838L228.191 70.3838C228.217 70.2764 228.248 70.1706 228.284 70.0664C228.32 69.959 228.357 69.8532 228.396 69.749L230.208 64.8906L231.912 64.8906L231.912 72L230.662 72L230.662 67.1269C230.662 67.0228 230.664 66.9072 230.667 66.7803C230.674 66.6501 230.683 66.5329 230.696 66.4287L230.647 66.4287C230.621 66.5329 230.589 66.6501 230.55 66.7803C230.511 66.9072 230.472 67.0228 230.433 67.1269L228.611 72L227.562 72L225.711 67.1221C225.672 67.0179 225.634 66.9023 225.599 66.7754C225.563 66.6452 225.535 66.528 225.516 66.4238L225.467 66.4238C225.477 66.528 225.485 66.6452 225.491 66.7754C225.501 66.9023 225.506 67.0179 225.506 67.1221L225.506 72L224.441 72ZM233.111 68.6553L233.111 68.2353C233.111 67.1286 233.412 66.2708 234.014 65.6621C234.619 65.0501 235.397 64.7441 236.348 64.7441C237.298 64.7441 238.076 65.0501 238.682 65.6621C239.287 66.2708 239.59 67.1286 239.59 68.2353L239.59 68.6553C239.59 69.762 239.287 70.6214 238.682 71.2334C238.076 71.8421 237.298 72.1465 236.348 72.1465C235.397 72.1465 234.619 71.8421 234.014 71.2334C233.412 70.6214 233.111 69.762 233.111 68.6553ZM234.405 68.6846C234.405 69.4626 234.58 70.068 234.932 70.501C235.287 70.9339 235.759 71.1504 236.348 71.1504C236.94 71.1504 237.414 70.9339 237.769 70.501C238.124 70.068 238.301 69.4626 238.301 68.6846L238.301 68.206C238.301 67.428 238.124 66.8242 237.769 66.3945C237.414 65.9616 236.94 65.7451 236.348 65.7451C235.759 65.7451 235.287 65.9616 234.932 66.3945C234.58 66.8242 234.405 67.428 234.405 68.206L234.405 68.6846ZM240.715 69.4902L240.715 64.8906L241.985 64.8906L241.985 69.5098C241.985 70.0729 242.127 70.4879 242.41 70.7549C242.693 71.0185 243.069 71.1504 243.538 71.1504C244.006 71.1504 244.382 71.0185 244.666 70.7549C244.952 70.4879 245.095 70.0729 245.095 69.5098L245.095 64.8906L246.326 64.8906L246.326 69.4902C246.326 70.3821 246.054 71.0478 245.51 71.4873C244.97 71.9267 244.308 72.1465 243.523 72.1465C242.735 72.1465 242.07 71.9267 241.526 71.4873C240.986 71.0478 240.715 70.3821 240.715 69.4902ZM247.329 70.0029L247.329 69.915L248.603 69.915L248.603 69.998C248.603 70.3821 248.74 70.6719 249.014 70.8672C249.287 71.0625 249.67 71.1601 250.161 71.1601C250.649 71.1601 251.024 71.0641 251.284 70.8721C251.545 70.68 251.675 70.4293 251.675 70.1201C251.678 69.8239 251.562 69.5928 251.328 69.4267C251.094 69.2607 250.576 69.0801 249.775 68.8848C248.962 68.6829 248.372 68.4241 248.008 68.1084C247.643 67.7894 247.461 67.3402 247.461 66.7607C247.461 66.1748 247.697 65.693 248.169 65.3154C248.641 64.9346 249.289 64.7441 250.112 64.7441C250.936 64.7441 251.59 64.946 252.075 65.3496C252.563 65.7532 252.808 66.2562 252.808 66.8584L252.808 66.9463L251.538 66.9463L251.538 66.8633C251.538 66.5247 251.419 66.2529 251.182 66.0478C250.944 65.8395 250.588 65.7353 250.112 65.7353C249.643 65.7353 249.297 65.82 249.072 65.9892C248.848 66.1585 248.735 66.3766 248.735 66.6435C248.735 66.9365 248.846 67.1595 249.067 67.3125C249.289 67.4622 249.766 67.6282 250.498 67.8105C251.315 68.0124 251.927 68.2825 252.334 68.6211C252.744 68.9596 252.949 69.4398 252.949 70.0615C252.949 70.6865 252.697 71.1911 252.192 71.5752C251.691 71.956 251.014 72.1465 250.161 72.1465C249.311 72.1465 248.626 71.9577 248.105 71.5801C247.588 71.1992 247.329 70.6735 247.329 70.0029ZM253.982 72L253.982 64.8906L255.251 64.8906L255.251 71.0332L258.655 71.0332L258.655 72L253.982 72ZM261.001 72L261.001 69.4463L258.51 64.8906L259.936 64.8906L261.411 67.7031C261.463 67.8008 261.51 67.8968 261.552 67.9912C261.598 68.0856 261.639 68.18 261.674 68.2744L261.718 68.2744C261.754 68.18 261.793 68.0856 261.836 67.9912C261.878 67.8968 261.925 67.8008 261.977 67.7031L263.471 64.8906L264.731 64.8906L262.265 69.417L262.265 72L261.001 72Z" fill="#FF1717"/>
</g>
<g clip-path="url(#clip0_1534_354)">
<path d="M141.502 8.91963C141.697 8.96563 141.892 9.01154 142.087 9.05734C142.477 9.14869 142.865 9.24049 143.254 9.33275C144.001 9.50997 144.749 9.68387 145.498 9.85713C145.615 9.88462 145.733 9.91211 145.853 9.94043C145.961 9.9654 146.068 9.99037 146.179 10.0161C146.27 10.0375 146.362 10.0588 146.456 10.0808C147.639 10.3242 148.813 10.2812 149.977 10.0063C150.066 9.98607 150.154 9.96581 150.245 9.94494C151.406 9.67466 152.551 9.36903 153.697 9.06521C157.958 7.93728 157.958 7.93728 159.534 8.44813C160.553 8.88289 161.107 9.52951 161.455 10.3311C161.49 10.409 161.526 10.4869 161.562 10.5672C161.685 10.8414 161.805 11.1164 161.924 11.3917C161.97 11.4974 162.015 11.6032 162.063 11.7121C162.416 12.5292 162.762 13.3479 163.106 14.1669C163.347 14.7378 163.588 15.3086 163.829 15.8794C163.891 16.026 163.953 16.1725 164.014 16.3191C164.442 17.3324 164.874 18.3444 165.312 19.3555C165.486 19.7602 165.661 20.165 165.835 20.5698C166 20.9529 166.166 21.3357 166.333 21.7183C166.436 21.9552 166.538 22.1924 166.64 22.4296C166.709 22.5903 166.78 22.7506 166.85 22.911C167.265 23.8843 167.265 23.8843 167.169 24.4206C166.841 24.7854 166.439 24.8551 165.872 24.9577C165.789 24.9729 165.707 24.9881 165.622 25.0038C165.346 25.0544 165.07 25.1031 164.793 25.1517C164.596 25.1872 164.398 25.2229 164.201 25.2586C163.535 25.3783 162.868 25.4946 162.201 25.6105C162.078 25.6319 161.956 25.6532 161.829 25.6752C156.697 26.5677 156.697 26.5677 154.243 26.923C154.068 26.9483 154.068 26.9483 153.889 26.9742C153.548 27.0217 153.206 27.0651 152.863 27.1066C152.721 27.1239 152.579 27.1411 152.433 27.159C151.109 27.3067 149.799 27.3475 148.461 27.3582C148.349 27.3591 148.237 27.3601 148.121 27.3611C146.182 27.3745 144.323 27.2863 142.414 27.0333C142.233 27.0098 142.052 26.9863 141.871 26.9629C139.221 26.6157 136.587 26.2091 133.954 25.7989C133.648 25.7512 133.342 25.7037 133.035 25.6564C132.605 25.5897 132.175 25.522 131.745 25.4541C131.552 25.4243 131.552 25.4243 131.355 25.394C130.741 25.2959 130.18 25.1995 129.635 24.9638C129.253 24.4246 129.597 23.7543 129.822 23.2117C129.856 23.1267 129.89 23.0417 129.925 22.9541C130.038 22.6727 130.153 22.3917 130.268 22.1107C130.349 21.9108 130.43 21.7109 130.51 21.5111C130.724 20.9819 130.939 20.4531 131.154 19.9243C131.366 19.4038 131.576 18.8829 131.786 18.3621C132.036 17.7437 132.286 17.1254 132.538 16.5074C132.959 15.4711 133.377 14.4343 133.788 13.3958C133.908 13.0936 134.028 12.7915 134.148 12.4894C134.224 12.2987 134.299 12.1079 134.373 11.9169C134.477 11.6533 134.581 11.3899 134.686 11.1265C134.73 11.0123 134.73 11.0123 134.775 10.8959C135.152 9.95672 135.64 9.1589 136.85 8.6473C138.426 8.10307 139.962 8.55061 141.502 8.91963Z" fill="url(#paint0_linear_1534_354)"/>
<path d="M127.533 23.89L127.543 23.8681C127.573 23.7998 127.593 23.7565 127.605 23.722C127.617 23.6896 127.618 23.6753 127.618 23.6668C127.618 23.6584 127.616 23.6441 127.604 23.6119C127.6 23.6018 127.595 23.5908 127.59 23.5787L127.347 23.6398L127.347 23.6398C124.548 24.3362 121.683 25.147 119.459 26.5702C118.965 26.9116 118.465 27.2697 118.076 27.6678C117.688 28.0653 117.428 28.4877 117.388 28.9555C117.377 29.444 117.464 29.8467 117.663 30.2141C117.863 30.5843 118.183 30.9289 118.654 31.2909L118.863 31.4463L118.864 31.4474L118.864 31.4474L119.143 31.6609C122.558 33.9043 127.245 35.1158 132.197 35.7754C137.149 36.435 142.348 36.541 146.773 36.5852C151.397 36.6206 157.288 36.5352 162.909 35.8193C168.535 35.1028 173.867 33.7574 177.39 31.288C177.39 31.2877 177.39 31.2874 177.391 31.2872L177.604 31.1317L177.607 31.1292L177.607 31.1292C178.305 30.6496 178.917 30.1052 179.275 29.4799C179.511 28.7742 179.421 28.071 178.961 27.4335C177.959 26.2104 176.345 25.3344 174.511 24.665C172.756 24.0247 170.819 23.5799 169.059 23.1974C169.105 23.3973 169.137 23.597 169.151 23.807L169.151 23.8158L169.151 23.8158L169.153 24.11C169.153 24.1102 169.153 24.1104 169.153 24.1105L169.153 24.111L169.003 24.112C169.009 24.534 168.972 24.8031 168.689 25.1795L127.533 23.89ZM127.533 23.89L127.53 23.9138M127.533 23.89L127.53 23.9138M127.53 23.9138C127.495 24.2519 127.469 24.5947 127.535 24.9256C127.601 25.2629 127.761 25.5822 128.084 25.8787L128.084 25.8789M127.53 23.9138L128.084 25.8789M128.084 25.8789L128.092 25.8851M128.084 25.8789L128.092 25.8851M128.092 25.8851C128.619 26.3081 129.303 26.5362 130.017 26.6867C130.493 26.7869 130.996 26.8549 131.482 26.9206C131.722 26.9531 131.958 26.985 132.184 27.02L132.797 27.1153L132.797 27.1153M128.092 25.8851L132.797 27.1153M132.797 27.1153C133.226 27.182 133.656 27.2484 134.085 27.3146C134.516 27.3811 134.948 27.4481 135.379 27.5156C137.555 27.8561 139.733 28.1881 141.932 28.4553L132.797 27.1153Z" fill="#990E0E" stroke="black" stroke-width="0.3"/>
</g>
<path d="M6.69495 29V21.8906H9.05335C10.0364 21.8906 10.8567 22.1917 11.5143 22.7939C12.1718 23.3929 12.5006 24.2067 12.5006 25.2354V25.6553C12.5006 26.6807 12.1718 27.4945 11.5143 28.0967C10.8567 28.6989 10.0364 29 9.05335 29H6.69495ZM7.9596 28.0381H9.04847C9.70277 28.0381 10.2252 27.8298 10.6159 27.4131C11.0097 26.9964 11.2067 26.4121 11.2067 25.6602V25.2305C11.2067 24.4785 11.0097 23.8942 10.6159 23.4775C10.2252 23.0609 9.70277 22.8525 9.04847 22.8525H7.9596V28.0381ZM13.6992 29V21.8906H18.5478V22.8574H14.9638V24.8496H18.0888V25.8164H14.9638V28.0332H18.6015V29H13.6992ZM18.6965 21.8906H20.0588L21.8557 26.9248C21.898 27.0355 21.9338 27.1429 21.9631 27.2471C21.9924 27.348 22.0201 27.4554 22.0461 27.5693H22.0901C22.1161 27.4554 22.1438 27.348 22.1731 27.2471C22.2056 27.1429 22.2414 27.0355 22.2805 26.9248L24.1018 21.8906H25.303L22.6516 29.0342H21.3528L18.6965 21.8906ZM25.8814 29V21.8906H30.73V22.8574H27.146V24.8496H30.271V25.8164H27.146V28.0332H30.7837V29H25.8814ZM31.7723 29V21.8906H33.0418V28.0332H36.4452V29H31.7723ZM36.9162 25.6553V25.2354C36.9162 24.1286 37.2173 23.2708 37.8195 22.6621C38.425 22.0501 39.2029 21.7441 40.1535 21.7441C41.104 21.7441 41.882 22.0501 42.4875 22.6621C43.0929 23.2708 43.3957 24.1286 43.3957 25.2354V25.6553C43.3957 26.762 43.0929 27.6214 42.4875 28.2334C41.882 28.8421 41.104 29.1465 40.1535 29.1465C39.2029 29.1465 38.425 28.8421 37.8195 28.2334C37.2173 27.6214 36.9162 26.762 36.9162 25.6553ZM38.2101 25.6846C38.2101 26.4626 38.3859 27.068 38.7375 27.501C39.0923 27.9339 39.5643 28.1504 40.1535 28.1504C40.7459 28.1504 41.2195 27.9339 41.5744 27.501C41.9292 27.068 42.1066 26.4626 42.1066 25.6846V25.2061C42.1066 24.4281 41.9292 23.8242 41.5744 23.3945C41.2195 22.9616 40.7459 22.7451 40.1535 22.7451C39.5643 22.7451 39.0923 22.9616 38.7375 23.3945C38.3859 23.8242 38.2101 24.4281 38.2101 25.2061V25.6846ZM44.5991 29V21.8906H47.2211C48.0773 21.8906 48.7348 22.0924 49.1938 22.4961C49.6528 22.8965 49.8823 23.4401 49.8823 24.127C49.8823 24.8138 49.6528 25.3623 49.1938 25.7725C48.7348 26.1794 48.0773 26.3828 47.2211 26.3828H45.8686V29H44.5991ZM45.8686 25.4209H47.1919C47.7192 25.4209 48.0887 25.2988 48.3003 25.0547C48.5118 24.8073 48.6176 24.498 48.6176 24.127C48.6176 23.7591 48.5118 23.4548 48.3003 23.2139C48.0887 22.973 47.7192 22.8525 47.1919 22.8525H45.8686V25.4209ZM50.8269 29V21.8906H52.0916V29H50.8269ZM53.5782 29V21.8906H54.9551L57.8799 26.6025C57.9385 26.7035 57.9939 26.8109 58.046 26.9248C58.1013 27.0355 58.1485 27.1364 58.1876 27.2275H58.2315C58.225 27.1234 58.2185 26.9964 58.212 26.8467C58.2087 26.6969 58.2071 26.57 58.2071 26.4658V21.8906H59.3301V29H57.9483L55.0137 24.2881C54.9519 24.1904 54.8965 24.0928 54.8477 23.9951C54.7989 23.8975 54.7566 23.8031 54.7208 23.7119H54.6768C54.6833 23.8161 54.6882 23.9284 54.6915 24.0488C54.698 24.1693 54.7012 24.2816 54.7012 24.3857V29H53.5782ZM60.5287 25.6553V25.2354C60.5287 24.1286 60.8314 23.2708 61.4369 22.6621C62.0424 22.0501 62.8106 21.7441 63.7416 21.7441C64.653 21.7441 65.3594 21.9622 65.8607 22.3984C66.3653 22.8314 66.6387 23.3555 66.681 23.9707L66.6859 24.0244H65.4066L65.4017 23.9756C65.3822 23.6663 65.2357 23.3831 64.9623 23.126C64.6888 22.8656 64.2771 22.7354 63.7269 22.7354C63.167 22.7354 62.7097 22.9518 62.3549 23.3848C62 23.8177 61.8226 24.4232 61.8226 25.2012V25.6895C61.8226 26.4707 62.0033 27.0778 62.3646 27.5107C62.7259 27.9404 63.2321 28.1553 63.8832 28.1553C64.2152 28.1553 64.5017 28.1227 64.7425 28.0576C64.9867 27.9893 65.2194 27.8818 65.4408 27.7354V26.2998H63.7806V25.3379H66.6859V28.165C66.4353 28.4092 66.0739 28.6338 65.6019 28.8389C65.1299 29.0439 64.557 29.1465 63.8832 29.1465C62.8578 29.1465 62.0424 28.8421 61.4369 28.2334C60.8314 27.6214 60.5287 26.762 60.5287 25.6553Z" fill="white"/>
</g>
<defs>
<filter id="filter0_d_1534_354" x="0.62207" y="0" width="272.224" height="84" filterUnits="userSpaceOnUse" color-interpolation-filters="sRGB">
<feFlood flood-opacity="0" result="BackgroundImageFix"/>
<feColorMatrix in="SourceAlpha" type="matrix" values="0 0 0 0 0 0 0 0 0 0 0 0 0 0 0 0 0 0 127 0" result="hardAlpha"/>
<feOffset dy="4"/>
<feGaussianBlur stdDeviation="2"/>
<feComposite in2="hardAlpha" operator="out"/>
<feColorMatrix type="matrix" values="0 0 0 0 0 0 0 0 0 0 0 0 0 0 0 0 0 0 0.25 0"/>
<feBlend mode="normal" in2="BackgroundImageFix" result="effect1_dropShadow_1534_354"/>
<feBlend mode="normal" in="SourceGraphic" in2="effect1_dropShadow_1534_354" result="shape"/>
</filter>
<filter id="filter1_d_1534_354" x="212.545" y="33.9996" width="35.4552" height="34.7192" filterUnits="userSpaceOnUse" color-interpolation-filters="sRGB">
<feFlood flood-opacity="0" result="BackgroundImageFix"/>
<feColorMatrix in="SourceAlpha" type="matrix" values="0 0 0 0 0 0 0 0 0 0 0 0 0 0 0 0 0 0 127 0" result="hardAlpha"/>
<feOffset dy="4"/>
<feGaussianBlur stdDeviation="2"/>
<feComposite in2="hardAlpha" operator="out"/>
<feColorMatrix type="matrix" values="0 0 0 0 0 0 0 0 0 0 0 0 0 0 0 0 0 0 0.25 0"/>
<feBlend mode="normal" in2="BackgroundImageFix" result="effect1_dropShadow_1534_354"/>
<feBlend mode="normal" in="SourceGraphic" in2="effect1_dropShadow_1534_354" result="shape"/>
</filter>
<filter id="filter2_d_1534_354" x="0.62207" y="33.0104" width="272.224" height="50.9896" filterUnits="userSpaceOnUse" color-interpolation-filters="sRGB">
<feFlood flood-opacity="0" result="BackgroundImageFix"/>
<feColorMatrix in="SourceAlpha" type="matrix" values="0 0 0 0 0 0 0 0 0 0 0 0 0 0 0 0 0 0 127 0" result="hardAlpha"/>
<feOffset dy="4"/>
<feGaussianBlur stdDeviation="2"/>
<feComposite in2="hardAlpha" operator="out"/>
<feColorMatrix type="matrix" values="0 0 0 0 0 0 0 0 0 0 0 0 0 0 0 0 0 0 0.25 0"/>
<feBlend mode="normal" in2="BackgroundImageFix" result="effect1_dropShadow_1534_354"/>
<feBlend mode="normal" in="SourceGraphic" in2="effect1_dropShadow_1534_354" result="shape"/>
</filter>
<linearGradient id="paint0_linear_1534_354" x1="148.167" y1="8.21611" x2="148.355" y2="27.3594" gradientUnits="userSpaceOnUse">
<stop stop-color="#FF1717"/>
<stop offset="1" stop-color="#990E0E"/>
</linearGradient>
<clipPath id="clip0_1534_354">
<rect width="62.199" height="44.9451" fill="white" transform="matrix(0.999952 -0.00979289 0.0109611 0.99994 114.621 0.609131)"/>
</clipPath>
</defs>
</svg>
